<svg width="177" height="149" viewBox="0 0 177 149" fill="none" xmlns="http://www.w3.org/2000/svg">
<path fill-rule="evenodd" clip-rule="evenodd" d="M113.28 0L115.86 1.97067C136.736 17.9163 162.998 26.0052 173.342 28.0088L176.567 28.6337L176.773 31.9097C180.502 91.356 137.439 133.745 115.549 147.567L113.28 149L111.01 147.567C89.1199 133.745 46.0572 91.356 49.7865 31.9097L49.992 28.6337L53.2175 28.0088C63.5606 26.0052 89.823 17.9163 110.699 1.97067L113.28 0ZM58.1135 35.6311C56.4281 87.0859 92.5708 124.814 113.28 138.902C133.988 124.814 170.131 87.0859 168.446 35.6311C156.296 32.7577 133.047 24.9067 113.28 10.6298C93.5126 24.9067 70.2632 32.7577 58.1135 35.6311ZM113.279 20.1949C96.2876 33.2098 75.0477 39.7644 66.5517 41.4149C63.7197 86.6843 96.5236 119.222 113.279 129.831C130.035 119.222 162.839 86.6843 160.007 41.4149C151.511 39.7644 130.271 33.2098 113.279 20.1949ZM62.6006 5.9099C69.0061 7.12591 74.9165 9.39559 80.3037 12.7033C73.3454 15.8227 66.7258 18.2677 61.0325 20.0877C56.4302 18.5805 54.718 18.0847 54.0478 17.9959C50.9724 17.5884 50.5918 17.6887 35.0732 22.9958C15.9931 29.5207 15.3772 29.739 14.9201 30.1439C14.3736 30.6278 14.51 31.3035 15.2419 31.7386C15.5696 31.9335 23.3002 34.641 32.4209 37.7554C37.5732 39.5147 41.2951 40.7806 44.0453 41.6841C44.0848 42.4918 44.1318 43.2962 44.1864 44.0972C41.9475 43.3647 39.0947 42.415 36.1108 41.4059C29.8757 39.2976 24.7183 37.5725 24.6496 37.5725C24.581 37.5725 24.5248 39.4496 24.5248 41.7437V45.9147L23.2655 47.8629C21.9744 49.8602 19.9775 53.8434 19.0551 56.2617C18.4286 57.9042 17.707 60.8098 17.4072 62.8982C17.0934 65.0821 17.2871 69.1969 17.7956 71.1545C18.3375 73.2401 19.6593 75.9323 20.9681 77.6163C23.1855 80.4693 23.2037 80.4995 23.1433 81.2206C23.0925 81.8251 22.957 81.9776 21.9352 82.5817C20.5522 83.3991 18.0814 85.8681 17.336 87.1777C16.0255 89.4802 15.2826 92.0883 15.0144 95.3282L14.8775 96.9832L14.0287 96.0135C12.1736 93.8939 9.99515 91.0119 8.56611 88.7869C6.80752 86.0484 4.29855 80.9913 3.31567 78.2037C0.304901 69.6641 -0.673753 60.7615 0.454711 52.1759C2.20735 38.8435 8.4654 27.0479 18.4825 18.1968C26.4863 11.1248 36.273 6.72527 46.9674 5.39178C47.3367 5.34577 50.401 5.32873 53.777 5.35399C59.4638 5.39668 60.1125 5.4376 62.6006 5.9099ZM35.0747 52.1526C39.4195 52.7521 42.8675 53.7966 45.4557 55.3103C45.9083 58.1622 46.453 60.9669 47.0818 63.7228C45.5984 67.7099 40.8826 69.5457 38.0824 66.3727C35.87 63.8653 35.9512 59.9614 38.2704 57.3408C39.0778 56.4283 38.8614 56.3524 37.1968 56.9633C34.778 57.8513 32.5711 59.7742 31.3596 62.0491C28.1586 68.0604 31.2129 74.7713 37.6117 75.7856C38.8933 75.9889 39.3082 75.9738 40.6808 75.6748C44.1502 74.9186 47.1173 72.4365 48.4838 69.2955C49.8283 74.1827 51.432 78.9057 53.2458 83.4561L52.8827 83.8823L52.2211 83.0991C50.26 80.7773 48.6581 77.454 48.3944 75.1602L48.2697 74.075L47.1489 75.1945C44.1621 78.1779 39.9926 79.5531 36.1271 78.8298C30.3537 77.7495 26.5281 72.7026 26.8954 66.6508C27.0146 64.6871 27.4358 63.1183 28.3149 61.3638C28.8927 60.2109 29.167 59.8132 30.8068 57.7518C31.8539 56.4356 31.9268 55.3715 31.0654 53.9846C30.7592 53.4917 30.414 53.0288 30.2981 52.9556C30.1822 52.8825 30.0875 52.6078 30.0875 52.3448C30.0875 51.8788 30.1249 51.8669 31.5741 51.8708C32.3916 51.8727 33.967 51.9996 35.0747 52.1526Z" fill="#FFBA00"/>
</svg>
