<svg width="755" height="373" viewBox="0 0 755 373" fill="none" xmlns="http://www.w3.org/2000/svg" style="background-color:white">
<path opacity="0.05" d="M83 22H753" stroke="black"/>
<path opacity="0.05" d="M83 38H753" stroke="black"/>
<path opacity="0.05" d="M83 53H753" stroke="black"/>
<path opacity="0.05" d="M83 69H753" stroke="black"/>
<path opacity="0.05" d="M83 84H753" stroke="black"/>
<path opacity="0.05" d="M83 111H753" stroke="black"/>
<path opacity="0.05" d="M83 127H753" stroke="black"/>
<path opacity="0.05" d="M83 142H753" stroke="black"/>
<path opacity="0.05" d="M83 158H753" stroke="black"/>
<path opacity="0.05" d="M83 173H753" stroke="black"/>
<path opacity="0.05" d="M83 291H753" stroke="black"/>
<path opacity="0.05" d="M83 307H753" stroke="black"/>
<path opacity="0.05" d="M83 322H753" stroke="black"/>
<path opacity="0.05" d="M83 338H753" stroke="black"/>
<path opacity="0.05" d="M83 353H753" stroke="black"/>
<path opacity="0.05" d="M83 201H753" stroke="black"/>
<path opacity="0.05" d="M83 217H753" stroke="black"/>
<path opacity="0.05" d="M83 232H753" stroke="black"/>
<path opacity="0.05" d="M83 248H753" stroke="black"/>
<path opacity="0.05" d="M83 263H753" stroke="black"/>
<path d="M131 362.5L86 365H752.5C753.052 365 753.5 364.552 753.5 364V85.118C753.5 84.3747 752.718 83.8912 752.053 84.2236L749.711 85.3944C749.572 85.4639 749.419 85.5 749.264 85.5H743.347C743.122 85.5 742.904 85.5758 742.728 85.7151L734.104 92.5232C733.748 92.8043 733.247 92.8105 732.884 92.5383L730.163 90.497C729.778 90.2087 729.243 90.2345 728.888 90.5585L718.286 100.238C718.102 100.407 717.862 100.5 717.612 100.5H714.266C714.092 100.5 713.921 100.545 713.769 100.632L710.965 102.234C710.674 102.4 710.32 102.41 710.021 102.261L707.145 100.822C706.76 100.63 706.295 100.705 705.99 101.01L703.41 103.59C703.157 103.843 702.786 103.942 702.44 103.847L698.143 102.675C697.754 102.569 697.339 102.708 697.091 103.026L687.816 114.951C687.408 115.476 686.609 115.463 686.218 114.925L683.688 111.446C683.327 110.949 682.607 110.893 682.172 111.328L677.655 115.845C677.553 115.947 677.43 116.026 677.295 116.076L664.252 120.907C664.087 120.968 663.941 121.072 663.829 121.207L655.249 131.593C654.856 132.069 654.131 132.079 653.726 131.615L651.427 128.988C651.167 128.691 650.757 128.575 650.38 128.691L638.446 132.363C638.163 132.45 637.934 132.657 637.819 132.93L620.165 174.741C619.791 175.626 618.507 175.526 618.274 174.594L618.167 174.167C617.94 173.261 616.706 173.132 616.297 173.972L608.774 189.437C608.606 189.782 608.257 190 607.874 190H604.949C604.663 190 604.391 190.122 604.202 190.336L593.111 202.812C592.766 203.201 592.18 203.26 591.764 202.948L589.533 201.275C589.01 200.882 588.257 201.089 588.008 201.694L585.118 208.714C585.041 208.9 584.91 209.059 584.742 209.17L569.25 219.336C569.087 219.443 568.896 219.5 568.701 219.5H559.822C559.613 219.5 559.409 219.566 559.238 219.688L543.5 231L536.577 235.945C536.526 235.982 536.471 236.013 536.414 236.039L530.705 238.674C530.376 238.826 530 238.586 530 238.223C530 237.692 529.279 237.531 529.053 238.012L522.182 252.613C522.066 252.86 521.853 253.049 521.594 253.135L516.309 254.897C516.108 254.964 515.934 255.093 515.811 255.265L511.546 261.235C511.239 261.665 510.651 261.782 510.203 261.502L507.567 259.854C507.224 259.64 506.785 259.653 506.456 259.889L503.617 261.917C503.539 261.972 503.47 262.038 503.411 262.113L498.3 268.618C498.111 268.859 497.821 269 497.514 269H490.686C490.563 269 490.441 269.023 490.327 269.067L477.5 274L469 278L453.853 283.375C453.626 283.455 453.435 283.616 453.316 283.827L449.467 290.67C449.205 291.135 448.625 291.313 448.148 291.074L446.79 290.395C446.339 290.169 445.79 290.315 445.51 290.735L443.297 294.055C443.111 294.333 442.799 294.5 442.465 294.5H438.887C438.638 294.5 438.398 294.593 438.214 294.76L427.5 304.5L425.331 307.031C424.908 307.524 424.135 307.489 423.758 306.961L422.489 305.185C422.206 304.789 421.68 304.654 421.242 304.865L408.5 311L402.893 312.869C402.641 312.953 402.367 312.933 402.13 312.815L399.346 311.423C398.871 311.186 398.294 311.361 398.031 311.821L395.15 316.863C394.822 317.436 394.04 317.54 393.574 317.074L392.858 316.358C392.633 316.133 392.314 316.029 391.999 316.077L379.576 317.988C379.525 317.996 379.474 318 379.424 318H372.272C372.094 318 371.919 318.048 371.765 318.138L363.802 322.822C363.606 322.937 363.378 322.983 363.153 322.95L353.203 321.529C353.069 321.51 352.933 321.518 352.802 321.553L340.258 324.931C340.089 324.976 339.935 325.065 339.811 325.189L338.033 326.967C337.718 327.282 337.231 327.351 336.841 327.134L333.581 325.323C333.229 325.127 332.794 325.162 332.477 325.411L326.272 330.286C326.096 330.425 325.878 330.5 325.654 330.5H320.688C320.564 330.5 320.441 330.523 320.325 330.568L311.675 333.932C311.559 333.977 311.436 334 311.312 334H304.181C304.061 334 303.942 334.022 303.83 334.064L296.452 336.831C296.166 336.938 295.848 336.909 295.586 336.752L291.577 334.346C291.228 334.137 290.787 334.159 290.462 334.403L287.267 336.8C287.094 336.93 286.883 337 286.667 337H284.198C284.067 337 283.938 337.026 283.817 337.075L275.685 340.424C275.563 340.474 275.452 340.548 275.359 340.641L272.293 343.707C272.105 343.895 271.851 344 271.586 344H269H265.376C265.134 344 264.9 344.088 264.717 344.247L261.283 347.253C261.1 347.412 260.866 347.5 260.624 347.5H258H254.27C254.093 347.5 253.919 347.547 253.766 347.636L248 351L242.211 353.894C242.072 353.964 241.919 354 241.764 354H234H230.14C230.047 354 229.955 354.013 229.865 354.038L223.135 355.962C223.045 355.987 222.953 356 222.86 356H216.153C216.051 356 215.951 356.015 215.854 356.046L208.146 358.454C208.049 358.485 207.949 358.5 207.847 358.5H194.5H182L131 362.5Z" fill="url(#paint0_linear_111_31)"/>
<path d="M86 365L131 362.5L182 358.5H194.5H207.847C207.949 358.5 208.049 358.485 208.146 358.454L215.854 356.046C215.951 356.015 216.051 356 216.153 356H222.86C222.953 356 223.045 355.987 223.135 355.962L229.865 354.038C229.955 354.013 230.047 354 230.14 354H234H241.764C241.919 354 242.072 353.964 242.211 353.894L248 351L253.766 347.636C253.919 347.547 254.093 347.5 254.27 347.5H258H260.624C260.866 347.5 261.1 347.412 261.283 347.253L264.717 344.247C264.9 344.088 265.134 344 265.376 344H269H271.586C271.851 344 272.105 343.895 272.293 343.707L275.359 340.641C275.452 340.548 275.563 340.474 275.685 340.424L283.817 337.075C283.938 337.026 284.067 337 284.198 337H286.667C286.883 337 287.094 336.93 287.267 336.8L290.462 334.403C290.787 334.159 291.228 334.137 291.577 334.346L295.586 336.752C295.848 336.909 296.166 336.938 296.452 336.831L303.83 334.064C303.942 334.022 304.061 334 304.181 334H311.312C311.436 334 311.559 333.977 311.675 333.932L320.325 330.568C320.441 330.523 320.564 330.5 320.688 330.5H325.654C325.878 330.5 326.096 330.425 326.272 330.286L332.477 325.411C332.794 325.162 333.229 325.127 333.581 325.323L336.841 327.134C337.231 327.351 337.718 327.282 338.033 326.967L339.811 325.189C339.935 325.065 340.089 324.976 340.258 324.931L352.802 321.553C352.933 321.518 353.069 321.51 353.203 321.529L363.153 322.95C363.378 322.983 363.606 322.937 363.802 322.822L371.765 318.138C371.919 318.048 372.094 318 372.272 318H379.424C379.474 318 379.525 317.996 379.576 317.988L391.999 316.077C392.314 316.029 392.633 316.133 392.858 316.358L393.574 317.074C394.04 317.54 394.822 317.436 395.15 316.863L398.031 311.821C398.294 311.361 398.871 311.186 399.346 311.423L402.13 312.815C402.367 312.933 402.641 312.953 402.893 312.869L408.5 311L421.242 304.865C421.68 304.654 422.206 304.789 422.489 305.185L423.758 306.961C424.135 307.489 424.908 307.524 425.331 307.031L427.5 304.5L438.214 294.76C438.398 294.593 438.638 294.5 438.887 294.5H442.465C442.799 294.5 443.111 294.333 443.297 294.055L445.51 290.735C445.79 290.315 446.339 290.169 446.79 290.395L448.148 291.074C448.625 291.313 449.205 291.135 449.467 290.67L453.316 283.827C453.435 283.616 453.626 283.455 453.853 283.375L469 278L477.5 274L490.327 269.067C490.441 269.023 490.563 269 490.686 269H497.514C497.821 269 498.111 268.859 498.3 268.618L503.411 262.113C503.47 262.038 503.539 261.972 503.617 261.917L506.456 259.889C506.785 259.653 507.224 259.64 507.567 259.854L510.203 261.502C510.651 261.782 511.239 261.665 511.546 261.235L515.811 255.265C515.934 255.093 516.108 254.964 516.308 254.897L521.594 253.135C521.853 253.049 522.066 252.86 522.182 252.613L529.053 238.012C529.279 237.531 530 237.692 530 238.223V238.223C530 238.586 530.376 238.826 530.705 238.675L536.414 236.039C536.471 236.013 536.526 235.982 536.577 235.945L543.5 231L559.238 219.688C559.409 219.566 559.613 219.5 559.822 219.5H568.701C568.896 219.5 569.087 219.443 569.25 219.336L584.742 209.17C584.91 209.059 585.041 208.9 585.118 208.714L588.008 201.694C588.257 201.089 589.01 200.882 589.533 201.275L591.764 202.948C592.18 203.26 592.766 203.201 593.111 202.812L604.202 190.336C604.391 190.122 604.663 190 604.949 190H607.874C608.257 190 608.606 189.782 608.774 189.437L616.297 173.972C616.706 173.132 617.94 173.261 618.167 174.167L618.274 174.594C618.507 175.526 619.791 175.626 620.165 174.741L637.819 132.93C637.934 132.657 638.163 132.45 638.446 132.363L650.38 128.691C650.757 128.575 651.167 128.691 651.427 128.988L653.726 131.615C654.131 132.079 654.856 132.069 655.249 131.593L663.829 121.207C663.941 121.072 664.087 120.968 664.252 120.907L677.295 116.076C677.43 116.026 677.553 115.947 677.655 115.845L682.172 111.328C682.607 110.893 683.327 110.949 683.688 111.446L686.218 114.925C686.61 115.463 687.408 115.476 687.816 114.951L697.091 103.026C697.339 102.708 697.754 102.569 698.143 102.675L702.44 103.847C702.786 103.942 703.157 103.843 703.41 103.59L705.99 101.01C706.295 100.705 706.76 100.63 707.145 100.822L710.021 102.261C710.32 102.41 710.674 102.4 710.965 102.234L713.769 100.632C713.921 100.545 714.092 100.5 714.266 100.5H717.612C717.862 100.5 718.102 100.407 718.286 100.238L728.888 90.5585C729.243 90.2345 729.778 90.2087 730.163 90.497L732.884 92.5383C733.247 92.8105 733.748 92.8043 734.104 92.5232L742.728 85.7151C742.904 85.5758 743.122 85.5 743.347 85.5H749.264C749.419 85.5 749.572 85.4639 749.711 85.3944L753.5 83.5" stroke="#FF2171" stroke-width="4"/>
<path opacity="0.2" d="M83.5 9H753" stroke="black"/>
<path opacity="0.2" d="M83.5 98H753" stroke="black"/>
<path opacity="0.2" d="M83.5 187H753" stroke="black"/>
<path opacity="0.2" d="M83.5 276H753" stroke="black"/>
<path opacity="0.2" d="M83.5 365H753" stroke="black"/>
<path d="M5.775 9.888C5.775 10.4967 5.57333 10.999 5.17 11.395C4.774 11.7837 4.23867 12.011 3.564 12.077V12.968H2.772V12.077C2.03133 12.0183 1.45567 11.7763 1.045 11.351C0.634333 10.9183 0.429 10.3573 0.429 9.668H1.375C1.375 10.1373 1.54 10.5077 1.87 10.779C2.2 11.0503 2.629 11.186 3.157 11.186C3.62633 11.186 4.02233 11.0687 4.345 10.834C4.66767 10.592 4.829 10.2803 4.829 9.899C4.829 9.75967 4.807 9.635 4.763 9.525C4.72633 9.415 4.65667 9.31967 4.554 9.239C4.45867 9.15833 4.367 9.09233 4.279 9.041C4.19833 8.98233 4.07 8.92733 3.894 8.876C3.72533 8.81733 3.586 8.777 3.476 8.755C3.37333 8.72567 3.21933 8.689 3.014 8.645C2.794 8.59367 2.62533 8.55333 2.508 8.524C2.39067 8.49467 2.22933 8.45067 2.024 8.392C1.826 8.326 1.66833 8.26367 1.551 8.205C1.441 8.139 1.31267 8.05467 1.166 7.952C1.02667 7.842 0.916667 7.72467 0.836 7.6C0.762667 7.47533 0.700333 7.325 0.649 7.149C0.597667 6.973 0.572 6.77867 0.572 6.566C0.572 5.98667 0.759 5.51733 1.133 5.158C1.51433 4.79133 2.035 4.57867 2.695 4.52V3.684H3.509V4.52C4.15433 4.59333 4.65667 4.83167 5.016 5.235C5.38267 5.631 5.566 6.14433 5.566 6.775H4.642C4.642 6.34967 4.49533 6.01233 4.202 5.763C3.90867 5.51367 3.531 5.389 3.069 5.389C2.61433 5.389 2.24033 5.49167 1.947 5.697C1.65367 5.90233 1.507 6.17733 1.507 6.522C1.507 6.654 1.52533 6.77133 1.562 6.874C1.59867 6.97667 1.66467 7.06833 1.76 7.149C1.86267 7.22967 1.95433 7.29567 2.035 7.347C2.11567 7.39833 2.24033 7.45333 2.409 7.512C2.585 7.56333 2.717 7.6 2.805 7.622C2.90033 7.644 3.058 7.68067 3.278 7.732C3.49067 7.78333 3.65933 7.82733 3.784 7.864C3.916 7.89333 4.081 7.941 4.279 8.007C4.477 8.073 4.63467 8.139 4.752 8.205C4.87667 8.271 5.00867 8.359 5.148 8.469C5.29467 8.579 5.40833 8.7 5.489 8.832C5.56967 8.95667 5.63567 9.11067 5.687 9.294C5.74567 9.47 5.775 9.668 5.775 9.888ZM11.83 9.646V10.46H11.06V12H10.18V10.46H6.42898V10.24L9.00298 4.685H9.94898L7.66098 9.646H10.191L10.334 7.391H11.06V9.646H11.83ZM15.5597 12.132C14.6943 12.132 14.005 11.791 13.4917 11.109C12.9857 10.427 12.7327 9.503 12.7327 8.337C12.7327 7.171 12.9857 6.25067 13.4917 5.576C13.9977 4.894 14.687 4.553 15.5597 4.553C16.4323 4.553 17.1217 4.894 17.6277 5.576C18.1337 6.25067 18.3867 7.171 18.3867 8.337C18.3867 9.503 18.13 10.427 17.6167 11.109C17.1107 11.791 16.425 12.132 15.5597 12.132ZM15.5597 11.263C16.1537 11.263 16.6193 11.0063 16.9567 10.493C17.3013 9.97233 17.4737 9.25367 17.4737 8.337C17.4737 7.42767 17.3013 6.71633 16.9567 6.203C16.6193 5.68233 16.1537 5.422 15.5597 5.422C15.171 5.422 14.83 5.53933 14.5367 5.774C14.2507 6.00133 14.0307 6.335 13.8767 6.775C13.7227 7.215 13.6457 7.73567 13.6457 8.337C13.6457 9.25367 13.8143 9.97233 14.1517 10.493C14.4963 11.0063 14.9657 11.263 15.5597 11.263ZM22.4024 12.132C21.5371 12.132 20.8478 11.791 20.3344 11.109C19.8284 10.427 19.5754 9.503 19.5754 8.337C19.5754 7.171 19.8284 6.25067 20.3344 5.576C20.8404 4.894 21.5298 4.553 22.4024 4.553C23.2751 4.553 23.9644 4.894 24.4704 5.576C24.9764 6.25067 25.2294 7.171 25.2294 8.337C25.2294 9.503 24.9728 10.427 24.4594 11.109C23.9534 11.791 23.2678 12.132 22.4024 12.132ZM22.4024 11.263C22.9964 11.263 23.4621 11.0063 23.7994 10.493C24.1441 9.97233 24.3164 9.25367 24.3164 8.337C24.3164 7.42767 24.1441 6.71633 23.7994 6.203C23.4621 5.68233 22.9964 5.422 22.4024 5.422C22.0138 5.422 21.6728 5.53933 21.3794 5.774C21.0934 6.00133 20.8734 6.335 20.7194 6.775C20.5654 7.215 20.4884 7.73567 20.4884 8.337C20.4884 9.25367 20.6571 9.97233 20.9944 10.493C21.3391 11.0063 21.8084 11.263 22.4024 11.263ZM32.1241 12.132C31.2588 12.132 30.5695 11.791 30.0561 11.109C29.5501 10.427 29.2971 9.503 29.2971 8.337C29.2971 7.171 29.5501 6.25067 30.0561 5.576C30.5621 4.894 31.2515 4.553 32.1241 4.553C32.9968 4.553 33.6861 4.894 34.1921 5.576C34.6981 6.25067 34.9511 7.171 34.9511 8.337C34.9511 9.503 34.6945 10.427 34.1811 11.109C33.6751 11.791 32.9895 12.132 32.1241 12.132ZM32.1241 11.263C32.7181 11.263 33.1838 11.0063 33.5211 10.493C33.8658 9.97233 34.0381 9.25367 34.0381 8.337C34.0381 7.42767 33.8658 6.71633 33.5211 6.203C33.1838 5.68233 32.7181 5.422 32.1241 5.422C31.7355 5.422 31.3945 5.53933 31.1011 5.774C30.8151 6.00133 30.5951 6.335 30.4411 6.775C30.2871 7.215 30.2101 7.73567 30.2101 8.337C30.2101 9.25367 30.3788 9.97233 30.7161 10.493C31.0608 11.0063 31.5301 11.263 32.1241 11.263ZM38.9669 12.132C38.1016 12.132 37.4122 11.791 36.8989 11.109C36.3929 10.427 36.1399 9.503 36.1399 8.337C36.1399 7.171 36.3929 6.25067 36.8989 5.576C37.4049 4.894 38.0942 4.553 38.9669 4.553C39.8396 4.553 40.5289 4.894 41.0349 5.576C41.5409 6.25067 41.7939 7.171 41.7939 8.337C41.7939 9.503 41.5372 10.427 41.0239 11.109C40.5179 11.791 39.8322 12.132 38.9669 12.132ZM38.9669 11.263C39.5609 11.263 40.0266 11.0063 40.3639 10.493C40.7086 9.97233 40.8809 9.25367 40.8809 8.337C40.8809 7.42767 40.7086 6.71633 40.3639 6.203C40.0266 5.68233 39.5609 5.422 38.9669 5.422C38.5782 5.422 38.2372 5.53933 37.9439 5.774C37.6579 6.00133 37.4379 6.335 37.2839 6.775C37.1299 7.215 37.0529 7.73567 37.0529 8.337C37.0529 9.25367 37.2216 9.97233 37.5589 10.493C37.9036 11.0063 38.3729 11.263 38.9669 11.263ZM45.8097 12.132C44.9443 12.132 44.255 11.791 43.7417 11.109C43.2357 10.427 42.9827 9.503 42.9827 8.337C42.9827 7.171 43.2357 6.25067 43.7417 5.576C44.2477 4.894 44.937 4.553 45.8097 4.553C46.6823 4.553 47.3717 4.894 47.8777 5.576C48.3837 6.25067 48.6367 7.171 48.6367 8.337C48.6367 9.503 48.38 10.427 47.8667 11.109C47.3607 11.791 46.675 12.132 45.8097 12.132ZM45.8097 11.263C46.4037 11.263 46.8693 11.0063 47.2067 10.493C47.5513 9.97233 47.7237 9.25367 47.7237 8.337C47.7237 7.42767 47.5513 6.71633 47.2067 6.203C46.8693 5.68233 46.4037 5.422 45.8097 5.422C45.421 5.422 45.08 5.53933 44.7867 5.774C44.5007 6.00133 44.2807 6.335 44.1267 6.775C43.9727 7.215 43.8957 7.73567 43.8957 8.337C43.8957 9.25367 44.0643 9.97233 44.4017 10.493C44.7463 11.0063 45.2157 11.263 45.8097 11.263ZM49.7661 13.463V12.935C50.1475 12.803 50.3381 12.4913 50.3381 12H49.7111V10.845H50.8441V11.912C50.8441 12.7407 50.4848 13.2577 49.7661 13.463ZM54.7472 12.132C53.8818 12.132 53.1925 11.791 52.6792 11.109C52.1732 10.427 51.9202 9.503 51.9202 8.337C51.9202 7.171 52.1732 6.25067 52.6792 5.576C53.1852 4.894 53.8745 4.553 54.7472 4.553C55.6198 4.553 56.3092 4.894 56.8152 5.576C57.3212 6.25067 57.5742 7.171 57.5742 8.337C57.5742 9.503 57.3175 10.427 56.8042 11.109C56.2982 11.791 55.6125 12.132 54.7472 12.132ZM54.7472 11.263C55.3412 11.263 55.8068 11.0063 56.1442 10.493C56.4888 9.97233 56.6612 9.25367 56.6612 8.337C56.6612 7.42767 56.4888 6.71633 56.1442 6.203C55.8068 5.68233 55.3412 5.422 54.7472 5.422C54.3585 5.422 54.0175 5.53933 53.7242 5.774C53.4382 6.00133 53.2182 6.335 53.0642 6.775C52.9102 7.215 52.8332 7.73567 52.8332 8.337C52.8332 9.25367 53.0018 9.97233 53.3392 10.493C53.6838 11.0063 54.1532 11.263 54.7472 11.263ZM61.5899 12.132C60.7246 12.132 60.0353 11.791 59.5219 11.109C59.0159 10.427 58.7629 9.503 58.7629 8.337C58.7629 7.171 59.0159 6.25067 59.5219 5.576C60.0279 4.894 60.7173 4.553 61.5899 4.553C62.4626 4.553 63.1519 4.894 63.6579 5.576C64.1639 6.25067 64.4169 7.171 64.4169 8.337C64.4169 9.503 64.1603 10.427 63.6469 11.109C63.1409 11.791 62.4553 12.132 61.5899 12.132ZM61.5899 11.263C62.1839 11.263 62.6496 11.0063 62.9869 10.493C63.3316 9.97233 63.5039 9.25367 63.5039 8.337C63.5039 7.42767 63.3316 6.71633 62.9869 6.203C62.6496 5.68233 62.1839 5.422 61.5899 5.422C61.2013 5.422 60.8603 5.53933 60.5669 5.774C60.2809 6.00133 60.0609 6.335 59.9069 6.775C59.7529 7.215 59.6759 7.73567 59.6759 8.337C59.6759 9.25367 59.8446 9.97233 60.1819 10.493C60.5266 11.0063 60.9959 11.263 61.5899 11.263Z" fill="black"/>
<path d="M5.81699 98.888C5.81699 99.4967 5.61533 99.999 5.21199 100.395C4.81599 100.784 4.28066 101.011 3.60599 101.077V101.968H2.81399V101.077C2.07333 101.018 1.49766 100.776 1.08699 100.351C0.676326 99.9183 0.470992 99.3573 0.470992 98.668H1.41699C1.41699 99.1373 1.58199 99.5077 1.91199 99.779C2.24199 100.05 2.67099 100.186 3.19899 100.186C3.66833 100.186 4.06433 100.069 4.38699 99.834C4.70966 99.592 4.87099 99.2803 4.87099 98.899C4.87099 98.7597 4.84899 98.635 4.80499 98.525C4.76833 98.415 4.69866 98.3197 4.59599 98.239C4.50066 98.1583 4.40899 98.0923 4.32099 98.041C4.24033 97.9823 4.11199 97.9273 3.93599 97.876C3.76733 97.8173 3.62799 97.777 3.51799 97.755C3.41533 97.7257 3.26133 97.689 3.05599 97.645C2.83599 97.5937 2.66733 97.5533 2.54999 97.524C2.43266 97.4947 2.27133 97.4507 2.06599 97.392C1.86799 97.326 1.71033 97.2637 1.59299 97.205C1.48299 97.139 1.35466 97.0547 1.20799 96.952C1.06866 96.842 0.958659 96.7247 0.877992 96.6C0.804659 96.4753 0.742326 96.325 0.690992 96.149C0.639659 95.973 0.613992 95.7787 0.613992 95.566C0.613992 94.9867 0.800992 94.5173 1.17499 94.158C1.55633 93.7913 2.07699 93.5787 2.73699 93.52V92.684H3.55099V93.52C4.19633 93.5933 4.69866 93.8317 5.05799 94.235C5.42466 94.631 5.60799 95.1443 5.60799 95.775H4.68399C4.68399 95.3497 4.53733 95.0123 4.24399 94.763C3.95066 94.5137 3.57299 94.389 3.11099 94.389C2.65633 94.389 2.28233 94.4917 1.98899 94.697C1.69566 94.9023 1.54899 95.1773 1.54899 95.522C1.54899 95.654 1.56733 95.7713 1.60399 95.874C1.64066 95.9767 1.70666 96.0683 1.80199 96.149C1.90466 96.2297 1.99633 96.2957 2.07699 96.347C2.15766 96.3983 2.28233 96.4533 2.45099 96.512C2.62699 96.5633 2.75899 96.6 2.84699 96.622C2.94233 96.644 3.09999 96.6807 3.31999 96.732C3.53266 96.7833 3.70133 96.8273 3.82599 96.864C3.95799 96.8933 4.12299 96.941 4.32099 97.007C4.51899 97.073 4.67666 97.139 4.79399 97.205C4.91866 97.271 5.05066 97.359 5.18999 97.469C5.33666 97.579 5.45033 97.7 5.53099 97.832C5.61166 97.9567 5.67766 98.1107 5.72899 98.294C5.78766 98.47 5.81699 98.668 5.81699 98.888ZM9.56198 96.446C10.1633 96.534 10.651 96.7907 11.025 97.216C11.399 97.634 11.586 98.1437 11.586 98.745C11.586 99.4343 11.3513 100.006 10.882 100.461C10.4126 100.908 9.82964 101.132 9.13298 101.132C8.45831 101.132 7.89731 100.919 7.44998 100.494C7.00264 100.069 6.76064 99.526 6.72398 98.866H7.61498C7.64431 99.284 7.79831 99.6213 8.07698 99.878C8.35564 100.135 8.70764 100.263 9.13298 100.263C9.42631 100.263 9.69031 100.197 9.92498 100.065C10.1596 99.933 10.343 99.7497 10.475 99.515C10.607 99.273 10.673 99.0053 10.673 98.712C10.673 98.2647 10.5153 97.898 10.2 97.612C9.89198 97.3187 9.49964 97.172 9.02298 97.172H8.19798V96.996L9.89198 94.521H6.96598V93.685H11.3V93.894L9.56198 96.446ZM15.548 101.132C14.6826 101.132 13.9933 100.791 13.48 100.109C12.974 99.427 12.721 98.503 12.721 97.337C12.721 96.171 12.974 95.2507 13.48 94.576C13.986 93.894 14.6753 93.553 15.548 93.553C16.4206 93.553 17.11 93.894 17.616 94.576C18.122 95.2507 18.375 96.171 18.375 97.337C18.375 98.503 18.1183 99.427 17.605 100.109C17.099 100.791 16.4133 101.132 15.548 101.132ZM15.548 100.263C16.142 100.263 16.6076 100.006 16.945 99.493C17.2896 98.9723 17.462 98.2537 17.462 97.337C17.462 96.4277 17.2896 95.7163 16.945 95.203C16.6076 94.6823 16.142 94.422 15.548 94.422C15.1593 94.422 14.8183 94.5393 14.525 94.774C14.239 95.0013 14.019 95.335 13.865 95.775C13.711 96.215 13.634 96.7357 13.634 97.337C13.634 98.2537 13.8026 98.9723 14.14 99.493C14.4846 100.006 14.954 100.263 15.548 100.263ZM22.3907 101.132C21.5254 101.132 20.8361 100.791 20.3227 100.109C19.8167 99.427 19.5637 98.503 19.5637 97.337C19.5637 96.171 19.8167 95.2507 20.3227 94.576C20.8287 93.894 21.5181 93.553 22.3907 93.553C23.2634 93.553 23.9527 93.894 24.4587 94.576C24.9647 95.2507 25.2177 96.171 25.2177 97.337C25.2177 98.503 24.9611 99.427 24.4477 100.109C23.9417 100.791 23.2561 101.132 22.3907 101.132ZM22.3907 100.263C22.9847 100.263 23.4504 100.006 23.7877 99.493C24.1324 98.9723 24.3047 98.2537 24.3047 97.337C24.3047 96.4277 24.1324 95.7163 23.7877 95.203C23.4504 94.6823 22.9847 94.422 22.3907 94.422C22.0021 94.422 21.6611 94.5393 21.3677 94.774C21.0817 95.0013 20.8617 95.335 20.7077 95.775C20.5537 96.215 20.4767 96.7357 20.4767 97.337C20.4767 98.2537 20.6454 98.9723 20.9827 99.493C21.3274 100.006 21.7967 100.263 22.3907 100.263ZM32.1124 101.132C31.2471 101.132 30.5577 100.791 30.0444 100.109C29.5384 99.427 29.2854 98.503 29.2854 97.337C29.2854 96.171 29.5384 95.2507 30.0444 94.576C30.5504 93.894 31.2397 93.553 32.1124 93.553C32.9851 93.553 33.6744 93.894 34.1804 94.576C34.6864 95.2507 34.9394 96.171 34.9394 97.337C34.9394 98.503 34.6827 99.427 34.1694 100.109C33.6634 100.791 32.9777 101.132 32.1124 101.132ZM32.1124 100.263C32.7064 100.263 33.1721 100.006 33.5094 99.493C33.8541 98.9723 34.0264 98.2537 34.0264 97.337C34.0264 96.4277 33.8541 95.7163 33.5094 95.203C33.1721 94.6823 32.7064 94.422 32.1124 94.422C31.7237 94.422 31.3827 94.5393 31.0894 94.774C30.8034 95.0013 30.5834 95.335 30.4294 95.775C30.2754 96.215 30.1984 96.7357 30.1984 97.337C30.1984 98.2537 30.3671 98.9723 30.7044 99.493C31.0491 100.006 31.5184 100.263 32.1124 100.263ZM38.9552 101.132C38.0898 101.132 37.4005 100.791 36.8872 100.109C36.3812 99.427 36.1282 98.503 36.1282 97.337C36.1282 96.171 36.3812 95.2507 36.8872 94.576C37.3932 93.894 38.0825 93.553 38.9552 93.553C39.8278 93.553 40.5172 93.894 41.0232 94.576C41.5292 95.2507 41.7822 96.171 41.7822 97.337C41.7822 98.503 41.5255 99.427 41.0122 100.109C40.5062 100.791 39.8205 101.132 38.9552 101.132ZM38.9552 100.263C39.5492 100.263 40.0148 100.006 40.3522 99.493C40.6968 98.9723 40.8692 98.2537 40.8692 97.337C40.8692 96.4277 40.6968 95.7163 40.3522 95.203C40.0148 94.6823 39.5492 94.422 38.9552 94.422C38.5665 94.422 38.2255 94.5393 37.9322 94.774C37.6462 95.0013 37.4262 95.335 37.2722 95.775C37.1182 96.215 37.0412 96.7357 37.0412 97.337C37.0412 98.2537 37.2098 98.9723 37.5472 99.493C37.8918 100.006 38.3612 100.263 38.9552 100.263ZM45.798 101.132C44.9326 101.132 44.2433 100.791 43.73 100.109C43.224 99.427 42.971 98.503 42.971 97.337C42.971 96.171 43.224 95.2507 43.73 94.576C44.236 93.894 44.9253 93.553 45.798 93.553C46.6706 93.553 47.36 93.894 47.866 94.576C48.372 95.2507 48.625 96.171 48.625 97.337C48.625 98.503 48.3683 99.427 47.855 100.109C47.349 100.791 46.6633 101.132 45.798 101.132ZM45.798 100.263C46.392 100.263 46.8576 100.006 47.195 99.493C47.5396 98.9723 47.712 98.2537 47.712 97.337C47.712 96.4277 47.5396 95.7163 47.195 95.203C46.8576 94.6823 46.392 94.422 45.798 94.422C45.4093 94.422 45.0683 94.5393 44.775 94.774C44.489 95.0013 44.269 95.335 44.115 95.775C43.961 96.215 43.884 96.7357 43.884 97.337C43.884 98.2537 44.0526 98.9723 44.39 99.493C44.7346 100.006 45.204 100.263 45.798 100.263ZM49.7544 102.463V101.935C50.1358 101.803 50.3264 101.491 50.3264 101H49.6994V99.845H50.8324V100.912C50.8324 101.741 50.4731 102.258 49.7544 102.463ZM54.7355 101.132C53.8701 101.132 53.1808 100.791 52.6675 100.109C52.1615 99.427 51.9085 98.503 51.9085 97.337C51.9085 96.171 52.1615 95.2507 52.6675 94.576C53.1735 93.894 53.8628 93.553 54.7355 93.553C55.6081 93.553 56.2975 93.894 56.8035 94.576C57.3095 95.2507 57.5625 96.171 57.5625 97.337C57.5625 98.503 57.3058 99.427 56.7925 100.109C56.2865 100.791 55.6008 101.132 54.7355 101.132ZM54.7355 100.263C55.3295 100.263 55.7951 100.006 56.1325 99.493C56.4771 98.9723 56.6495 98.2537 56.6495 97.337C56.6495 96.4277 56.4771 95.7163 56.1325 95.203C55.7951 94.6823 55.3295 94.422 54.7355 94.422C54.3468 94.422 54.0058 94.5393 53.7125 94.774C53.4265 95.0013 53.2065 95.335 53.0525 95.775C52.8985 96.215 52.8215 96.7357 52.8215 97.337C52.8215 98.2537 52.9901 98.9723 53.3275 99.493C53.6721 100.006 54.1415 100.263 54.7355 100.263ZM61.5782 101.132C60.7129 101.132 60.0236 100.791 59.5102 100.109C59.0042 99.427 58.7512 98.503 58.7512 97.337C58.7512 96.171 59.0042 95.2507 59.5102 94.576C60.0162 93.894 60.7056 93.553 61.5782 93.553C62.4509 93.553 63.1402 93.894 63.6462 94.576C64.1522 95.2507 64.4052 96.171 64.4052 97.337C64.4052 98.503 64.1486 99.427 63.6352 100.109C63.1292 100.791 62.4436 101.132 61.5782 101.132ZM61.5782 100.263C62.1722 100.263 62.6379 100.006 62.9752 99.493C63.3199 98.9723 63.4922 98.2537 63.4922 97.337C63.4922 96.4277 63.3199 95.7163 62.9752 95.203C62.6379 94.6823 62.1722 94.422 61.5782 94.422C61.1896 94.422 60.8486 94.5393 60.5552 94.774C60.2692 95.0013 60.0492 95.335 59.8952 95.775C59.7412 96.215 59.6642 96.7357 59.6642 97.337C59.6642 98.2537 59.8329 98.9723 60.1702 99.493C60.5149 100.006 60.9842 100.263 61.5782 100.263Z" fill="black"/>
<path d="M5.91367 186.888C5.91367 187.497 5.71201 187.999 5.30867 188.395C4.91267 188.784 4.37734 189.011 3.70267 189.077V189.968H2.91067V189.077C2.17001 189.018 1.59434 188.776 1.18367 188.351C0.773005 187.918 0.567672 187.357 0.567672 186.668H1.51367C1.51367 187.137 1.67867 187.508 2.00867 187.779C2.33867 188.05 2.76767 188.186 3.29567 188.186C3.76501 188.186 4.16101 188.069 4.48367 187.834C4.80634 187.592 4.96767 187.28 4.96767 186.899C4.96767 186.76 4.94567 186.635 4.90167 186.525C4.86501 186.415 4.79534 186.32 4.69267 186.239C4.59734 186.158 4.50567 186.092 4.41767 186.041C4.33701 185.982 4.20867 185.927 4.03267 185.876C3.86401 185.817 3.72467 185.777 3.61467 185.755C3.51201 185.726 3.35801 185.689 3.15267 185.645C2.93267 185.594 2.76401 185.553 2.64667 185.524C2.52934 185.495 2.36801 185.451 2.16267 185.392C1.96467 185.326 1.80701 185.264 1.68967 185.205C1.57967 185.139 1.45134 185.055 1.30467 184.952C1.16534 184.842 1.05534 184.725 0.974672 184.6C0.901339 184.475 0.839005 184.325 0.787672 184.149C0.736339 183.973 0.710672 183.779 0.710672 183.566C0.710672 182.987 0.897672 182.517 1.27167 182.158C1.65301 181.791 2.17367 181.579 2.83367 181.52V180.684H3.64767V181.52C4.29301 181.593 4.79534 181.832 5.15467 182.235C5.52134 182.631 5.70467 183.144 5.70467 183.775H4.78067C4.78067 183.35 4.63401 183.012 4.34067 182.763C4.04734 182.514 3.66967 182.389 3.20767 182.389C2.75301 182.389 2.37901 182.492 2.08567 182.697C1.79234 182.902 1.64567 183.177 1.64567 183.522C1.64567 183.654 1.66401 183.771 1.70067 183.874C1.73734 183.977 1.80334 184.068 1.89867 184.149C2.00134 184.23 2.09301 184.296 2.17367 184.347C2.25434 184.398 2.37901 184.453 2.54767 184.512C2.72367 184.563 2.85567 184.6 2.94367 184.622C3.03901 184.644 3.19667 184.681 3.41667 184.732C3.62934 184.783 3.79801 184.827 3.92267 184.864C4.05467 184.893 4.21967 184.941 4.41767 185.007C4.61567 185.073 4.77334 185.139 4.89067 185.205C5.01534 185.271 5.14734 185.359 5.28667 185.469C5.43334 185.579 5.54701 185.7 5.62767 185.832C5.70834 185.957 5.77434 186.111 5.82567 186.294C5.88434 186.47 5.91367 186.668 5.91367 186.888ZM8.53666 188.131H11.6607V189H6.74366V188.703C7.88032 187.515 8.70532 186.62 9.21866 186.019C9.73199 185.41 10.0693 184.948 10.2307 184.633C10.392 184.318 10.4727 183.995 10.4727 183.665C10.4727 183.482 10.4397 183.313 10.3737 183.159C10.315 183.005 10.227 182.873 10.1097 182.763C9.99966 182.653 9.86399 182.569 9.70266 182.51C9.54132 182.451 9.36532 182.422 9.17466 182.422C8.90332 182.422 8.66499 182.477 8.45966 182.587C8.25432 182.69 8.09666 182.836 7.98666 183.027C7.87666 183.218 7.82166 183.434 7.82166 183.676V183.852H6.91966V183.676C6.91966 183.258 7.01132 182.888 7.19466 182.565C7.38532 182.242 7.64932 181.993 7.98666 181.817C8.33132 181.641 8.72732 181.553 9.17466 181.553C9.82732 181.553 10.359 181.751 10.7697 182.147C11.1803 182.536 11.3857 183.042 11.3857 183.665C11.3857 184.024 11.3197 184.365 11.1877 184.688C11.0557 185.011 10.7843 185.443 10.3737 185.986C9.97032 186.521 9.35799 187.236 8.53666 188.131ZM15.548 189.132C14.6826 189.132 13.9933 188.791 13.48 188.109C12.974 187.427 12.721 186.503 12.721 185.337C12.721 184.171 12.974 183.251 13.48 182.576C13.986 181.894 14.6753 181.553 15.548 181.553C16.4206 181.553 17.11 181.894 17.616 182.576C18.122 183.251 18.375 184.171 18.375 185.337C18.375 186.503 18.1183 187.427 17.605 188.109C17.099 188.791 16.4133 189.132 15.548 189.132ZM15.548 188.263C16.142 188.263 16.6076 188.006 16.945 187.493C17.2896 186.972 17.462 186.254 17.462 185.337C17.462 184.428 17.2896 183.716 16.945 183.203C16.6076 182.682 16.142 182.422 15.548 182.422C15.1593 182.422 14.8183 182.539 14.525 182.774C14.239 183.001 14.019 183.335 13.865 183.775C13.711 184.215 13.634 184.736 13.634 185.337C13.634 186.254 13.8026 186.972 14.14 187.493C14.4846 188.006 14.954 188.263 15.548 188.263ZM22.3907 189.132C21.5254 189.132 20.8361 188.791 20.3227 188.109C19.8167 187.427 19.5637 186.503 19.5637 185.337C19.5637 184.171 19.8167 183.251 20.3227 182.576C20.8287 181.894 21.5181 181.553 22.3907 181.553C23.2634 181.553 23.9527 181.894 24.4587 182.576C24.9647 183.251 25.2177 184.171 25.2177 185.337C25.2177 186.503 24.9611 187.427 24.4477 188.109C23.9417 188.791 23.2561 189.132 22.3907 189.132ZM22.3907 188.263C22.9847 188.263 23.4504 188.006 23.7877 187.493C24.1324 186.972 24.3047 186.254 24.3047 185.337C24.3047 184.428 24.1324 183.716 23.7877 183.203C23.4504 182.682 22.9847 182.422 22.3907 182.422C22.0021 182.422 21.6611 182.539 21.3677 182.774C21.0817 183.001 20.8617 183.335 20.7077 183.775C20.5537 184.215 20.4767 184.736 20.4767 185.337C20.4767 186.254 20.6454 186.972 20.9827 187.493C21.3274 188.006 21.7967 188.263 22.3907 188.263ZM32.1124 189.132C31.2471 189.132 30.5577 188.791 30.0444 188.109C29.5384 187.427 29.2854 186.503 29.2854 185.337C29.2854 184.171 29.5384 183.251 30.0444 182.576C30.5504 181.894 31.2397 181.553 32.1124 181.553C32.9851 181.553 33.6744 181.894 34.1804 182.576C34.6864 183.251 34.9394 184.171 34.9394 185.337C34.9394 186.503 34.6827 187.427 34.1694 188.109C33.6634 188.791 32.9777 189.132 32.1124 189.132ZM32.1124 188.263C32.7064 188.263 33.1721 188.006 33.5094 187.493C33.8541 186.972 34.0264 186.254 34.0264 185.337C34.0264 184.428 33.8541 183.716 33.5094 183.203C33.1721 182.682 32.7064 182.422 32.1124 182.422C31.7237 182.422 31.3827 182.539 31.0894 182.774C30.8034 183.001 30.5834 183.335 30.4294 183.775C30.2754 184.215 30.1984 184.736 30.1984 185.337C30.1984 186.254 30.3671 186.972 30.7044 187.493C31.0491 188.006 31.5184 188.263 32.1124 188.263ZM38.9552 189.132C38.0898 189.132 37.4005 188.791 36.8872 188.109C36.3812 187.427 36.1282 186.503 36.1282 185.337C36.1282 184.171 36.3812 183.251 36.8872 182.576C37.3932 181.894 38.0825 181.553 38.9552 181.553C39.8278 181.553 40.5172 181.894 41.0232 182.576C41.5292 183.251 41.7822 184.171 41.7822 185.337C41.7822 186.503 41.5255 187.427 41.0122 188.109C40.5062 188.791 39.8205 189.132 38.9552 189.132ZM38.9552 188.263C39.5492 188.263 40.0148 188.006 40.3522 187.493C40.6968 186.972 40.8692 186.254 40.8692 185.337C40.8692 184.428 40.6968 183.716 40.3522 183.203C40.0148 182.682 39.5492 182.422 38.9552 182.422C38.5665 182.422 38.2255 182.539 37.9322 182.774C37.6462 183.001 37.4262 183.335 37.2722 183.775C37.1182 184.215 37.0412 184.736 37.0412 185.337C37.0412 186.254 37.2098 186.972 37.5472 187.493C37.8918 188.006 38.3612 188.263 38.9552 188.263ZM45.798 189.132C44.9326 189.132 44.2433 188.791 43.73 188.109C43.224 187.427 42.971 186.503 42.971 185.337C42.971 184.171 43.224 183.251 43.73 182.576C44.236 181.894 44.9253 181.553 45.798 181.553C46.6706 181.553 47.36 181.894 47.866 182.576C48.372 183.251 48.625 184.171 48.625 185.337C48.625 186.503 48.3683 187.427 47.855 188.109C47.349 188.791 46.6633 189.132 45.798 189.132ZM45.798 188.263C46.392 188.263 46.8576 188.006 47.195 187.493C47.5396 186.972 47.712 186.254 47.712 185.337C47.712 184.428 47.5396 183.716 47.195 183.203C46.8576 182.682 46.392 182.422 45.798 182.422C45.4093 182.422 45.0683 182.539 44.775 182.774C44.489 183.001 44.269 183.335 44.115 183.775C43.961 184.215 43.884 184.736 43.884 185.337C43.884 186.254 44.0526 186.972 44.39 187.493C44.7346 188.006 45.204 188.263 45.798 188.263ZM49.7544 190.463V189.935C50.1358 189.803 50.3264 189.491 50.3264 189H49.6994V187.845H50.8324V188.912C50.8324 189.741 50.4731 190.258 49.7544 190.463ZM54.7355 189.132C53.8701 189.132 53.1808 188.791 52.6675 188.109C52.1615 187.427 51.9085 186.503 51.9085 185.337C51.9085 184.171 52.1615 183.251 52.6675 182.576C53.1735 181.894 53.8628 181.553 54.7355 181.553C55.6081 181.553 56.2975 181.894 56.8035 182.576C57.3095 183.251 57.5625 184.171 57.5625 185.337C57.5625 186.503 57.3058 187.427 56.7925 188.109C56.2865 188.791 55.6008 189.132 54.7355 189.132ZM54.7355 188.263C55.3295 188.263 55.7951 188.006 56.1325 187.493C56.4771 186.972 56.6495 186.254 56.6495 185.337C56.6495 184.428 56.4771 183.716 56.1325 183.203C55.7951 182.682 55.3295 182.422 54.7355 182.422C54.3468 182.422 54.0058 182.539 53.7125 182.774C53.4265 183.001 53.2065 183.335 53.0525 183.775C52.8985 184.215 52.8215 184.736 52.8215 185.337C52.8215 186.254 52.9901 186.972 53.3275 187.493C53.6721 188.006 54.1415 188.263 54.7355 188.263ZM61.5782 189.132C60.7129 189.132 60.0236 188.791 59.5102 188.109C59.0042 187.427 58.7512 186.503 58.7512 185.337C58.7512 184.171 59.0042 183.251 59.5102 182.576C60.0162 181.894 60.7056 181.553 61.5782 181.553C62.4509 181.553 63.1402 181.894 63.6462 182.576C64.1522 183.251 64.4052 184.171 64.4052 185.337C64.4052 186.503 64.1486 187.427 63.6352 188.109C63.1292 188.791 62.4436 189.132 61.5782 189.132ZM61.5782 188.263C62.1722 188.263 62.6379 188.006 62.9752 187.493C63.3199 186.972 63.4922 186.254 63.4922 185.337C63.4922 184.428 63.3199 183.716 62.9752 183.203C62.6379 182.682 62.1722 182.422 61.5782 182.422C61.1896 182.422 60.8486 182.539 60.5552 182.774C60.2692 183.001 60.0492 183.335 59.8952 183.775C59.7412 184.215 59.6642 184.736 59.6642 185.337C59.6642 186.254 59.8329 186.972 60.1702 187.493C60.5149 188.006 60.9842 188.263 61.5782 188.263Z" fill="black"/>
<path d="M8.05137 276.888C8.05137 277.497 7.8497 277.999 7.44637 278.395C7.05037 278.784 6.51503 279.011 5.84037 279.077V279.968H5.04837V279.077C4.3077 279.018 3.73203 278.776 3.32137 278.351C2.9107 277.918 2.70537 277.357 2.70537 276.668H3.65137C3.65137 277.137 3.81637 277.508 4.14637 277.779C4.47637 278.05 4.90537 278.186 5.43337 278.186C5.9027 278.186 6.2987 278.069 6.62137 277.834C6.94403 277.592 7.10537 277.28 7.10537 276.899C7.10537 276.76 7.08337 276.635 7.03937 276.525C7.0027 276.415 6.93303 276.32 6.83037 276.239C6.73503 276.158 6.64337 276.092 6.55537 276.041C6.4747 275.982 6.34637 275.927 6.17037 275.876C6.0017 275.817 5.86237 275.777 5.75237 275.755C5.6497 275.726 5.4957 275.689 5.29037 275.645C5.07037 275.594 4.9017 275.553 4.78437 275.524C4.66703 275.495 4.5057 275.451 4.30037 275.392C4.10237 275.326 3.9447 275.264 3.82737 275.205C3.71737 275.139 3.58903 275.055 3.44237 274.952C3.30303 274.842 3.19303 274.725 3.11237 274.6C3.03903 274.475 2.9767 274.325 2.92537 274.149C2.87403 273.973 2.84837 273.779 2.84837 273.566C2.84837 272.987 3.03537 272.517 3.40937 272.158C3.7907 271.791 4.31137 271.579 4.97137 271.52V270.684H5.78537V271.52C6.4307 271.593 6.93303 271.832 7.29237 272.235C7.65903 272.631 7.84237 273.144 7.84237 273.775H6.91837C6.91837 273.35 6.7717 273.012 6.47837 272.763C6.18503 272.514 5.80737 272.389 5.34537 272.389C4.8907 272.389 4.5167 272.492 4.22337 272.697C3.93003 272.902 3.78337 273.177 3.78337 273.522C3.78337 273.654 3.8017 273.771 3.83837 273.874C3.87503 273.977 3.94103 274.068 4.03637 274.149C4.13903 274.23 4.2307 274.296 4.31137 274.347C4.39203 274.398 4.5167 274.453 4.68537 274.512C4.86137 274.563 4.99337 274.6 5.08137 274.622C5.1767 274.644 5.33437 274.681 5.55437 274.732C5.76703 274.783 5.9357 274.827 6.06037 274.864C6.19237 274.893 6.35737 274.941 6.55537 275.007C6.75337 275.073 6.91103 275.139 7.02837 275.205C7.15303 275.271 7.28503 275.359 7.42437 275.469C7.57103 275.579 7.6847 275.7 7.76537 275.832C7.84603 275.957 7.91203 276.111 7.96337 276.294C8.02203 276.47 8.05137 276.668 8.05137 276.888ZM8.77135 271.685H11.0704V279H10.1684V272.521H8.77135V271.685ZM15.548 279.132C14.6826 279.132 13.9933 278.791 13.48 278.109C12.974 277.427 12.721 276.503 12.721 275.337C12.721 274.171 12.974 273.251 13.48 272.576C13.986 271.894 14.6753 271.553 15.548 271.553C16.4206 271.553 17.11 271.894 17.616 272.576C18.122 273.251 18.375 274.171 18.375 275.337C18.375 276.503 18.1183 277.427 17.605 278.109C17.099 278.791 16.4133 279.132 15.548 279.132ZM15.548 278.263C16.142 278.263 16.6076 278.006 16.945 277.493C17.2896 276.972 17.462 276.254 17.462 275.337C17.462 274.428 17.2896 273.716 16.945 273.203C16.6076 272.682 16.142 272.422 15.548 272.422C15.1593 272.422 14.8183 272.539 14.525 272.774C14.239 273.001 14.019 273.335 13.865 273.775C13.711 274.215 13.634 274.736 13.634 275.337C13.634 276.254 13.8026 276.972 14.14 277.493C14.4846 278.006 14.954 278.263 15.548 278.263ZM22.3907 279.132C21.5254 279.132 20.8361 278.791 20.3227 278.109C19.8167 277.427 19.5637 276.503 19.5637 275.337C19.5637 274.171 19.8167 273.251 20.3227 272.576C20.8287 271.894 21.5181 271.553 22.3907 271.553C23.2634 271.553 23.9527 271.894 24.4587 272.576C24.9647 273.251 25.2177 274.171 25.2177 275.337C25.2177 276.503 24.9611 277.427 24.4477 278.109C23.9417 278.791 23.2561 279.132 22.3907 279.132ZM22.3907 278.263C22.9847 278.263 23.4504 278.006 23.7877 277.493C24.1324 276.972 24.3047 276.254 24.3047 275.337C24.3047 274.428 24.1324 273.716 23.7877 273.203C23.4504 272.682 22.9847 272.422 22.3907 272.422C22.0021 272.422 21.6611 272.539 21.3677 272.774C21.0817 273.001 20.8617 273.335 20.7077 273.775C20.5537 274.215 20.4767 274.736 20.4767 275.337C20.4767 276.254 20.6454 276.972 20.9827 277.493C21.3274 278.006 21.7967 278.263 22.3907 278.263ZM32.1124 279.132C31.2471 279.132 30.5577 278.791 30.0444 278.109C29.5384 277.427 29.2854 276.503 29.2854 275.337C29.2854 274.171 29.5384 273.251 30.0444 272.576C30.5504 271.894 31.2397 271.553 32.1124 271.553C32.9851 271.553 33.6744 271.894 34.1804 272.576C34.6864 273.251 34.9394 274.171 34.9394 275.337C34.9394 276.503 34.6827 277.427 34.1694 278.109C33.6634 278.791 32.9777 279.132 32.1124 279.132ZM32.1124 278.263C32.7064 278.263 33.1721 278.006 33.5094 277.493C33.8541 276.972 34.0264 276.254 34.0264 275.337C34.0264 274.428 33.8541 273.716 33.5094 273.203C33.1721 272.682 32.7064 272.422 32.1124 272.422C31.7237 272.422 31.3827 272.539 31.0894 272.774C30.8034 273.001 30.5834 273.335 30.4294 273.775C30.2754 274.215 30.1984 274.736 30.1984 275.337C30.1984 276.254 30.3671 276.972 30.7044 277.493C31.0491 278.006 31.5184 278.263 32.1124 278.263ZM38.9552 279.132C38.0898 279.132 37.4005 278.791 36.8872 278.109C36.3812 277.427 36.1282 276.503 36.1282 275.337C36.1282 274.171 36.3812 273.251 36.8872 272.576C37.3932 271.894 38.0825 271.553 38.9552 271.553C39.8278 271.553 40.5172 271.894 41.0232 272.576C41.5292 273.251 41.7822 274.171 41.7822 275.337C41.7822 276.503 41.5255 277.427 41.0122 278.109C40.5062 278.791 39.8205 279.132 38.9552 279.132ZM38.9552 278.263C39.5492 278.263 40.0148 278.006 40.3522 277.493C40.6968 276.972 40.8692 276.254 40.8692 275.337C40.8692 274.428 40.6968 273.716 40.3522 273.203C40.0148 272.682 39.5492 272.422 38.9552 272.422C38.5665 272.422 38.2255 272.539 37.9322 272.774C37.6462 273.001 37.4262 273.335 37.2722 273.775C37.1182 274.215 37.0412 274.736 37.0412 275.337C37.0412 276.254 37.2098 276.972 37.5472 277.493C37.8918 278.006 38.3612 278.263 38.9552 278.263ZM45.798 279.132C44.9326 279.132 44.2433 278.791 43.73 278.109C43.224 277.427 42.971 276.503 42.971 275.337C42.971 274.171 43.224 273.251 43.73 272.576C44.236 271.894 44.9253 271.553 45.798 271.553C46.6706 271.553 47.36 271.894 47.866 272.576C48.372 273.251 48.625 274.171 48.625 275.337C48.625 276.503 48.3683 277.427 47.855 278.109C47.349 278.791 46.6633 279.132 45.798 279.132ZM45.798 278.263C46.392 278.263 46.8576 278.006 47.195 277.493C47.5396 276.972 47.712 276.254 47.712 275.337C47.712 274.428 47.5396 273.716 47.195 273.203C46.8576 272.682 46.392 272.422 45.798 272.422C45.4093 272.422 45.0683 272.539 44.775 272.774C44.489 273.001 44.269 273.335 44.115 273.775C43.961 274.215 43.884 274.736 43.884 275.337C43.884 276.254 44.0526 276.972 44.39 277.493C44.7346 278.006 45.204 278.263 45.798 278.263ZM49.7544 280.463V279.935C50.1358 279.803 50.3264 279.491 50.3264 279H49.6994V277.845H50.8324V278.912C50.8324 279.741 50.4731 280.258 49.7544 280.463ZM54.7355 279.132C53.8701 279.132 53.1808 278.791 52.6675 278.109C52.1615 277.427 51.9085 276.503 51.9085 275.337C51.9085 274.171 52.1615 273.251 52.6675 272.576C53.1735 271.894 53.8628 271.553 54.7355 271.553C55.6081 271.553 56.2975 271.894 56.8035 272.576C57.3095 273.251 57.5625 274.171 57.5625 275.337C57.5625 276.503 57.3058 277.427 56.7925 278.109C56.2865 278.791 55.6008 279.132 54.7355 279.132ZM54.7355 278.263C55.3295 278.263 55.7951 278.006 56.1325 277.493C56.4771 276.972 56.6495 276.254 56.6495 275.337C56.6495 274.428 56.4771 273.716 56.1325 273.203C55.7951 272.682 55.3295 272.422 54.7355 272.422C54.3468 272.422 54.0058 272.539 53.7125 272.774C53.4265 273.001 53.2065 273.335 53.0525 273.775C52.8985 274.215 52.8215 274.736 52.8215 275.337C52.8215 276.254 52.9901 276.972 53.3275 277.493C53.6721 278.006 54.1415 278.263 54.7355 278.263ZM61.5782 279.132C60.7129 279.132 60.0236 278.791 59.5102 278.109C59.0042 277.427 58.7512 276.503 58.7512 275.337C58.7512 274.171 59.0042 273.251 59.5102 272.576C60.0162 271.894 60.7056 271.553 61.5782 271.553C62.4509 271.553 63.1402 271.894 63.6462 272.576C64.1522 273.251 64.4052 274.171 64.4052 275.337C64.4052 276.503 64.1486 277.427 63.6352 278.109C63.1292 278.791 62.4436 279.132 61.5782 279.132ZM61.5782 278.263C62.1722 278.263 62.6379 278.006 62.9752 277.493C63.3199 276.972 63.4922 276.254 63.4922 275.337C63.4922 274.428 63.3199 273.716 62.9752 273.203C62.6379 272.682 62.1722 272.422 61.5782 272.422C61.1896 272.422 60.8486 272.539 60.5552 272.774C60.2692 273.001 60.0492 273.335 59.8952 273.775C59.7412 274.215 59.6642 274.736 59.6642 275.337C59.6642 276.254 59.8329 276.972 60.1702 277.493C60.5149 278.006 60.9842 278.263 61.5782 278.263Z" fill="black"/>
<path d="M45.798 368.132C44.9326 368.132 44.2433 367.791 43.73 367.109C43.224 366.427 42.971 365.503 42.971 364.337C42.971 363.171 43.224 362.251 43.73 361.576C44.236 360.894 44.9253 360.553 45.798 360.553C46.6706 360.553 47.36 360.894 47.866 361.576C48.372 362.251 48.625 363.171 48.625 364.337C48.625 365.503 48.3683 366.427 47.855 367.109C47.349 367.791 46.6633 368.132 45.798 368.132ZM45.798 367.263C46.392 367.263 46.8576 367.006 47.195 366.493C47.5396 365.972 47.712 365.254 47.712 364.337C47.712 363.428 47.5396 362.716 47.195 362.203C46.8576 361.682 46.392 361.422 45.798 361.422C45.4093 361.422 45.0683 361.539 44.775 361.774C44.489 362.001 44.269 362.335 44.115 362.775C43.961 363.215 43.884 363.736 43.884 364.337C43.884 365.254 44.0526 365.972 44.39 366.493C44.7346 367.006 45.204 367.263 45.798 367.263ZM49.7544 369.463V368.935C50.1358 368.803 50.3264 368.491 50.3264 368H49.6994V366.845H50.8324V367.912C50.8324 368.741 50.4731 369.258 49.7544 369.463ZM54.7355 368.132C53.8701 368.132 53.1808 367.791 52.6675 367.109C52.1615 366.427 51.9085 365.503 51.9085 364.337C51.9085 363.171 52.1615 362.251 52.6675 361.576C53.1735 360.894 53.8628 360.553 54.7355 360.553C55.6081 360.553 56.2975 360.894 56.8035 361.576C57.3095 362.251 57.5625 363.171 57.5625 364.337C57.5625 365.503 57.3058 366.427 56.7925 367.109C56.2865 367.791 55.6008 368.132 54.7355 368.132ZM54.7355 367.263C55.3295 367.263 55.7951 367.006 56.1325 366.493C56.4771 365.972 56.6495 365.254 56.6495 364.337C56.6495 363.428 56.4771 362.716 56.1325 362.203C55.7951 361.682 55.3295 361.422 54.7355 361.422C54.3468 361.422 54.0058 361.539 53.7125 361.774C53.4265 362.001 53.2065 362.335 53.0525 362.775C52.8985 363.215 52.8215 363.736 52.8215 364.337C52.8215 365.254 52.9901 365.972 53.3275 366.493C53.6721 367.006 54.1415 367.263 54.7355 367.263ZM61.5782 368.132C60.7129 368.132 60.0236 367.791 59.5102 367.109C59.0042 366.427 58.7512 365.503 58.7512 364.337C58.7512 363.171 59.0042 362.251 59.5102 361.576C60.0162 360.894 60.7056 360.553 61.5782 360.553C62.4509 360.553 63.1402 360.894 63.6462 361.576C64.1522 362.251 64.4052 363.171 64.4052 364.337C64.4052 365.503 64.1486 366.427 63.6352 367.109C63.1292 367.791 62.4436 368.132 61.5782 368.132ZM61.5782 367.263C62.1722 367.263 62.6379 367.006 62.9752 366.493C63.3199 365.972 63.4922 365.254 63.4922 364.337C63.4922 363.428 63.3199 362.716 62.9752 362.203C62.6379 361.682 62.1722 361.422 61.5782 361.422C61.1896 361.422 60.8486 361.539 60.5552 361.774C60.2692 362.001 60.0492 362.335 59.8952 362.775C59.7412 363.215 59.6642 363.736 59.6642 364.337C59.6642 365.254 59.8329 365.972 60.1702 366.493C60.5149 367.006 60.9842 367.263 61.5782 367.263Z" fill="black"/>
<defs>
<linearGradient id="paint0_linear_111_31" x1="530.5" y1="35" x2="600.5" y2="414.5" gradientUnits="userSpaceOnUse">
<stop stop-color="#FF2171"/>
<stop offset="1" stop-color="#FF2171" stop-opacity="0"/>
</linearGradient>
</defs>
</svg>
