<svg width="816" height="512" viewBox="0 0 816 512" fill="none" xmlns="http://www.w3.org/2000/svg">
<path d="M1182.88 -400H1168.96V-386.058H1171.89L818.269 102.051L666.185 -200.3C666.101 -200.443 665.981 -200.562 665.837 -200.644C665.693 -200.727 665.53 -200.77 665.364 -200.77C665.198 -200.77 665.035 -200.727 664.891 -200.644C664.747 -200.562 664.627 -200.443 664.543 -200.3L381.442 274.502H369.481V276.145L228.257 153.114C228.089 152.961 227.869 152.876 227.641 152.876C227.413 152.876 227.194 152.961 227.025 153.114L13.0625 350.37H0V364.312H13.9395V352.143L227.66 155.074L369.481 278.627V288.425H383.42V274.801L665.196 -197.948L817.336 104.178C817.411 104.32 817.52 104.44 817.654 104.529C817.788 104.617 817.942 104.669 818.101 104.682C818.262 104.698 818.423 104.672 818.57 104.606C818.717 104.541 818.845 104.438 818.941 104.309L1174.24 -386.058H1182.88V-400Z" fill="url(#paint0_linear_4_409)"/>
<path d="M679.453 511.903V161.7L670.514 162.092V511.903H679.453Z" fill="url(#paint1_linear_4_409)"/>
<path d="M638.959 174.465H630.021V511.903H638.959V174.465Z" fill="url(#paint2_linear_4_409)"/>
<path d="M604.791 198.728H595.853V511.903H604.791V198.728Z" fill="url(#paint3_linear_4_409)"/>
<path d="M532.165 254.234H523.226V511.903H532.165V254.234Z" fill="url(#paint4_linear_4_409)"/>
<path d="M494.171 299.96H485.232V511.903H494.171V299.96Z" fill="url(#paint5_linear_4_409)"/>
<path d="M565.585 220.826H556.647V511.903H565.585V220.826Z" fill="url(#paint6_linear_4_409)"/>
<path d="M419.958 379.597H411.019V511.903H419.958V379.597Z" fill="url(#paint7_linear_4_409)"/>
<path d="M269.963 277.526H261.025V511.922H269.963V277.526Z" fill="url(#paint8_linear_4_409)"/>
<path d="M343.132 282.472H334.193V511.903H343.132V282.472Z" fill="url(#paint9_linear_4_409)"/>
<path d="M159.922 282.472H150.983V511.903H159.922V282.472Z" fill="url(#paint10_linear_4_409)"/>
<path d="M232.848 402.311H223.909V511.903H232.848V402.311Z" fill="url(#paint11_linear_4_409)"/>
<path d="M119.745 321.255H110.807V511.903H119.745V321.255Z" fill="url(#paint12_linear_4_409)"/>
<path d="M86.3987 414.573H77.4602V511.903H86.3987V414.573Z" fill="url(#paint13_linear_4_409)"/>
<path d="M46.2784 468.734H37.34V511.922H46.2784V468.734Z" fill="url(#paint14_linear_4_409)"/>
<path d="M14.3686 468.734H5.43018V511.922H14.3686V468.734Z" fill="url(#paint15_linear_4_409)"/>
<path d="M308.18 233.872H299.242V511.922H308.18V233.872Z" fill="url(#paint16_linear_4_409)"/>
<path d="M384.204 449.474H375.266V511.903H384.204V449.474Z" fill="url(#paint17_linear_4_409)"/>
<path d="M197.243 449.474H188.305V511.903H197.243V449.474Z" fill="url(#paint18_linear_4_409)"/>
<path d="M747.06 233.872H738.121V511.922H747.06V233.872Z" fill="url(#paint19_linear_4_409)"/>
<path d="M713.248 179.915H704.309V511.922H713.248V179.915Z" fill="url(#paint20_linear_4_409)"/>
<path d="M456.16 339.452H447.221V511.903H456.16V339.452Z" fill="url(#paint21_linear_4_409)"/>
<path d="M788.86 277.526H779.922V511.922H788.86V277.526Z" fill="url(#paint22_linear_4_409)"/>
<path d="M602.459 92.607C602.459 94.1766 601.993 95.7109 601.121 97.0157C600.249 98.3206 599.009 99.3372 597.559 99.937C596.109 100.537 594.513 100.693 592.974 100.385C591.435 100.078 590.022 99.3203 588.914 98.2092C587.805 97.098 587.051 95.6829 586.748 94.143C586.444 92.6031 586.603 91.0076 587.206 89.5586C587.81 88.1095 588.829 86.872 590.136 86.0027C591.442 85.1334 592.977 84.6713 594.547 84.675C595.587 84.675 596.618 84.8803 597.579 85.2791C598.54 85.678 599.413 86.2625 600.148 86.9993C600.883 87.7361 601.466 88.6107 601.862 89.573C602.259 90.5352 602.461 91.5662 602.459 92.607Z" fill="url(#paint23_linear_4_409)"/>
<path d="M31.2006 246.992V365.73" stroke="url(#paint24_linear_4_409)" stroke-miterlimit="10"/>
<path d="M98.1738 186.093V304.831" stroke="url(#paint25_linear_4_409)" stroke-miterlimit="10"/>
<path d="M232.083 120.528V239.284" stroke="url(#paint26_linear_4_409)" stroke-miterlimit="10"/>
<path d="M365.002 14.7611V178.646" stroke="url(#paint27_linear_4_409)" stroke-width="1.17" stroke-miterlimit="10"/>
<path d="M433.338 -22.8647V141.02" stroke="url(#paint28_linear_4_409)" stroke-width="1.17" stroke-miterlimit="10"/>
<path d="M499.956 84.675V248.56" stroke="url(#paint29_linear_4_409)" stroke-width="1.17" stroke-miterlimit="10"/>
<path d="M633.529 -36.6198V127.265" stroke="url(#paint30_linear_4_409)" stroke-width="1.17" stroke-miterlimit="10"/>
<path d="M41.464 304.831H20.9559V368.754H41.464V304.831Z" fill="url(#paint31_linear_4_409)"/>
<path d="M108.418 223.01H87.9104V286.932H108.418V223.01Z" fill="url(#paint32_linear_4_409)"/>
<path d="M175.167 84.1151H154.659V239.21H175.167V84.1151Z" fill="url(#paint33_linear_4_409)"/>
<path d="M242.327 77.6388H221.819V141.002H242.327V77.6388Z" fill="url(#paint34_linear_4_409)"/>
<path d="M309.506 -51.196H288.998V111.327H309.506V-51.196Z" fill="url(#paint35_linear_4_409)"/>
<path d="M375.265 120.714H354.757V203.711H375.265V120.714Z" fill="url(#paint36_linear_4_409)"/>
<path d="M443.583 113.435H423.074V235.495H443.583V113.435Z" fill="url(#paint37_linear_4_409)"/>
<path d="M510.2 -3.62253H489.692V158.919H510.2V-3.62253Z" fill="url(#paint38_linear_4_409)"/>
<path d="M644.762 -127.605H624.254V34.9364H644.762V-127.605Z" fill="url(#paint39_linear_4_409)"/>
<defs>
<linearGradient id="paint0_linear_4_409" x1="10633.6" y1="-137.803" x2="10619.2" y2="493.613" gradientUnits="userSpaceOnUse">
<stop stop-color="#FA3364"/>
<stop offset="1" stop-color="#343BFF"/>
</linearGradient>
<linearGradient id="paint1_linear_4_409" x1="750.867" y1="281.837" x2="613.211" y2="381.872" gradientUnits="userSpaceOnUse">
<stop stop-color="#FA3364"/>
<stop offset="1" stop-color="#343BFF"/>
</linearGradient>
<linearGradient id="paint2_linear_4_409" x1="710.374" y1="290.224" x2="576.29" y2="391.349" gradientUnits="userSpaceOnUse">
<stop stop-color="#FA3364"/>
<stop offset="1" stop-color="#343BFF"/>
</linearGradient>
<linearGradient id="paint3_linear_4_409" x1="676.206" y1="306.163" x2="549.515" y2="409.114" gradientUnits="userSpaceOnUse">
<stop stop-color="#FA3364"/>
<stop offset="1" stop-color="#343BFF"/>
</linearGradient>
<linearGradient id="paint4_linear_4_409" x1="603.579" y1="342.627" x2="497.099" y2="447.795" gradientUnits="userSpaceOnUse">
<stop stop-color="#FA3364"/>
<stop offset="1" stop-color="#343BFF"/>
</linearGradient>
<linearGradient id="paint5_linear_4_409" x1="565.586" y1="372.667" x2="479.441" y2="476.107" gradientUnits="userSpaceOnUse">
<stop stop-color="#FA3364"/>
<stop offset="1" stop-color="#343BFF"/>
</linearGradient>
<linearGradient id="paint6_linear_4_409" x1="636.999" y1="320.68" x2="517.781" y2="424.914" gradientUnits="userSpaceOnUse">
<stop stop-color="#FA3364"/>
<stop offset="1" stop-color="#343BFF"/>
</linearGradient>
<linearGradient id="paint7_linear_4_409" x1="491.372" y1="424.985" x2="446.615" y2="511.074" gradientUnits="userSpaceOnUse">
<stop stop-color="#FA3364"/>
<stop offset="1" stop-color="#343BFF"/>
</linearGradient>
<linearGradient id="paint8_linear_4_409" x1="341.377" y1="357.936" x2="244.834" y2="462.756" gradientUnits="userSpaceOnUse">
<stop stop-color="#FA3364"/>
<stop offset="1" stop-color="#343BFF"/>
</linearGradient>
<linearGradient id="paint9_linear_4_409" x1="414.547" y1="361.178" x2="320.236" y2="465.792" gradientUnits="userSpaceOnUse">
<stop stop-color="#FA3364"/>
<stop offset="1" stop-color="#343BFF"/>
</linearGradient>
<linearGradient id="paint10_linear_4_409" x1="231.336" y1="361.178" x2="137.025" y2="465.791" gradientUnits="userSpaceOnUse">
<stop stop-color="#FA3364"/>
<stop offset="1" stop-color="#343BFF"/>
</linearGradient>
<linearGradient id="paint11_linear_4_409" x1="304.262" y1="439.906" x2="271.356" y2="516.32" gradientUnits="userSpaceOnUse">
<stop stop-color="#FA3364"/>
<stop offset="1" stop-color="#343BFF"/>
</linearGradient>
<linearGradient id="paint12_linear_4_409" x1="191.159" y1="386.657" x2="115.545" y2="487.592" gradientUnits="userSpaceOnUse">
<stop stop-color="#FA3364"/>
<stop offset="1" stop-color="#343BFF"/>
</linearGradient>
<linearGradient id="paint13_linear_4_409" x1="157.813" y1="447.962" x2="130.971" y2="518.145" gradientUnits="userSpaceOnUse">
<stop stop-color="#FA3364"/>
<stop offset="1" stop-color="#343BFF"/>
</linearGradient>
<linearGradient id="paint14_linear_4_409" x1="117.693" y1="483.55" x2="111.805" y2="518.247" gradientUnits="userSpaceOnUse">
<stop stop-color="#FA3364"/>
<stop offset="1" stop-color="#343BFF"/>
</linearGradient>
<linearGradient id="paint15_linear_4_409" x1="85.7829" y1="483.55" x2="79.8948" y2="518.247" gradientUnits="userSpaceOnUse">
<stop stop-color="#FA3364"/>
<stop offset="1" stop-color="#343BFF"/>
</linearGradient>
<linearGradient id="paint16_linear_4_409" x1="379.594" y1="329.257" x2="265.132" y2="434.022" gradientUnits="userSpaceOnUse">
<stop stop-color="#FA3364"/>
<stop offset="1" stop-color="#343BFF"/>
</linearGradient>
<linearGradient id="paint17_linear_4_409" x1="455.618" y1="470.89" x2="443.679" y2="519.562" gradientUnits="userSpaceOnUse">
<stop stop-color="#FA3364"/>
<stop offset="1" stop-color="#343BFF"/>
</linearGradient>
<linearGradient id="paint18_linear_4_409" x1="268.657" y1="470.89" x2="256.718" y2="519.562" gradientUnits="userSpaceOnUse">
<stop stop-color="#FA3364"/>
<stop offset="1" stop-color="#343BFF"/>
</linearGradient>
<linearGradient id="paint19_linear_4_409" x1="818.475" y1="329.257" x2="704.012" y2="434.023" gradientUnits="userSpaceOnUse">
<stop stop-color="#FA3364"/>
<stop offset="1" stop-color="#343BFF"/>
</linearGradient>
<linearGradient id="paint20_linear_4_409" x1="784.662" y1="293.81" x2="652.163" y2="395.376" gradientUnits="userSpaceOnUse">
<stop stop-color="#FA3364"/>
<stop offset="1" stop-color="#343BFF"/>
</linearGradient>
<linearGradient id="paint21_linear_4_409" x1="527.574" y1="398.611" x2="461.38" y2="496.296" gradientUnits="userSpaceOnUse">
<stop stop-color="#FA3364"/>
<stop offset="1" stop-color="#343BFF"/>
</linearGradient>
<linearGradient id="paint22_linear_4_409" x1="860.273" y1="357.936" x2="763.73" y2="462.755" gradientUnits="userSpaceOnUse">
<stop stop-color="#FA3364"/>
<stop offset="1" stop-color="#343BFF"/>
</linearGradient>
<linearGradient id="paint23_linear_4_409" x1="729.187" y1="90.1171" x2="728.726" y2="103.213" gradientUnits="userSpaceOnUse">
<stop stop-color="#FA3364"/>
<stop offset="1" stop-color="#343BFF"/>
</linearGradient>
<linearGradient id="paint24_linear_4_409" x1="-nan" y1="-nan" x2="-nan" y2="-nan" gradientUnits="userSpaceOnUse">
<stop stop-color="#BB33FA"/>
<stop offset="1" stop-color="#34FFFF"/>
</linearGradient>
<linearGradient id="paint25_linear_4_409" x1="-nan" y1="-nan" x2="-nan" y2="-nan" gradientUnits="userSpaceOnUse">
<stop stop-color="#BB33FA"/>
<stop offset="1" stop-color="#34FFFF"/>
</linearGradient>
<linearGradient id="paint26_linear_4_409" x1="-nan" y1="-nan" x2="-nan" y2="-nan" gradientUnits="userSpaceOnUse">
<stop stop-color="#BB33FA"/>
<stop offset="1" stop-color="#34FFFF"/>
</linearGradient>
<linearGradient id="paint27_linear_4_409" x1="-nan" y1="-nan" x2="-nan" y2="-nan" gradientUnits="userSpaceOnUse">
<stop stop-color="#BB33FA"/>
<stop offset="1" stop-color="#34FFFF"/>
</linearGradient>
<linearGradient id="paint28_linear_4_409" x1="-nan" y1="-nan" x2="-nan" y2="-nan" gradientUnits="userSpaceOnUse">
<stop stop-color="#BB33FA"/>
<stop offset="1" stop-color="#34FFFF"/>
</linearGradient>
<linearGradient id="paint29_linear_4_409" x1="-nan" y1="-nan" x2="-nan" y2="-nan" gradientUnits="userSpaceOnUse">
<stop stop-color="#BB33FA"/>
<stop offset="1" stop-color="#34FFFF"/>
</linearGradient>
<linearGradient id="paint30_linear_4_409" x1="-nan" y1="-nan" x2="-nan" y2="-nan" gradientUnits="userSpaceOnUse">
<stop stop-color="#BB33FA"/>
<stop offset="1" stop-color="#34FFFF"/>
</linearGradient>
<linearGradient id="paint31_linear_4_409" x1="205.314" y1="326.76" x2="199.599" y2="378.969" gradientUnits="userSpaceOnUse">
<stop stop-color="#FA3364"/>
<stop offset="1" stop-color="#343BFF"/>
</linearGradient>
<linearGradient id="paint32_linear_4_409" x1="272.269" y1="244.938" x2="266.553" y2="297.148" gradientUnits="userSpaceOnUse">
<stop stop-color="#FA3364"/>
<stop offset="1" stop-color="#343BFF"/>
</linearGradient>
<linearGradient id="paint33_linear_4_409" x1="339.018" y1="137.32" x2="307.211" y2="257.065" gradientUnits="userSpaceOnUse">
<stop stop-color="#FA3364"/>
<stop offset="1" stop-color="#343BFF"/>
</linearGradient>
<linearGradient id="paint34_linear_4_409" x1="406.177" y1="99.3754" x2="400.56" y2="151.138" gradientUnits="userSpaceOnUse">
<stop stop-color="#FA3364"/>
<stop offset="1" stop-color="#343BFF"/>
</linearGradient>
<linearGradient id="paint35_linear_4_409" x1="473.356" y1="4.55741" x2="438.654" y2="129.231" gradientUnits="userSpaceOnUse">
<stop stop-color="#FA3364"/>
<stop offset="1" stop-color="#343BFF"/>
</linearGradient>
<linearGradient id="paint36_linear_4_409" x1="539.115" y1="149.187" x2="529.557" y2="216.429" gradientUnits="userSpaceOnUse">
<stop stop-color="#FA3364"/>
<stop offset="1" stop-color="#343BFF"/>
</linearGradient>
<linearGradient id="paint37_linear_4_409" x1="607.433" y1="155.308" x2="587.226" y2="251.973" gradientUnits="userSpaceOnUse">
<stop stop-color="#FA3364"/>
<stop offset="1" stop-color="#343BFF"/>
</linearGradient>
<linearGradient id="paint38_linear_4_409" x1="674.05" y1="52.1373" x2="639.341" y2="176.824" gradientUnits="userSpaceOnUse">
<stop stop-color="#FA3364"/>
<stop offset="1" stop-color="#343BFF"/>
</linearGradient>
<linearGradient id="paint39_linear_4_409" x1="808.612" y1="-71.845" x2="773.903" y2="52.8413" gradientUnits="userSpaceOnUse">
<stop stop-color="#FA3364"/>
<stop offset="1" stop-color="#343BFF"/>
</linearGradient>
</defs>
</svg>
