<svg width="66" height="58" viewBox="0 0 66 58" fill="none" xmlns="http://www.w3.org/2000/svg">
<rect y="40.1905" width="28.3921" height="15.0652" rx="2.70401" fill="#FF2171"/>
<path d="M12.4831 3.91114C13.5188 3.91114 14.3596 4.26449 15.0054 4.9712C15.6511 5.67791 15.974 6.59785 15.974 7.73102V14H13.9453V8.22449C13.9453 7.70055 13.8661 7.24972 13.7077 6.872C13.5615 6.49428 13.3422 6.20794 13.0497 6.01298C12.7695 5.81803 12.4283 5.72055 12.0262 5.72055C11.3561 5.72055 10.8017 5.99471 10.363 6.54302C9.92437 7.07914 9.70505 7.76757 9.70505 8.60831V14H7.71286V8.22449C7.71286 7.42031 7.54837 6.80498 7.21938 6.37852C6.8904 5.93988 6.4152 5.72055 5.79378 5.72055C5.13582 5.72055 4.58142 5.99471 4.13058 6.54302C3.69194 7.07914 3.47262 7.76757 3.47262 8.60831V14H1.44388V4.13046H2.88775L3.23502 5.40985C3.61274 4.93465 4.06966 4.56911 4.60578 4.31323C5.14191 4.04517 5.70849 3.91114 6.30554 3.91114C6.96351 3.91114 7.54837 4.06345 8.06012 4.36806C8.57188 4.67268 8.97397 5.09305 9.2664 5.62917C9.61975 5.09305 10.0828 4.67268 10.6554 4.36806C11.2281 4.06345 11.8374 3.91114 12.4831 3.91114ZM26.9824 4.13046H28.5543V14H26.9093L26.7083 12.7937C25.7579 13.7563 24.5699 14.2376 23.1443 14.2376C21.67 14.2376 20.4393 13.7441 19.4524 12.7572C18.4776 11.7702 17.9902 10.5396 17.9902 9.06523C17.9902 7.57871 18.4776 6.34806 19.4524 5.37329C20.4393 4.38634 21.67 3.89286 23.1443 3.89286C24.5943 3.89286 25.7944 4.38025 26.7448 5.35502L26.9824 4.13046ZM20.9693 11.3864C21.5908 11.9956 22.3645 12.3002 23.2905 12.3002C24.2287 12.3002 24.9964 11.9956 25.5934 11.3864C26.2026 10.765 26.5072 9.99126 26.5072 9.06523C26.5072 8.12702 26.2026 7.35329 25.5934 6.74406C24.9964 6.13483 24.2287 5.83022 23.2905 5.83022C22.6813 5.83022 22.1269 5.97034 21.6273 6.25058C21.1399 6.53083 20.7561 6.92074 20.4759 7.42031C20.1956 7.90769 20.0555 8.456 20.0555 9.06523C20.0555 9.99126 20.3601 10.765 20.9693 11.3864ZM45.2281 12.154H46.343V14H44.8443C43.7599 14 42.9008 13.6893 42.2672 13.0679C41.6458 12.4343 41.3351 11.5753 41.3351 10.4908V5.86677H39.5805V5.48295L43.0166 1.82757H43.3456V4.13046H46.2882V5.86677H43.3639V10.3263C43.3639 10.9112 43.5223 11.362 43.8391 11.6788C44.168 11.9956 44.6311 12.154 45.2281 12.154ZM35.0479 8.04172C35.3768 8.10265 35.6205 8.15138 35.7789 8.18794C35.9373 8.21231 36.1688 8.26714 36.4735 8.35243C36.7903 8.42554 37.0339 8.50474 37.2045 8.59003C37.3751 8.67532 37.5701 8.79717 37.7894 8.95557C38.0209 9.10178 38.1915 9.27237 38.3011 9.46732C38.423 9.65009 38.5266 9.8816 38.6119 10.1618C38.6971 10.4421 38.7398 10.7467 38.7398 11.0757C38.7398 12.0383 38.3743 12.8059 37.6432 13.3786C36.9121 13.9513 35.9434 14.2376 34.7371 14.2376C33.5309 14.2376 32.5622 13.933 31.8311 13.3238C31.1 12.7145 30.7223 11.8982 30.6979 10.8746H32.6901C32.7145 11.3742 32.9155 11.7641 33.2933 12.0444C33.6832 12.3124 34.1888 12.4465 34.8103 12.4465C35.1758 12.4465 35.4987 12.3977 35.7789 12.3002C36.0714 12.2028 36.3029 12.0566 36.4735 11.8616C36.644 11.6666 36.7293 11.4351 36.7293 11.1671C36.7293 11.0209 36.705 10.8868 36.6562 10.765C36.6075 10.6431 36.5222 10.5396 36.4003 10.4543C36.2907 10.3568 36.1749 10.2776 36.0531 10.2167C35.9312 10.1558 35.7728 10.1009 35.5779 10.0522C35.3829 9.99126 35.2063 9.94862 35.0479 9.92425C34.9016 9.88769 34.7067 9.85114 34.463 9.81458C34.2071 9.76585 33.9939 9.72929 33.8233 9.70492C33.6649 9.66837 33.4578 9.61963 33.2019 9.55871C32.9582 9.49778 32.7571 9.43077 32.5987 9.35766C32.4403 9.28455 32.2576 9.19926 32.0504 9.10178C31.8555 8.99212 31.6971 8.87028 31.5752 8.73625C31.4534 8.59003 31.3315 8.43163 31.2097 8.26105C31.1 8.07828 31.0147 7.87114 30.9538 7.63963C30.9051 7.40812 30.8807 7.15225 30.8807 6.872C30.8807 5.98252 31.228 5.26363 31.9225 4.71532C32.6292 4.16702 33.5552 3.89286 34.7006 3.89286C35.8459 3.89286 36.7659 4.1792 37.4604 4.75188C38.1549 5.32455 38.5083 6.09218 38.5205 7.05477H36.6014C36.5892 6.59175 36.4125 6.2384 36.0714 5.99471C35.7302 5.73883 35.2611 5.61089 34.664 5.61089C34.1035 5.61089 33.6588 5.72055 33.3298 5.93988C33.0008 6.1592 32.8363 6.44554 32.8363 6.79889C32.8363 6.94511 32.8607 7.07305 32.9095 7.18271C32.9582 7.29237 33.0374 7.38985 33.1471 7.47514C33.2689 7.56043 33.3786 7.63354 33.476 7.69446C33.5857 7.7432 33.7441 7.79194 33.9512 7.84068C34.1584 7.88942 34.329 7.92597 34.463 7.95034C34.597 7.97471 34.792 8.00517 35.0479 8.04172ZM57.9223 9.08351C57.9223 9.26628 57.9101 9.49169 57.8857 9.75975H49.8804C50.0023 10.5518 50.3313 11.1793 50.8674 11.6423C51.4157 12.1053 52.0919 12.3368 52.8961 12.3368C53.286 12.3368 53.6516 12.282 53.9927 12.1723C54.3339 12.0505 54.6324 11.886 54.8883 11.6788C55.1564 11.4595 55.3757 11.1975 55.5463 10.8929H57.6847C57.2948 11.9408 56.6734 12.7633 55.8204 13.3603C54.9675 13.9452 53.9927 14.2376 52.8961 14.2376C51.4462 14.2376 50.2338 13.7441 49.259 12.7572C48.2964 11.7702 47.8151 10.5396 47.8151 9.06523C47.8151 7.59089 48.2964 6.36025 49.259 5.37329C50.2338 4.38634 51.4462 3.89286 52.8961 3.89286C53.8831 3.89286 54.7604 4.13046 55.528 4.60566C56.2956 5.06868 56.8866 5.69618 57.3009 6.48818C57.7151 7.268 57.9223 8.13311 57.9223 9.08351ZM52.8961 5.72055C52.1407 5.72055 51.4949 5.93378 50.9588 6.36025C50.4348 6.78671 50.0876 7.37157 49.917 8.11483H55.8935C55.7717 7.61526 55.5706 7.1888 55.2904 6.83545C55.0102 6.46991 54.6629 6.19575 54.2486 6.01298C53.8465 5.81803 53.3957 5.72055 52.8961 5.72055ZM64.8101 4.07563H65.6874V5.99471H64.6273C62.9459 5.99471 62.1051 6.90855 62.1051 8.73625V14H60.0764V4.13046H61.4472L61.7944 5.48295C62.5011 4.54474 63.5064 4.07563 64.8101 4.07563ZM5.84862 30.154H6.96351V32H5.4648C4.74591 32 4.12449 31.8599 3.60055 31.5796C3.07662 31.2994 2.67452 30.8973 2.39428 30.3734C2.11403 29.8372 1.97391 29.2097 1.97391 28.4908V23.8668H0.201046V23.483L3.63711 19.8276H3.98437V22.1305H6.90868V23.8668H4.00265V28.3263C4.00265 28.9112 4.16105 29.362 4.47785 29.6788C4.79465 29.9956 5.25157 30.154 5.84862 30.154ZM13.674 22.0756H14.5513V23.9947H13.4912C11.8097 23.9947 10.969 24.9086 10.969 26.7362V32H8.94027V22.1305H10.311L10.6583 23.483C11.365 22.5447 12.3702 22.0756 13.674 22.0756ZM24.1267 22.1305H25.6985V32H24.0536L23.8525 30.7937C22.9021 31.7563 21.7141 32.2376 20.2885 32.2376C18.8142 32.2376 17.5835 31.7441 16.5966 30.7572C15.6218 29.7702 15.1344 28.5396 15.1344 27.0652C15.1344 25.5787 15.6218 24.3481 16.5966 23.3733C17.5835 22.3863 18.8142 21.8929 20.2885 21.8929C21.7385 21.8929 22.9387 22.3802 23.8891 23.355L24.1267 22.1305ZM18.1136 29.3864C18.735 29.9956 19.5087 30.3002 20.4347 30.3002C21.373 30.3002 22.1406 29.9956 22.7376 29.3864C23.3469 28.765 23.6515 27.9913 23.6515 27.0652C23.6515 26.127 23.3469 25.3533 22.7376 24.7441C22.1406 24.1348 21.373 23.8302 20.4347 23.8302C19.8255 23.8302 19.2711 23.9703 18.7715 24.2506C18.2842 24.5308 17.9003 24.9207 17.6201 25.4203C17.3398 25.9077 17.1997 26.456 17.1997 27.0652C17.1997 27.9913 17.5043 28.765 18.1136 29.3864ZM36.2496 18.5847H38.2783V32H36.743L36.4872 30.8851C35.5368 31.7868 34.3731 32.2376 32.9963 32.2376C31.5097 32.2376 30.2791 31.7502 29.3043 30.7754C28.3417 29.7885 27.8605 28.5518 27.8605 27.0652C27.8605 25.5787 28.3417 24.3481 29.3043 23.3733C30.2791 22.3863 31.5097 21.8929 32.9963 21.8929C34.2513 21.8929 35.3357 22.2767 36.2496 23.0443V18.5847ZM30.8579 29.3864C31.4671 29.9956 32.2347 30.3002 33.1608 30.3002C34.0868 30.3002 34.8544 29.9956 35.4637 29.3864C36.0851 28.765 36.3958 27.9913 36.3958 27.0652C36.3958 26.456 36.2557 25.9077 35.9754 25.4203C35.6952 24.9207 35.3053 24.5308 34.8057 24.2506C34.3183 23.9703 33.77 23.8302 33.1608 23.8302C32.5515 23.8302 31.9971 23.9703 31.4976 24.2506C31.0102 24.5308 30.6264 24.9207 30.3461 25.4203C30.0781 25.9077 29.944 26.456 29.944 27.0652C29.944 27.9913 30.2486 28.765 30.8579 29.3864ZM50.5508 27.0835C50.5508 27.2663 50.5386 27.4917 50.5143 27.7598H42.509C42.6308 28.5518 42.9598 29.1793 43.4959 29.6423C44.0442 30.1053 44.7205 30.3368 45.5247 30.3368C45.9146 30.3368 46.2801 30.282 46.6213 30.1723C46.9625 30.0505 47.261 29.886 47.5169 29.6788C47.7849 29.4595 48.0042 29.1975 48.1748 28.8929H50.3132C49.9233 29.9408 49.3019 30.7633 48.449 31.3603C47.5961 31.9452 46.6213 32.2376 45.5247 32.2376C44.0747 32.2376 42.8623 31.7441 41.8876 30.7572C40.925 29.7702 40.4437 28.5396 40.4437 27.0652C40.4437 25.5909 40.925 24.3602 41.8876 23.3733C42.8623 22.3863 44.0747 21.8929 45.5247 21.8929C46.5116 21.8929 47.3889 22.1305 48.1565 22.6057C48.9242 23.0687 49.5151 23.6962 49.9294 24.4882C50.3437 25.268 50.5508 26.1331 50.5508 27.0835ZM45.5247 23.7206C44.7692 23.7206 44.1234 23.9338 43.5873 24.3602C43.0634 24.7867 42.7161 25.3716 42.5455 26.1148H48.5221C48.4002 25.6153 48.1992 25.1888 47.9189 24.8354C47.6387 24.4699 47.2914 24.1958 46.8772 24.013C46.4751 23.818 46.0242 23.7206 45.5247 23.7206Z" fill="white"/>
<path d="M37.423 51.8858H41.9557V53.75H33.6397V53.22C35.4552 51.2339 36.765 49.7534 37.5692 48.7787C38.3856 47.7917 38.9278 47.0424 39.1959 46.5306C39.4639 46.0189 39.598 45.5132 39.598 45.0136C39.598 44.6603 39.5188 44.3496 39.3604 44.0815C39.2142 43.8134 39.0009 43.6063 38.7207 43.4601C38.4526 43.3017 38.1358 43.2225 37.7703 43.2225C37.1976 43.2225 36.7346 43.3931 36.3812 43.7342C36.0401 44.0632 35.8695 44.4958 35.8695 45.0319V45.3061H33.8956V45.0319C33.8956 43.9353 34.2489 43.0519 34.9556 42.3818C35.6623 41.6994 36.5945 41.3582 37.752 41.3582C38.8852 41.3582 39.8051 41.6994 40.5118 42.3818C41.2307 43.0641 41.5902 43.9414 41.5902 45.0136C41.5902 45.5741 41.4866 46.1163 41.2794 46.6403C41.0845 47.1642 40.6824 47.8405 40.0732 48.669C39.4761 49.4854 38.5927 50.5576 37.423 51.8858ZM43.969 53.75V51.4106H46.1988V53.75H43.969ZM52.7144 53.9693C51.24 53.9693 50.0703 53.4027 49.2052 52.2696C48.3401 51.1364 47.9075 49.6011 47.9075 47.6638C47.9075 45.7264 48.334 44.1973 49.1869 43.0763C50.052 41.9431 51.2279 41.3765 52.7144 41.3765C54.1887 41.3765 55.3523 41.9431 56.2053 43.0763C57.0704 44.1973 57.5029 45.7264 57.5029 47.6638C57.5029 49.6011 57.0704 51.1364 56.2053 52.2696C55.3402 53.4027 54.1765 53.9693 52.7144 53.9693ZM52.7144 52.1051C53.5917 52.1051 54.274 51.7152 54.7614 50.9354C55.261 50.1555 55.5107 49.065 55.5107 47.6638C55.5107 46.7378 55.395 45.9458 55.1635 45.2878C54.9442 44.6176 54.6213 44.112 54.1948 43.7708C53.7805 43.4174 53.2871 43.2408 52.7144 43.2408C52.1295 43.2408 51.6239 43.4174 51.1974 43.7708C50.7709 44.112 50.448 44.6176 50.2287 45.2878C50.0094 45.9458 49.8997 46.7378 49.8997 47.6638C49.8997 49.065 50.1434 50.1555 50.6308 50.9354C51.1304 51.7152 51.8249 52.1051 52.7144 52.1051Z" fill="#FF2171"/>
<path d="M7.25596 44.1483C7.99763 44.1483 8.66513 44.3198 9.25847 44.6628C9.85181 44.9965 10.3154 45.4647 10.6491 46.0673C10.9829 46.6699 11.1497 47.3421 11.1497 48.0838C11.1497 49.2148 10.7789 50.1558 10.0372 50.9067C9.30483 51.6484 8.37774 52.0193 7.25596 52.0193C6.29178 52.0193 5.46204 51.7179 4.76672 51.1153V54.5363H3.22311V44.329H4.26609L4.55812 45.2469C5.28125 44.5145 6.18053 44.1483 7.25596 44.1483ZM5.3786 49.8499C5.84214 50.3134 6.42621 50.5452 7.1308 50.5452C7.84466 50.5452 8.43336 50.3134 8.89691 49.8499C9.36045 49.377 9.59222 48.7883 9.59222 48.0838C9.59222 47.3792 9.36045 46.7951 8.89691 46.3316C8.43336 45.8587 7.84929 45.6223 7.14471 45.6223C6.68116 45.6223 6.25933 45.7289 5.87923 45.9422C5.49912 46.1554 5.20245 46.4521 4.98922 46.8322C4.78526 47.203 4.68328 47.6202 4.68328 48.0838C4.68328 48.7883 4.91505 49.377 5.3786 49.8499ZM16.4126 44.2873H17.0801V45.7475H16.2736C14.9942 45.7475 14.3545 46.4428 14.3545 47.8334V51.8385H12.8109V44.329H13.8539L14.1181 45.3581C14.6558 44.6442 15.4207 44.2873 16.4126 44.2873ZM24.4075 50.9067C23.6473 51.6484 22.6924 52.0193 21.5428 52.0193C20.3932 52.0193 19.4336 51.6484 18.6642 50.9067C17.9039 50.1558 17.5238 49.2148 17.5238 48.0838C17.5238 47.3421 17.6954 46.6699 18.0384 46.0673C18.3907 45.4647 18.8728 44.9965 19.4846 44.6628C20.1058 44.3198 20.7918 44.1483 21.5428 44.1483C22.2937 44.1483 22.9751 44.3198 23.587 44.6628C24.2082 44.9965 24.6903 45.4647 25.0333 46.0673C25.3856 46.6699 25.5617 47.3421 25.5617 48.0838C25.5617 49.2148 25.177 50.1558 24.4075 50.9067ZM21.5428 50.5452C22.0156 50.5452 22.4374 50.4432 22.8083 50.2392C23.1791 50.026 23.4665 49.734 23.6705 49.3631C23.8837 48.983 23.9903 48.5566 23.9903 48.0838C23.9903 47.3699 23.7585 46.7812 23.295 46.3176C22.8407 45.8541 22.2566 45.6223 21.5428 45.6223C20.8289 45.6223 20.2402 45.8541 19.7767 46.3176C19.3224 46.7812 19.0953 47.3699 19.0953 48.0838C19.0953 48.7976 19.3224 49.3863 19.7767 49.8499C20.2402 50.3134 20.8289 50.5452 21.5428 50.5452Z" fill="white"/>
</svg>
