<svg width="144" height="144" viewBox="0 0 144 144" fill="none" xmlns="http://www.w3.org/2000/svg">
<g clip-path="url(#clip0_8_239)">
<path d="M114.92 67.2929C104.355 47.5632 123.397 50.2072 131.734 37.0751C142.254 20.5027 135.76 0.534271 122.523 7.7669C80.0325 30.983 76.4642 -0.634603 44.3522 0.00974029C18.5717 0.526959 -0.90313 22.9069 22.914 43.3183C33.802 52.6496 38.6853 69.1157 24.8225 77.1617C-2.42497 92.9761 -0.879224 137.598 32.9447 128.788C54.637 123.138 59.6348 122.854 73.3407 140.937C77.6731 146.653 88.812 143.809 91.1117 137.016C94.1788 127.955 89.3461 117.088 93.1933 108.421C95.6987 102.777 103.424 106.383 108.092 107.772C117.076 110.446 129.6 106.621 132.45 97.0854C136.273 84.295 120.186 77.1262 114.92 67.2929Z" fill="url(#paint0_linear_8_239)"/>
<path opacity="0.1" d="M135.932 26.8693C134.834 25.771 133.052 25.771 131.954 26.8693L118.414 40.41C107.979 25.6976 90.8131 16.0957 71.4038 16.0957C39.5958 16.0957 13.8105 41.881 13.8105 73.689C13.8105 83.7085 16.371 93.1292 20.8705 101.336L11.3755 110.831C10.2772 111.929 10.2772 113.71 11.3755 114.809C11.9245 115.358 12.6445 115.633 13.3642 115.633C14.0839 115.633 14.8039 115.358 15.3529 114.809L23.9021 106.26C25.391 108.427 27.022 110.49 28.786 112.429C28.7857 112.441 28.7843 112.452 28.7843 112.464V137.051H24.2098C24.1985 136.284 23.5752 135.665 22.8055 135.665C22.0289 135.665 21.3992 136.295 21.3992 137.072V139.843C21.3992 140.62 22.0289 141.25 22.8055 141.25C23.575 141.25 24.1985 140.631 24.2098 139.864H118.597C118.608 140.631 119.232 141.25 120.002 141.25C120.778 141.25 121.408 140.62 121.408 139.843V137.072C121.408 136.295 120.778 135.665 120.002 135.665C119.232 135.665 118.608 136.284 118.597 137.051H114.022V112.427C123.326 102.198 128.996 88.6062 128.996 73.6898C128.996 63.3553 126.272 53.6581 121.506 45.2729L135.931 30.8478C137.03 29.7484 137.03 27.9675 135.932 26.8693ZM52.5792 137.05V128.132C54.8283 128.91 57.1405 129.552 59.5061 130.049V137.051H52.5792V137.05ZM83.3009 137.05V130.049C85.6668 129.552 87.9787 128.909 90.2278 128.132V137.05H83.3009V137.05Z" fill="#0000CC"/>
<path d="M71.4035 124.531C103.211 124.531 128.997 98.7458 128.997 66.938C128.997 35.1301 103.211 9.34473 71.4035 9.34473C39.5957 9.34473 13.8103 35.1301 13.8103 66.938C13.8103 98.7458 39.5957 124.531 71.4035 124.531Z" fill="#FFD6BB"/>
<path d="M123.792 42.9843L112.77 54.0065C112.244 54.5352 111.527 54.8306 110.781 54.8306H102.032C101.194 57.0806 99.0335 58.6837 96.4938 58.6837C95.5488 58.6837 94.6601 58.4559 93.8698 58.0649L69.3757 82.5562C68.8498 83.0849 68.1326 83.3802 67.3873 83.3802H51.3954C50.5713 85.6584 48.3973 87.2924 45.8351 87.2924C44.966 87.2924 44.1419 87.0984 43.3994 86.7637L26.7944 103.369C25.5935 101.903 24.4657 100.376 23.4138 98.7928L39.9851 82.2187C39.9457 81.9431 39.9204 81.6646 39.9204 81.3749C39.9204 78.1096 42.5669 75.4602 45.8351 75.4602C47.7363 75.4602 49.4238 76.3631 50.5066 77.7552H66.2229L90.6073 53.3709C90.5876 53.1712 90.5791 52.9715 90.5791 52.769C90.5791 49.5009 93.2257 46.8515 96.4938 46.8515C98.4204 46.8515 100.128 47.7796 101.208 49.2055H109.617L121.067 37.7559C122.062 39.4434 122.974 41.1899 123.792 42.9843Z" fill="#FFC599"/>
<path d="M93.4169 46.1734C93.881 46.9609 93.9344 47.9256 93.5604 48.7581L89.8563 56.9931C89.4766 57.8341 88.7116 58.4387 87.8032 58.6047L72.3035 61.4734C71.3219 61.6562 70.5063 62.3481 70.1688 63.2903L67.4435 70.8841C67.0751 71.9078 66.1497 72.6306 65.0669 72.7347L52.6751 73.9356C51.2294 74.0762 49.916 73.0919 49.6432 71.6659L47.8516 62.3509C47.6266 61.1753 48.1694 59.9856 49.2072 59.3866L55.3526 55.8316C56.2216 55.3309 56.7588 54.4028 56.7588 53.3988V52.1584C56.7588 50.7297 55.6872 49.5287 54.2697 49.3656L50.3266 48.9072C49.3957 48.8003 48.5829 48.2378 48.1526 47.4053L45.9897 43.2259C45.7619 42.7872 45.4188 42.4131 45.0026 42.1459L39.881 38.8891C39.206 38.4587 38.3819 38.3378 37.6113 38.5544L29.3904 40.8578C28.6676 41.0603 27.8913 40.9647 27.2388 40.5934L21.8726 37.5334C31.9132 20.6528 50.3379 9.34375 71.4035 9.34375C80.2741 9.34375 88.6779 11.3491 96.1844 14.935L85.0385 20.4053C84.3804 20.7288 83.8769 21.2941 83.6294 21.9831L80.2376 31.4781C79.8972 32.4344 80.0969 33.4975 80.7607 34.2653L84.1441 38.1691C84.6785 38.785 85.4548 39.1394 86.2704 39.1394H87.6485C88.6413 39.1394 89.5638 39.6653 90.0701 40.5203L93.4169 46.1734Z" fill="#FF9D33"/>
<path d="M128.947 69.377C127.668 100.053 102.392 124.53 71.4036 124.53C63.3036 124.53 55.5945 122.857 48.5999 119.836L58.2355 101.994C58.4577 101.583 58.573 101.124 58.573 100.658V87.0141C58.573 86.266 58.8711 85.546 59.4027 85.0201L62.0436 82.3932C62.9042 81.5354 64.2177 81.3273 65.3005 81.8785L69.8905 84.2101C70.2786 84.4069 70.6133 84.6938 70.8749 85.0426L76.5139 92.6448C77.1833 93.5448 78.3195 93.9638 79.4136 93.7079L87.8764 91.7335C89.1505 91.4354 90.0505 90.302 90.0505 88.9941V83.012C90.0505 81.9545 90.6411 80.987 91.5833 80.506L97.332 77.5726C98.1617 77.1479 99.1489 77.162 99.9674 77.612L107.516 81.7688C108.886 82.5226 110.607 82.0163 111.35 80.641L115.47 72.9938C115.872 72.2485 116.589 71.7254 117.422 71.5651L128.947 69.377Z" fill="#FF9D33"/>
<path d="M83.3009 42.9981V131.706H59.5063V42.9981C59.5063 42.0643 60.264 41.3066 61.1978 41.3066H81.6095C82.5449 41.3066 83.3009 42.0643 83.3009 42.9981Z" fill="#8383FF"/>
<path d="M83.3004 60.6777V68.6343L69.3757 82.5562C68.8497 83.0849 68.1325 83.3802 67.3872 83.3802H59.5066V77.7552H66.2229L83.3004 60.6777Z" fill="#6C6CFF"/>
<path d="M64.5803 46.3809H78.2265V126.807H64.5803V46.3809Z" fill="#9494FF"/>
<path d="M78.2265 65.752V73.7085L69.3756 82.5566C68.8497 83.0854 68.1325 83.3807 67.3872 83.3807H64.5803V77.7557H66.2228L78.2265 65.752Z" fill="#8383FF"/>
<path d="M114.023 131.706V72.5254C114.023 71.5911 113.265 70.834 112.331 70.834H91.9195C90.9852 70.834 90.228 71.5914 90.228 72.5254V131.706H114.023Z" fill="#FF4D4D"/>
<path d="M95.3022 75.9082H108.948V126.808H95.3022V75.9082Z" fill="#FF6C6C"/>
<path d="M52.5793 131.706V105.713C52.5793 104.779 51.8219 104.021 50.8878 104.021H30.4761C29.5418 104.021 28.7847 104.779 28.7847 105.713V131.706H52.5793Z" fill="#FFAB66"/>
<path d="M33.8589 109.096H47.5046V126.808H33.8589V109.096Z" fill="#FFC599"/>
<path d="M13.3642 108.882C12.6444 108.882 11.9244 108.607 11.3754 108.058C10.2769 106.96 10.2769 105.179 11.3754 104.08L43.6261 71.8295C44.1534 71.3022 44.8689 71.0058 45.6148 71.0058H66.2223L93.9482 43.2798C94.4755 42.7525 95.191 42.4561 95.9369 42.4561H109.616L131.954 20.1186C133.052 19.0204 134.833 19.0204 135.931 20.1186C137.03 21.2169 137.03 22.9978 135.931 24.0964L112.77 47.2576C112.243 47.7849 111.527 48.0814 110.781 48.0814H97.1018L69.3757 75.8073C68.8483 76.3346 68.1331 76.631 67.3869 76.631H46.7795L15.3526 108.058C14.8039 108.607 14.0842 108.882 13.3642 108.882Z" fill="#FF6C6C"/>
<path d="M45.8349 80.5414C49.1018 80.5414 51.7502 77.8931 51.7502 74.6262C51.7502 71.3593 49.1018 68.7109 45.8349 68.7109C42.568 68.7109 39.9197 71.3593 39.9197 74.6262C39.9197 77.8931 42.568 80.5414 45.8349 80.5414Z" fill="#FF2C2C"/>
<path d="M96.4936 51.9321C99.7605 51.9321 102.409 49.2837 102.409 46.0168C102.409 42.7499 99.7605 40.1016 96.4936 40.1016C93.2267 40.1016 90.5784 42.7499 90.5784 46.0168C90.5784 49.2837 93.2267 51.9321 96.4936 51.9321Z" fill="#FF2C2C"/>
<path d="M138.162 22.1108C138.163 20.983 137.723 19.9224 136.926 19.1242C135.283 17.4817 132.608 17.4806 130.96 19.1242L118.58 31.504C107.453 16.717 89.9433 7.9375 71.4036 7.9375C38.8705 7.9375 12.4029 34.4051 12.4029 66.9381C12.4029 76.484 14.7339 85.9276 19.1411 94.3268L10.3822 103.086C9.58398 103.884 9.14495 104.944 9.14551 106.072C9.14607 107.199 9.58566 108.257 10.3796 109.049C11.1739 109.847 12.2342 110.287 13.3648 110.287C14.4954 110.287 15.5555 109.848 16.3475 109.051L23.7174 101.682C24.8581 103.244 26.0841 104.761 27.3787 106.21V130.3H24.2098C24.1986 129.533 23.5753 128.914 22.8055 128.914C22.0287 128.914 21.3993 129.544 21.3993 130.32V133.092C21.3993 133.869 22.0287 134.498 22.8055 134.498C23.5753 134.498 24.1986 133.879 24.2098 133.112H118.598C118.609 133.879 119.232 134.498 120.002 134.498C120.779 134.498 121.408 133.869 121.408 133.092V130.32C121.408 129.544 120.779 128.914 120.002 128.914C119.232 128.914 118.609 129.533 118.598 130.3H115.428V106.211C125.088 95.3908 130.404 81.4678 130.404 66.9381C130.404 57.0837 127.928 47.3702 123.248 38.7673L136.924 25.0909C137.721 24.2956 138.161 23.2372 138.162 22.1108ZM15.2154 66.9381C15.2154 35.9559 40.4214 10.75 71.4036 10.75C89.1924 10.75 105.984 19.2404 116.568 33.5158L109.035 41.0491H101.865C100.526 39.6034 98.6145 38.6961 96.4936 38.6961C92.4566 38.6961 89.1721 41.9806 89.1721 46.0176C89.1721 46.0339 89.1732 46.0497 89.1732 46.066L84.7067 50.5325V42.9981C84.7067 41.2907 83.3179 39.9016 81.6101 39.9016H61.1998C59.491 39.9016 58.1004 41.2907 58.1004 42.9981V63.5941C58.1004 64.3706 58.7299 65.0003 59.5067 65.0003C60.2835 65.0003 60.9129 64.3706 60.9129 63.5941V42.9981C60.9129 42.8415 61.0415 42.7141 61.1998 42.7141H81.6101C81.7668 42.7141 81.8942 42.8415 81.8942 42.9981V53.345L65.6405 69.5988H51.1502C49.8145 68.1874 47.9265 67.3043 45.8346 67.3043C41.7975 67.3043 38.5131 70.5888 38.5131 74.6258C38.5131 74.7335 38.5165 74.8401 38.5212 74.9467L21.2255 92.2425C17.2897 84.4426 15.2154 75.7356 15.2154 66.9381ZM88.8222 130.3H84.7067V124.424C86.0896 124.106 87.4658 123.741 88.8222 123.323V130.3ZM81.8942 130.3H60.9129V78.0362H67.3873C68.5019 78.0362 69.5901 77.5848 70.37 76.8002L81.8942 65.2759V130.3ZM53.9849 123.32C55.3462 123.741 56.722 124.106 58.1007 124.424V130.3H53.9849V123.32ZM68.3787 74.8142C68.1197 75.0744 67.7586 75.2237 67.3873 75.2237H53.1299C53.146 75.0263 53.1564 74.8272 53.1564 74.6258C53.1564 73.8541 53.0354 73.1102 52.8132 72.4112H66.2229C66.5959 72.4112 66.9536 72.263 67.2172 71.9995L89.9399 49.2767C90.3677 50.1337 90.9589 50.8951 91.6721 51.5208L68.3787 74.8142ZM41.3256 74.6258C41.3256 72.1396 43.3483 70.1168 45.8346 70.1168C48.3211 70.1168 50.3439 72.1396 50.3439 74.6258C50.3439 77.1121 48.3211 79.1348 45.8346 79.1348C43.3483 79.1348 41.3256 77.1121 41.3256 74.6258ZM91.9846 46.0176C91.9846 43.5314 94.0074 41.5086 96.4936 41.5086C98.9799 41.5086 101.003 43.5314 101.003 46.0176C101.003 48.5039 98.9799 50.5266 96.4936 50.5266C94.0074 50.5266 91.9846 48.5042 91.9846 46.0176ZM14.3565 107.065C14.0935 107.329 13.7411 107.475 13.3648 107.475C12.9885 107.475 12.6361 107.329 12.3698 107.061C12.1045 106.797 11.9583 106.445 11.958 106.07C11.9577 105.695 12.1045 105.341 12.3709 105.075L39.3759 78.0694C39.826 78.9101 40.4351 79.6534 41.1633 80.2587L14.3565 107.065ZM43.7544 81.6447C44.4143 81.8407 45.112 81.9476 45.8346 81.9476C48.6409 81.9476 51.0819 80.3599 52.3106 78.0365H58.1004V121.541C56.7187 121.206 55.3434 120.808 53.9846 120.365V105.713C53.9846 104.005 52.5953 102.616 50.887 102.616H30.4764C29.7516 102.616 29.0859 102.868 28.5574 103.286C27.5634 102.116 26.6244 100.902 25.7353 99.6638L43.7544 81.6447ZM30.1912 130.3V105.759C30.192 105.743 30.1914 105.726 30.1917 105.71C30.1934 105.554 30.3203 105.427 30.4764 105.427H50.887C51.0442 105.427 51.1721 105.555 51.1721 105.713V130.3H30.1912V130.3ZM127.592 66.9381C127.592 79.6852 123.296 91.9427 115.428 101.851V72.5254C115.428 70.8174 114.039 69.4277 112.33 69.4277H107.949C107.172 69.4277 106.543 70.0575 106.543 70.834C106.543 71.6105 107.172 72.2402 107.949 72.2402H112.33C112.488 72.2402 112.616 72.3682 112.616 72.5254V130.3H91.6345V72.5254C91.6345 72.3682 91.7624 72.2402 91.9199 72.2402H100.433C101.21 72.2402 101.84 71.6105 101.84 70.834C101.84 70.0575 101.21 69.4277 100.433 69.4277H91.9199C90.2119 69.4277 88.822 70.8174 88.822 72.5254V120.367C87.468 120.808 86.0933 121.205 84.7064 121.541V62.4637L94.2006 52.9696C94.9223 53.2083 95.6926 53.3394 96.4936 53.3394C99.2766 53.3394 101.701 51.7788 102.94 49.4868H110.781C111.896 49.4868 112.984 49.0354 113.764 48.2507L121.174 40.8404C125.378 48.8487 127.592 57.8312 127.592 66.9381ZM134.937 23.1008L111.773 46.2643C111.514 46.5247 111.153 46.6741 110.782 46.6741H103.785C103.804 46.4575 103.816 46.239 103.816 46.0176C103.816 45.2675 103.702 44.5436 103.491 43.8616H109.618C109.991 43.8616 110.348 43.7133 110.612 43.4498L132.948 21.1141C133.497 20.5662 134.389 20.5653 134.937 21.1129C135.203 21.3796 135.35 21.7331 135.35 22.1091C135.349 22.4832 135.203 22.835 134.937 23.1008Z" fill="#0000CC"/>
<path d="M126.323 121.718C125.964 121.718 125.603 121.581 125.329 121.307L123.792 119.77L122.255 121.307C121.706 121.856 120.815 121.856 120.267 121.307C119.717 120.757 119.717 119.867 120.267 119.318L122.798 116.787C123.347 116.238 124.238 116.238 124.786 116.787L127.318 119.318C127.867 119.867 127.867 120.758 127.318 121.307C127.043 121.581 126.683 121.718 126.323 121.718Z" fill="#FF6C6C"/>
<path d="M106.627 12.5798C106.267 12.5798 105.907 12.4425 105.633 12.168L104.096 10.6313L102.559 12.168C102.01 12.717 101.119 12.717 100.57 12.168C100.021 11.6188 100.021 10.7283 100.57 10.1793L103.101 7.64808C103.65 7.09908 104.541 7.09908 105.09 7.64808L107.621 10.1793C108.17 10.7286 108.17 11.619 107.621 12.168C107.347 12.4423 106.987 12.5798 106.627 12.5798Z" fill="#6C6CFF"/>
<path d="M18.6943 30.195C18.3346 30.195 17.9743 30.0578 17.7001 29.7833L16.163 28.2465L14.626 29.7833C14.0773 30.3323 13.1863 30.3323 12.6375 29.7833C12.0883 29.234 12.0883 28.3436 12.6375 27.7946L15.1688 25.2633C15.7175 24.7143 16.6085 24.7143 17.1572 25.2633L19.6885 27.7946C20.2378 28.3438 20.2378 29.2343 19.6885 29.7833C19.4143 30.0575 19.054 30.195 18.6943 30.195Z" fill="#FF9D33"/>
<path d="M11.7787 42.9138C11.419 42.9138 11.0587 42.7765 10.7845 42.502C10.2352 41.9527 10.2352 41.0623 10.7845 40.5133L13.597 37.7008C14.1457 37.1518 15.0367 37.1518 15.5855 37.7008C16.1347 38.2501 16.1347 39.1405 15.5855 39.6895L12.773 42.502C12.4987 42.7765 12.1385 42.9138 11.7787 42.9138Z" fill="#6C6CFF"/>
<path d="M131.809 48.5505C131.45 48.5505 131.089 48.4132 130.815 48.1387C130.266 47.5895 130.266 46.699 130.815 46.15L133.628 43.3375C134.176 42.7885 135.067 42.7885 135.616 43.3375C136.165 43.8868 136.165 44.7772 135.616 45.3262L132.804 48.1387C132.529 48.4132 132.169 48.5505 131.809 48.5505Z" fill="#FF9D33"/>
</g>
<defs>
<linearGradient id="paint0_linear_8_239" x1="8.36518" y1="121.766" x2="127.398" y2="2.73365" gradientUnits="userSpaceOnUse">
<stop stop-color="#FFF3EE" stop-opacity="0"/>
<stop offset="0.2938" stop-color="#FFEADE" stop-opacity="0.373"/>
<stop offset="0.7874" stop-color="#FFD6BB"/>
</linearGradient>
<clipPath id="clip0_8_239">
<rect width="144" height="144" fill="white"/>
</clipPath>
</defs>
</svg>
