<svg width="144" height="144" viewBox="0 0 144 144" fill="none" xmlns="http://www.w3.org/2000/svg">
<g clip-path="url(#clip0_8_365)">
<path d="M11.8588 119.255C-5.35424 112.125 -2.01889 75.6612 10.3443 81.6484C14.9287 83.8683 16.2646 90.8011 21.79 92.1508C25.5906 93.4311 38.239 89.4067 23.5619 65.5719C-8.39258 13.6787 98.485 -28.0613 82.1868 45.9778C80.3907 52.9398 87.2262 55.4649 93.4059 56.1674C198.102 68.0691 120.102 174.696 41.3085 124.928C28.148 116.615 20.307 122.755 11.8588 119.255Z" fill="url(#paint0_linear_8_365)"/>
<g opacity="0.1">
<path opacity="0.1" d="M112.245 73.5076C111.229 72.4915 109.581 72.4915 108.565 73.5076L72.9187 109.154C64.4247 117.648 50.572 117.597 42.1418 109.001C33.7935 100.489 34.0573 86.7621 42.4878 78.3316L77.9382 42.8812C78.9544 41.865 78.9544 40.2172 77.9382 39.201L66.8977 28.1606C65.8816 27.1444 64.234 27.1444 63.2176 28.1606L27.8628 63.5156C11.2614 80.117 10.9318 107.141 27.4867 123.788C44.04 140.434 71.0501 140.463 87.6391 123.874L123.285 88.228C124.301 87.2118 124.301 85.564 123.285 84.5478L112.245 73.5076Z" fill="#0000CC"/>
<path opacity="0.1" d="M108.484 62.8813C120.303 62.8813 129.884 53.2999 129.884 41.4807C129.884 29.6614 120.303 20.0801 108.484 20.0801C96.6644 20.0801 87.083 29.6614 87.083 41.4807C87.083 53.2999 96.6644 62.8813 108.484 62.8813Z" fill="#0000CC"/>
</g>
<path d="M27.4867 117.038C10.9318 100.391 11.2614 73.367 27.8628 56.7656L63.2179 21.4106C64.234 20.3944 65.8819 20.3944 66.898 21.4106L77.9385 32.451C78.9547 33.4672 78.9547 35.115 77.9385 36.1312L42.4878 71.5816C34.0573 80.0121 33.7935 93.7393 42.1418 102.251C50.5717 110.847 64.4247 110.898 72.9187 102.404L108.565 66.7576C109.581 65.7415 111.229 65.7415 112.245 66.7576L123.285 77.7981C124.301 78.8142 124.301 80.4621 123.285 81.4782L87.6391 117.124C71.0501 133.713 44.04 133.684 27.4867 117.038Z" fill="#D9D9FF"/>
<path d="M88.6123 86.6914L94.9244 80.3793L109.643 95.0975L103.331 101.41L88.6123 86.6914Z" fill="#B3B3FF"/>
<path d="M58.0045 56.0645L64.3175 49.7516L49.5971 35.0312L43.2842 41.3442C48.1911 46.2509 53.0978 51.1578 58.0045 56.0645Z" fill="#FFB3B3"/>
<path d="M113.888 90.8746L123.286 81.4769C124.302 80.4607 124.302 78.8129 123.286 77.7967L112.245 66.7563C111.229 65.7401 109.582 65.7401 108.565 66.7563L99.1675 76.1539L113.888 90.8746Z" fill="#8383FF"/>
<path d="M68.5409 45.5289L77.9386 36.1312C78.9548 35.115 78.9548 33.4672 77.9386 32.451L66.8982 21.4106C65.882 20.3944 64.2342 20.3944 63.218 21.4106L53.8203 30.8082L68.5409 45.5289Z" fill="#FF4D4D"/>
<path d="M57.6073 130.951C57.5857 130.951 57.5654 130.951 57.5438 130.951C45.7873 130.934 34.7586 126.346 26.4898 118.03C9.47703 100.922 9.64663 72.9928 26.8684 55.7716L62.2235 20.4165C63.7861 18.8531 66.3298 18.8536 67.8921 20.4165L78.9326 31.4567C79.6897 32.2136 80.1068 33.2204 80.1068 34.2909C80.1068 35.3619 79.69 36.3685 78.9326 37.1253L53.9877 62.0705C53.4389 62.6198 52.5479 62.6198 51.9992 62.0705C51.4499 61.5215 51.4499 60.6311 51.9992 60.0821L76.9441 35.1369C77.17 34.9107 77.2943 34.6107 77.2943 34.2909C77.2943 33.9714 77.17 33.6713 76.9441 33.4452L65.9037 22.405C65.4371 21.9384 64.6783 21.9389 64.2119 22.405L28.8571 57.7598C12.7291 73.8878 12.5621 100.035 28.4842 116.047C36.2228 123.828 46.5444 128.123 57.548 128.138C57.5674 128.138 57.5879 128.138 57.6073 128.138C68.5899 128.138 78.8997 123.875 86.6453 116.13L122.291 80.4836C122.517 80.2575 122.641 79.9574 122.641 79.6379C122.641 79.3181 122.517 79.0181 122.291 78.7919L111.251 67.7515C110.785 67.2854 110.026 67.2849 109.559 67.7515L73.9131 103.398C69.561 107.75 63.7746 110.142 57.6085 110.142C57.5697 110.142 57.5317 110.142 57.4929 110.142C51.2846 110.112 45.4762 107.659 41.1382 103.236C32.3213 94.246 32.481 79.6 41.4937 70.587L46.6847 65.396C47.2334 64.8467 48.1244 64.8467 48.6732 65.396C49.2224 65.945 49.2224 66.8354 48.6732 67.3844L43.4821 72.5755C35.5554 80.5025 35.4046 93.3731 43.146 101.267C46.9547 105.15 52.0549 107.303 57.5069 107.33C57.5404 107.33 57.5747 107.33 57.6082 107.33C63.0237 107.33 68.1039 105.229 71.9247 101.409L107.571 65.763C108.327 65.0059 109.334 64.5888 110.405 64.5888C111.476 64.5888 112.482 65.0056 113.239 65.763L124.28 76.8035C125.037 77.5603 125.454 78.5672 125.454 79.6379C125.454 80.7086 125.037 81.7152 124.28 82.4721L88.6337 118.118C80.3574 126.394 69.3403 130.95 57.6073 130.951Z" fill="#0000CC"/>
<path d="M108.484 56.1313C120.303 56.1313 129.885 46.5499 129.885 34.7307C129.885 22.9115 120.303 13.3301 108.484 13.3301C96.6649 13.3301 87.0835 22.9115 87.0835 34.7307C87.0835 46.5499 96.6649 56.1313 108.484 56.1313Z" fill="#FFC599"/>
<path d="M108.484 57.5372C103.788 57.5372 99.2739 56.1158 95.4295 53.4268C94.793 52.9818 94.6384 52.1049 95.0836 51.4684C95.5288 50.8322 96.4057 50.6775 97.0419 51.1225C100.411 53.4791 104.368 54.725 108.485 54.725C119.509 54.725 128.479 45.7554 128.479 34.7307C128.479 23.706 119.509 14.7363 108.485 14.7363C97.4599 14.7363 88.4902 23.706 88.4902 34.7307C88.4902 38.838 89.7308 42.7876 92.0779 46.1525C92.5222 46.7895 92.3659 47.6659 91.7291 48.1103C91.0921 48.5555 90.2154 48.3983 89.7713 47.7615C87.0935 43.9228 85.6777 39.4166 85.6777 34.7307C85.6777 22.1549 95.9088 11.9238 108.485 11.9238C121.06 11.9238 131.291 22.1549 131.291 34.7307C131.291 47.3065 121.06 57.5372 108.484 57.5372Z" fill="#0000CC"/>
<path d="M108.484 51.5794C117.789 51.5794 125.332 44.0361 125.332 34.7311C125.332 25.426 117.789 17.8828 108.484 17.8828C99.179 17.8828 91.6357 25.426 91.6357 34.7311C91.6357 44.0361 99.179 51.5794 108.484 51.5794Z" fill="#FF9D33"/>
<path d="M108.484 23.3685C109.454 23.3685 110.24 22.5826 110.24 21.613C110.24 20.6434 109.454 19.8574 108.484 19.8574C107.514 19.8574 106.729 20.6434 106.729 21.613C106.729 22.5826 107.514 23.3685 108.484 23.3685Z" fill="#FFC599"/>
<path d="M108.484 49.601C109.454 49.601 110.24 48.815 110.24 47.8454C110.24 46.8758 109.454 46.0898 108.484 46.0898C107.514 46.0898 106.729 46.8758 106.729 47.8454C106.729 48.815 107.514 49.601 108.484 49.601Z" fill="#FFC599"/>
<path d="M101.925 25.1264C102.895 25.1264 103.681 24.3404 103.681 23.3708C103.681 22.4012 102.895 21.6152 101.925 21.6152C100.956 21.6152 100.17 22.4012 100.17 23.3708C100.17 24.3404 100.956 25.1264 101.925 25.1264Z" fill="#FFC599"/>
<path d="M115.042 47.8451C116.012 47.8451 116.798 47.0591 116.798 46.0895C116.798 45.12 116.012 44.334 115.042 44.334C114.073 44.334 113.287 45.12 113.287 46.0895C113.287 47.0591 114.073 47.8451 115.042 47.8451Z" fill="#FFC599"/>
<path d="M97.1247 29.9271C98.0943 29.9271 98.8803 29.1411 98.8803 28.1716C98.8803 27.202 98.0943 26.416 97.1247 26.416C96.1551 26.416 95.3691 27.202 95.3691 28.1716C95.3691 29.1411 96.1551 29.9271 97.1247 29.9271Z" fill="#FFC599"/>
<path d="M119.843 43.0443C120.813 43.0443 121.599 42.2583 121.599 41.2888C121.599 40.3192 120.813 39.5332 119.843 39.5332C118.874 39.5332 118.088 40.3192 118.088 41.2888C118.088 42.2583 118.874 43.0443 119.843 43.0443Z" fill="#FFC599"/>
<path d="M95.3674 36.4857C96.337 36.4857 97.1229 35.6997 97.1229 34.7302C97.1229 33.7606 96.337 32.9746 95.3674 32.9746C94.3978 32.9746 93.6118 33.7606 93.6118 34.7302C93.6118 35.6997 94.3978 36.4857 95.3674 36.4857Z" fill="#FFC599"/>
<path d="M121.601 36.4857C122.57 36.4857 123.356 35.6997 123.356 34.7302C123.356 33.7606 122.57 32.9746 121.601 32.9746C120.631 32.9746 119.845 33.7606 119.845 34.7302C119.845 35.6997 120.631 36.4857 121.601 36.4857Z" fill="#FFC599"/>
<path d="M97.1247 43.0443C98.0943 43.0443 98.8803 42.2583 98.8803 41.2888C98.8803 40.3192 98.0943 39.5332 97.1247 39.5332C96.1551 39.5332 95.3691 40.3192 95.3691 41.2888C95.3691 42.2583 96.1551 43.0443 97.1247 43.0443Z" fill="#FFC599"/>
<path d="M119.843 29.9271C120.813 29.9271 121.599 29.1411 121.599 28.1716C121.599 27.202 120.813 26.416 119.843 26.416C118.874 26.416 118.088 27.202 118.088 28.1716C118.088 29.1411 118.874 29.9271 119.843 29.9271Z" fill="#FFC599"/>
<path d="M101.925 47.8451C102.895 47.8451 103.681 47.0591 103.681 46.0895C103.681 45.12 102.895 44.334 101.925 44.334C100.956 44.334 100.17 45.12 100.17 46.0895C100.17 47.0591 100.956 47.8451 101.925 47.8451Z" fill="#FFC599"/>
<path d="M115.042 25.1264C116.012 25.1264 116.798 24.3404 116.798 23.3708C116.798 22.4012 116.012 21.6152 115.042 21.6152C114.073 21.6152 113.287 22.4012 113.287 23.3708C113.287 24.3404 114.073 25.1264 115.042 25.1264Z" fill="#FFC599"/>
<path d="M64.8544 72.8437C64.4947 72.8437 64.1344 72.7064 63.8602 72.4316C63.3109 71.8826 63.3109 70.9922 63.8602 70.4432L66.6727 67.6307C67.2214 67.0814 68.1124 67.0814 68.6611 67.6307C69.2104 68.1797 69.2104 69.0701 68.6611 69.6191L65.8486 72.4316C65.5741 72.7064 65.2141 72.8437 64.8544 72.8437Z" fill="#6C6CFF"/>
<path d="M126.484 60.0683C126.124 60.0683 125.764 59.931 125.49 59.6563C124.94 59.1073 124.94 58.2168 125.49 57.6678L128.302 54.8553C128.851 54.306 129.742 54.306 130.291 54.8553C130.84 55.4043 130.84 56.2948 130.291 56.8438L127.478 59.6563C127.204 59.931 126.844 60.0683 126.484 60.0683Z" fill="#FF9D33"/>
<path d="M20.8647 49.2402C20.505 49.2402 20.1447 49.1029 19.8705 48.8281L18.3334 47.2914L16.7964 48.8281C16.2477 49.3774 15.3567 49.3774 14.808 48.8281C14.2587 48.2791 14.2587 47.3887 14.808 46.8397L17.3392 44.3084C17.8879 43.7592 18.7789 43.7592 19.3277 44.3084L21.8589 46.8397C22.4082 47.3887 22.4082 48.2791 21.8589 48.8281C21.5844 49.1029 21.2244 49.2402 20.8647 49.2402Z" fill="#FF6C6C"/>
<path d="M81.9418 70.3554C81.5821 70.3554 81.2218 70.2181 80.9476 69.9433L79.4106 68.4066L77.8735 69.9433C77.3248 70.4926 76.4338 70.4926 75.8851 69.9433C75.3358 69.3944 75.3358 68.5039 75.8851 67.9549L78.4164 65.4237C78.9651 64.8744 79.8561 64.8744 80.4048 65.4237L82.936 67.9549C83.4853 68.5039 83.4853 69.3944 82.936 69.9433C82.6615 70.2181 82.3015 70.3554 81.9418 70.3554Z" fill="#FF9D33"/>
<path d="M120.057 106.197C119.697 106.197 119.337 106.06 119.063 105.785L117.526 104.248L115.989 105.785C115.44 106.334 114.549 106.334 114 105.785C113.451 105.236 113.451 104.346 114 103.797L116.532 101.265C117.08 100.716 117.971 100.716 118.52 101.265L121.051 103.797C121.601 104.346 121.601 105.236 121.051 105.785C120.777 106.06 120.417 106.197 120.057 106.197Z" fill="#6C6CFF"/>
</g>
<defs>
<linearGradient id="paint0_linear_8_365" x1="20.4243" y1="129.448" x2="107.483" y2="42.3899" gradientUnits="userSpaceOnUse">
<stop stop-color="#FFF3EE" stop-opacity="0"/>
<stop offset="0.2938" stop-color="#FFEADE" stop-opacity="0.373"/>
<stop offset="0.7874" stop-color="#FFD6BB"/>
</linearGradient>
<clipPath id="clip0_8_365">
<rect width="144" height="144" fill="white"/>
</clipPath>
</defs>
</svg>
