<svg width="144" height="144" viewBox="0 0 144 144" fill="none" xmlns="http://www.w3.org/2000/svg">
<g clip-path="url(#clip0_8_282)">
<path d="M11.8591 119.255C-5.35399 112.125 -2.01865 75.6612 10.3445 81.6484C14.9289 83.8683 16.2649 90.8011 21.7903 92.1508C25.5908 93.4311 38.2392 89.4067 23.5622 65.5719C-8.39233 13.6787 98.4852 -28.0613 82.187 45.9778C80.391 52.9398 87.2265 55.4649 93.4061 56.1674C198.102 68.0691 120.102 174.696 41.3088 124.928C28.1482 116.615 20.3073 122.755 11.8591 119.255Z" fill="url(#paint0_linear_8_282)"/>
<path opacity="0.1" d="M115.026 26.1788C113.279 26.1788 111.595 26.4429 110.009 26.9311V23.0215C110.009 20.6916 108.12 18.8027 105.79 18.8027H38.2103C35.8804 18.8027 33.9916 20.6916 33.9916 23.0215V93.523C32.4056 93.0345 30.7212 92.7707 28.9749 92.7707C19.573 92.7707 11.9514 100.392 11.9514 109.794C11.9514 119.196 19.573 126.818 28.9749 126.818C30.7212 126.818 32.4056 126.554 33.9916 126.065V132.225C33.9916 134.555 35.8804 136.444 38.2103 136.444H105.79C108.12 136.444 110.009 134.555 110.009 132.225V59.4735C111.595 59.962 113.279 60.2258 115.025 60.2258C124.427 60.2258 132.049 52.6042 132.049 43.2023C132.049 33.8004 124.428 26.1788 115.026 26.1788Z" fill="#0000CC"/>
<path d="M110.008 16.2715V125.475C110.008 127.804 108.121 129.694 105.79 129.694H38.2109C36.0762 129.694 34.3156 128.111 34.0316 126.055V126.052C34.0062 125.863 33.9922 125.672 33.9922 125.475V16.2715C33.9922 13.9427 35.8794 12.0527 38.2109 12.0527H105.79C108.121 12.0527 110.008 13.9425 110.008 16.2715Z" fill="#8383FF"/>
<path d="M45.9987 109.795C45.9987 117.434 40.9644 123.9 34.0316 126.051C34.0062 125.863 33.9922 125.671 33.9922 125.475V93.5215C40.9447 95.6646 45.9987 102.139 45.9987 109.795Z" fill="#6C6CFF"/>
<path d="M110.009 26.9297V59.4731C103.056 57.33 98.002 50.8556 98.002 43.2C98.002 35.5469 103.056 29.0728 110.009 26.9297Z" fill="#6C6CFF"/>
<path d="M41.3041 119.569V22.1777C41.3041 20.6244 42.5632 19.3652 44.1166 19.3652H99.8837C101.437 19.3652 102.696 20.6244 102.696 22.1777V119.569C102.696 121.122 101.437 122.381 99.8837 122.381H44.1166C42.5635 122.381 41.3041 121.122 41.3041 119.569Z" fill="white"/>
<path d="M97.5892 122.381H46.4113V101.584C46.4113 100.807 47.041 100.178 47.8175 100.178H96.1827C96.9592 100.178 97.5889 100.807 97.5889 101.584V122.381H97.5892Z" fill="#FFE8DC"/>
<path d="M96.1829 76.2154H47.8175C47.041 76.2154 46.4113 75.5857 46.4113 74.8091V63.3516C46.4113 62.575 47.041 61.9453 47.8175 61.9453H96.1827C96.9592 61.9453 97.5889 62.575 97.5889 63.3516V74.8091C97.5892 75.5859 96.9595 76.2154 96.1829 76.2154Z" fill="#FFAB66"/>
<path d="M102.696 31.4668V54.9371C99.7879 51.8827 98.002 47.7512 98.002 43.2005C98.002 38.6527 99.7879 34.5212 102.696 31.4668Z" fill="#D9D9FF"/>
<path d="M45.9987 109.795C45.9987 114.115 44.39 118.061 41.735 121.062C41.4622 120.629 41.3047 120.117 41.3047 119.569V98.0586C44.2128 101.113 45.9987 105.244 45.9987 109.795Z" fill="#B3B3FF"/>
<path d="M86.1566 24.2739H57.8443C56.5792 24.2739 55.47 23.4293 55.1333 22.2101L52.3281 12.0527H91.6727L88.8675 22.2101C88.5309 23.4293 87.4216 24.2739 86.1566 24.2739Z" fill="#FFAB66"/>
<path d="M60.6521 20.3325C61.6278 20.3325 62.4189 19.5414 62.4189 18.5656C62.4189 17.5899 61.6278 16.7988 60.6521 16.7988C59.6763 16.7988 58.8853 17.5899 58.8853 18.5656C58.8853 19.5414 59.6763 20.3325 60.6521 20.3325Z" fill="#FF8B00"/>
<path d="M83.3484 20.3325C84.3241 20.3325 85.1152 19.5414 85.1152 18.5656C85.1152 17.5899 84.3241 16.7988 83.3484 16.7988C82.3726 16.7988 81.5815 17.5899 81.5815 18.5656C81.5815 19.5414 82.3726 20.3325 83.3484 20.3325Z" fill="#FF8B00"/>
<path d="M28.9749 120.068C38.3767 120.068 45.9984 112.447 45.9984 103.045C45.9984 93.6432 38.3767 86.0215 28.9749 86.0215C19.5731 86.0215 11.9514 93.6432 11.9514 103.045C11.9514 112.447 19.5731 120.068 28.9749 120.068Z" fill="#FFC599"/>
<path d="M28.9748 115.91C36.0799 115.91 41.8397 110.15 41.8397 103.045C41.8397 95.9395 36.0799 90.1797 28.9748 90.1797C21.8697 90.1797 16.1099 95.9395 16.1099 103.045C16.1099 110.15 21.8697 115.91 28.9748 115.91Z" fill="#FF9D33"/>
<path d="M115.025 53.4767C124.427 53.4767 132.049 45.855 132.049 36.4532C132.049 27.0514 124.427 19.4297 115.025 19.4297C105.624 19.4297 98.002 27.0514 98.002 36.4532C98.002 45.855 105.624 53.4767 115.025 53.4767Z" fill="#FF9494"/>
<path d="M115.026 18.0228C113.808 18.0228 112.599 18.1485 111.415 18.3859V16.2715C111.415 13.1699 108.891 10.6465 105.79 10.6465H38.2109C35.1093 10.6465 32.5859 13.1699 32.5859 16.2715V78.9987C32.5859 79.7755 33.2153 80.4049 33.9921 80.4049C34.7689 80.4049 35.3984 79.7755 35.3984 78.9987V16.2715C35.3984 14.7207 36.6601 13.459 38.2109 13.459H105.79C107.34 13.459 108.602 14.7207 108.602 16.2715V19.185C106.741 19.8765 104.99 20.8637 103.434 22.1243C100.216 24.7304 97.947 28.3776 97.0442 32.3953C96.874 33.153 97.3499 33.9053 98.1076 34.0757C98.8647 34.2459 99.6176 33.77 99.788 33.0123C101.374 25.9566 107.782 20.8356 115.026 20.8356C123.637 20.8356 130.643 27.8415 130.643 36.4529C130.643 45.0642 123.637 52.0701 115.026 52.0701C107.791 52.0701 101.385 46.9567 99.7925 39.912C99.6215 39.1545 98.8678 38.6778 98.1109 38.8505C97.3535 39.0215 96.8782 39.7747 97.0495 40.5321C97.9565 44.5444 100.227 48.1869 103.442 50.7882C104.996 52.0456 106.744 53.0303 108.602 53.7208V125.475C108.602 127.026 107.341 128.288 105.79 128.288H38.2109C36.6601 128.288 35.3984 127.026 35.3984 125.475V120.317C42.4026 117.704 47.4047 110.948 47.4047 103.044C47.4047 92.882 39.137 84.6147 28.9749 84.6147C18.8128 84.6147 10.5452 92.8823 10.5452 103.044C10.5452 113.207 18.8128 121.474 28.9749 121.474C30.2107 121.474 31.4176 121.35 32.5859 121.117V125.475C32.5859 128.577 35.1093 131.1 38.2109 131.1H105.79C108.891 131.1 111.415 128.577 111.415 125.475V54.5195C112.598 54.7569 113.808 54.8826 115.026 54.8826C125.188 54.8826 133.455 46.615 133.455 36.4529C133.455 26.2907 125.188 18.0228 115.026 18.0228ZM13.3577 103.044C13.3577 94.4331 20.3636 87.4272 28.9749 87.4272C37.5862 87.4272 44.5922 94.4331 44.5922 103.044C44.5922 111.656 37.5862 118.662 28.9749 118.662C20.3636 118.662 13.3577 111.656 13.3577 103.044Z" fill="#0000CC"/>
<path d="M115.026 49.3178C122.131 49.3178 127.891 43.5579 127.891 36.4528C127.891 29.3477 122.131 23.5879 115.026 23.5879C107.92 23.5879 102.161 29.3477 102.161 36.4528C102.161 43.5579 107.92 49.3178 115.026 49.3178Z" fill="#FF4D4D"/>
<path d="M17.7717 129.144C17.4119 129.144 17.0517 129.007 16.7774 128.732L15.2404 127.196L13.7034 128.732C13.1547 129.282 12.2637 129.282 11.7149 128.732C11.1657 128.183 11.1657 127.293 11.7149 126.744L14.2462 124.213C14.7949 123.663 15.6859 123.663 16.2346 124.213L18.7659 126.744C19.3152 127.293 19.3152 128.183 18.7659 128.732C18.4914 129.007 18.1314 129.144 17.7717 129.144Z" fill="#FF6C6C"/>
<path d="M25.4299 19.4706C25.0701 19.4706 24.7099 19.3334 24.4356 19.0586L22.8986 17.5219L21.3616 19.0586C20.8129 19.6079 19.9219 19.6079 19.3731 19.0586C18.8239 18.5096 18.8239 17.6192 19.3731 17.0702L21.9044 14.5389C22.4531 13.9896 23.3441 13.9896 23.8928 14.5389L26.4241 17.0702C26.9734 17.6192 26.9734 18.5096 26.4241 19.0586C26.1499 19.3334 25.7896 19.4706 25.4299 19.4706Z" fill="#FF9D33"/>
<path d="M122.642 113.412C122.282 113.412 121.922 113.275 121.648 113L120.111 111.463L118.574 113C118.025 113.549 117.134 113.549 116.585 113C116.036 112.451 116.036 111.561 116.585 111.012L119.117 108.48C119.665 107.931 120.556 107.931 121.105 108.48L123.636 111.012C124.186 111.561 124.186 112.451 123.636 113C123.362 113.275 123.002 113.412 122.642 113.412Z" fill="#FF9D33"/>
<path d="M122.642 67.621C122.282 67.621 121.922 67.4838 121.648 67.209C121.099 66.66 121.099 65.7696 121.648 65.2206L124.46 62.4081C125.009 61.8588 125.9 61.8588 126.449 62.4081C126.998 62.9571 126.998 63.8475 126.449 64.3965L123.636 67.209C123.362 67.4835 123.002 67.621 122.642 67.621Z" fill="#6C6CFF"/>
<path d="M24.3049 80.4355C23.9451 80.4355 23.5849 80.2982 23.3106 80.0234C22.7614 79.4744 22.7614 78.584 23.3106 78.035L26.1231 75.2225C26.6719 74.6732 27.5629 74.6732 28.1116 75.2225C28.6609 75.7715 28.6609 76.6619 28.1116 77.2109L25.2991 80.0234C25.0249 80.2982 24.6646 80.4355 24.3049 80.4355Z" fill="#6C6CFF"/>
<path d="M59.756 71.5274H52.3755C51.599 71.5274 50.9692 70.8977 50.9692 70.1211V68.041C50.9692 67.2645 51.599 66.6348 52.3755 66.6348H59.756C60.5326 66.6348 61.1623 67.2645 61.1623 68.041V70.1211C61.1623 70.898 60.5326 71.5274 59.756 71.5274Z" fill="#FF8B00"/>
<path d="M75.6906 71.5274H68.3101C67.5335 71.5274 66.9038 70.8977 66.9038 70.1211V68.041C66.9038 67.2645 67.5335 66.6348 68.3101 66.6348H75.6906C76.4671 66.6348 77.0969 67.2645 77.0969 68.041V70.1211C77.0969 70.898 76.4671 71.5274 75.6906 71.5274Z" fill="#FF8B00"/>
<path d="M91.6252 71.5274H84.2446C83.4681 71.5274 82.8384 70.8977 82.8384 70.1211V68.041C82.8384 67.2645 83.4681 66.6348 84.2446 66.6348H91.6252C92.4017 66.6348 93.0314 67.2645 93.0314 68.041V70.1211C93.0314 70.898 92.4017 71.5274 91.6252 71.5274Z" fill="#FF8B00"/>
<path d="M68.0546 84.0117H51.0156C50.2391 84.0117 49.6094 83.382 49.6094 82.6055C49.6094 81.8289 50.2391 81.1992 51.0156 81.1992H68.0546C68.8311 81.1992 69.4608 81.8289 69.4608 82.6055C69.4608 83.382 68.8311 84.0117 68.0546 84.0117Z" fill="#FFAB66"/>
<path d="M68.0546 90.1797H51.0156C50.2391 90.1797 49.6094 89.55 49.6094 88.7734C49.6094 87.9969 50.2391 87.3672 51.0156 87.3672H68.0546C68.8311 87.3672 69.4608 87.9969 69.4608 88.7734C69.4608 89.55 68.8311 90.1797 68.0546 90.1797Z" fill="#FFAB66"/>
<path d="M68.0546 96.3457H51.0156C50.2391 96.3457 49.6094 95.716 49.6094 94.9395C49.6094 94.1629 50.2391 93.5332 51.0156 93.5332H68.0546C68.8311 93.5332 69.4608 94.1629 69.4608 94.9395C69.4608 95.716 68.8311 96.3457 68.0546 96.3457Z" fill="#FFAB66"/>
<path d="M92.9848 84.0117H75.9458C75.1693 84.0117 74.5396 83.382 74.5396 82.6055C74.5396 81.8289 75.1693 81.1992 75.9458 81.1992H92.9848C93.7613 81.1992 94.391 81.8289 94.391 82.6055C94.391 83.382 93.7616 84.0117 92.9848 84.0117Z" fill="#FFAB66"/>
<path d="M92.9848 90.1797H75.9458C75.1693 90.1797 74.5396 89.55 74.5396 88.7734C74.5396 87.9969 75.1693 87.3672 75.9458 87.3672H92.9848C93.7613 87.3672 94.391 87.9969 94.391 88.7734C94.391 89.55 93.7616 90.1797 92.9848 90.1797Z" fill="#FFAB66"/>
<path d="M92.9848 96.3457H75.9458C75.1693 96.3457 74.5396 95.716 74.5396 94.9395C74.5396 94.1629 75.1693 93.5332 75.9458 93.5332H92.9848C93.7613 93.5332 94.391 94.1629 94.391 94.9395C94.391 95.716 93.7616 96.3457 92.9848 96.3457Z" fill="#FFAB66"/>
<path d="M92.9847 109.393H51.016C50.2395 109.393 49.6097 108.763 49.6097 107.986C49.6097 107.21 50.2395 106.58 51.016 106.58H92.985C93.7615 106.58 94.3912 107.21 94.3912 107.986C94.3912 108.763 93.7615 109.393 92.9847 109.393Z" fill="#FFAB66"/>
<path d="M92.9847 114.998H51.016C50.2395 114.998 49.6097 114.368 49.6097 113.592C49.6097 112.815 50.2395 112.186 51.016 112.186H92.985C93.7615 112.186 94.3912 112.815 94.3912 113.592C94.3912 114.368 93.7615 114.998 92.9847 114.998Z" fill="#FFAB66"/>
<path d="M81.4993 50.453L93.0933 42.1552C93.8527 41.6116 93.8527 40.4827 93.0933 39.939L81.4993 31.6413C80.5164 30.9379 79.1723 31.7673 79.3604 32.9615L79.8653 36.1652H70.1405C69.3879 36.1652 68.7778 36.7752 68.7778 37.5278V44.5664C68.7778 45.319 69.3879 45.9291 70.1405 45.9291H79.8653L79.3604 49.1328C79.1723 50.327 80.5164 51.1567 81.4993 50.453Z" fill="#6C6CFF"/>
<path d="M62.5014 37.5573L50.9074 45.855C50.148 46.3986 50.148 47.5276 50.9074 48.0712L62.5014 56.3689C63.4844 57.0723 64.8284 56.2429 64.6403 55.0488L64.1354 51.845H73.8602C74.6129 51.845 75.2229 51.235 75.2229 50.4824V43.4438C75.2229 42.6912 74.6129 42.0812 73.8602 42.0812H64.1354L64.6403 38.8774C64.8284 37.6835 63.4844 36.8538 62.5014 37.5573Z" fill="#FF6C6C"/>
<path d="M48.9424 30.623C49.719 30.623 50.3486 29.9934 50.3486 29.2168C50.3486 28.4401 49.719 27.8105 48.9424 27.8105C48.1657 27.8105 47.5361 28.4401 47.5361 29.2168C47.5361 29.9934 48.1657 30.623 48.9424 30.623Z" fill="#FF8B00"/>
<path d="M53.4528 30.623C54.2294 30.623 54.859 29.9934 54.859 29.2168C54.859 28.4401 54.2294 27.8105 53.4528 27.8105C52.6761 27.8105 52.0465 28.4401 52.0465 29.2168C52.0465 29.9934 52.6761 30.623 53.4528 30.623Z" fill="#FF8B00"/>
<path d="M57.9629 30.623C58.7395 30.623 59.3691 29.9934 59.3691 29.2168C59.3691 28.4401 58.7395 27.8105 57.9629 27.8105C57.1862 27.8105 56.5566 28.4401 56.5566 29.2168C56.5566 29.9934 57.1862 30.623 57.9629 30.623Z" fill="#FF8B00"/>
</g>
<defs>
<linearGradient id="paint0_linear_8_282" x1="20.4245" y1="129.448" x2="107.483" y2="42.3899" gradientUnits="userSpaceOnUse">
<stop stop-color="#FFF3EE" stop-opacity="0"/>
<stop offset="0.2938" stop-color="#FFEADE" stop-opacity="0.373"/>
<stop offset="0.7874" stop-color="#FFD6BB"/>
</linearGradient>
<clipPath id="clip0_8_282">
<rect width="144" height="144" fill="white"/>
</clipPath>
</defs>
</svg>
