<svg width="144" height="144" viewBox="0 0 144 144" fill="none" xmlns="http://www.w3.org/2000/svg">
<g clip-path="url(#clip0_8_421)">
<path d="M11.8591 119.255C-5.35399 112.125 -2.01865 75.6612 10.3445 81.6484C14.9289 83.8683 16.2649 90.8011 21.7903 92.1508C25.5908 93.4311 38.2392 89.4067 23.5622 65.5719C-8.39233 13.6787 98.4852 -28.0613 82.187 45.9778C80.391 52.9398 87.2265 55.4649 93.4061 56.1674C198.102 68.0691 120.102 174.696 41.3088 124.928C28.1482 116.615 20.3073 122.755 11.8591 119.255Z" fill="url(#paint0_linear_8_421)"/>
<g opacity="0.1">
<path opacity="0.1" d="M130.008 39.8858C130.008 30.4839 122.386 22.8623 112.984 22.8623C111.117 22.8623 109.321 23.1674 107.64 23.7232V17.8926C107.64 16.3373 106.38 15.0801 104.827 15.0801H90.8606C89.3081 15.0801 88.0481 16.3373 88.0481 17.8926V102.436C88.0481 103.989 89.3081 105.249 90.8606 105.249H95.0318V113.19C95.0318 114.743 96.291 116.002 97.8443 116.002C99.3977 116.002 100.657 114.743 100.657 113.19V105.249H104.827C106.38 105.249 107.64 103.989 107.64 102.436V56.0486C109.321 56.6044 111.117 56.9096 112.984 56.9096C122.386 56.9093 130.008 49.2877 130.008 39.8858Z" fill="#0000CC"/>
<path opacity="0.1" d="M26.9963 54.4537H22.8257V34.1367C22.8257 32.5834 21.5665 31.3242 20.0132 31.3242C18.4598 31.3242 17.2007 32.5834 17.2007 34.1367V54.4537H13.03C11.4767 54.4537 10.2175 55.7128 10.2175 57.2662V119.31C10.2175 120.864 11.4767 122.123 13.03 122.123H17.2007V130.065C17.2007 131.618 18.4598 132.877 20.0132 132.877C21.5665 132.877 22.8257 131.618 22.8257 130.065V122.123H26.9963C28.5497 122.123 29.8088 120.864 29.8088 119.31V57.2662C29.8088 55.7131 28.5497 54.4537 26.9963 54.4537Z" fill="#0000CC"/>
<path opacity="0.1" d="M52.9404 88.2037H48.7698V80.2617C48.7698 78.7084 47.5106 77.4492 45.9573 77.4492C44.4039 77.4492 43.1448 78.7084 43.1448 80.2617V88.2037H38.9741C37.4208 88.2037 36.1616 89.4628 36.1616 91.0162V135.107C36.1616 136.66 37.4208 137.919 38.9741 137.919H52.9404C54.4938 137.919 55.7529 136.66 55.7529 135.107V91.0162C55.7529 89.4631 54.4935 88.2037 52.9404 88.2037Z" fill="#0000CC"/>
<path opacity="0.1" d="M78.8838 43.2037H74.7131V40.8867C74.7131 39.3334 73.454 38.0742 71.9006 38.0742C70.3473 38.0742 69.0881 39.3334 69.0881 40.8867V43.2037H64.9175C63.3641 43.2037 62.105 44.4628 62.105 46.0162V91.1852C62.105 92.7385 63.3641 93.9977 64.9175 93.9977H69.0881V107.565C69.0881 109.118 70.3473 110.377 71.9006 110.377C73.454 110.377 74.7131 109.118 74.7131 107.565V93.9977H78.8838C80.4371 93.9977 81.6963 92.7385 81.6963 91.1852V46.0162C81.6963 44.4631 80.4371 43.2037 78.8838 43.2037Z" fill="#0000CC"/>
<path opacity="0.1" d="M130.97 82.5781H117.004C115.451 82.5781 114.192 83.8373 114.192 85.3906V113.685C114.192 115.238 115.451 116.497 117.004 116.497H121.175V124.439C121.175 125.992 122.434 127.252 123.987 127.252C125.541 127.252 126.8 125.992 126.8 124.439V116.497H130.97C132.524 116.497 133.783 115.238 133.783 113.685V85.3906C133.783 83.8376 132.524 82.5781 130.97 82.5781Z" fill="#0000CC"/>
</g>
<path d="M17.2004 27.3867V123.314C17.2004 124.868 18.4596 126.127 20.0129 126.127C21.5663 126.127 22.8254 124.868 22.8254 123.314V27.3867C22.8254 25.8334 21.5663 24.5742 20.0129 24.5742C18.4596 24.5742 17.2004 25.8334 17.2004 27.3867Z" fill="#6C6CFF"/>
<path d="M10.2175 50.5156V112.56C10.2175 114.113 11.4767 115.372 13.03 115.372H26.9963C28.5497 115.372 29.8088 114.113 29.8088 112.56V50.5156C29.8088 48.9623 28.5497 47.7031 26.9963 47.7031H13.03C11.4767 47.7031 10.2175 48.9626 10.2175 50.5156Z" fill="#FF4D4D"/>
<path d="M15.8425 53.3281H24.1841V109.747H15.8425V53.3281Z" fill="#FF6C6C"/>
<path d="M48.7693 103.217V73.5117C48.7693 71.9584 47.5101 70.6992 45.9568 70.6992C44.4034 70.6992 43.1443 71.9584 43.1443 73.5117V103.217H48.7693Z" fill="#6C6CFF"/>
<path d="M36.1614 84.2656V128.356C36.1614 129.91 37.4205 131.169 38.9739 131.169H52.9402C54.4935 131.169 55.7527 129.91 55.7527 128.356V84.2656C55.7527 82.7123 54.4935 81.4531 52.9402 81.4531H38.9739C37.4205 81.4531 36.1614 82.7126 36.1614 84.2656Z" fill="#FF4D4D"/>
<path d="M41.7864 87.0781H50.128V125.544H41.7864V87.0781Z" fill="#FF6C6C"/>
<path d="M69.0876 34.1367V100.814C69.0876 102.368 70.3468 103.627 71.9001 103.627C73.4535 103.627 74.7126 102.368 74.7126 100.814V34.1367C74.7126 32.5834 73.4535 31.3242 71.9001 31.3242C70.3471 31.3242 69.0876 32.5834 69.0876 34.1367Z" fill="#6C6CFF"/>
<path d="M62.1047 39.2656V84.4347C62.1047 85.988 63.3639 87.2472 64.9172 87.2472H78.8835C80.4369 87.2472 81.696 85.988 81.696 84.4347V39.2656C81.696 37.7123 80.4369 36.4531 78.8835 36.4531H64.9172C63.3639 36.4531 62.1047 37.7126 62.1047 39.2656Z" fill="#FF9D33"/>
<path d="M67.7297 42.0781H76.0714V81.6222H67.7297V42.0781Z" fill="#FFAB66"/>
<path d="M95.0317 50.8711V106.44C95.0317 107.994 96.2909 109.253 97.8442 109.253C99.3976 109.253 100.657 107.994 100.657 106.44V50.8711H95.0317Z" fill="#6C6CFF"/>
<path d="M107.64 11.1426V95.6863C107.64 97.2388 106.38 98.4988 104.827 98.4988H90.8606C89.3081 98.4988 88.0481 97.2388 88.0481 95.6863V11.1426C88.0481 9.58727 89.3081 8.33008 90.8606 8.33008H104.827C106.38 8.33008 107.64 9.58727 107.64 11.1426Z" fill="#FF9D33"/>
<path d="M107.64 23.7207V56.0532C100.856 53.8144 95.9595 47.4216 95.9595 39.887C95.9595 32.3523 100.856 25.9595 107.64 23.7207Z" fill="#FF8B00"/>
<path d="M93.6731 13.9551H102.015V92.8738H93.6731V13.9551Z" fill="#FFAB66"/>
<path d="M102.015 26.8672V52.9053C98.3107 49.7834 95.9595 45.1091 95.9595 39.8863C95.9595 34.6634 98.3107 29.9891 102.015 26.8672Z" fill="#FF9D33"/>
<path d="M121.175 84.6211V117.69C121.175 119.244 122.434 120.503 123.988 120.503C125.541 120.503 126.8 119.244 126.8 117.69V84.6211H121.175Z" fill="#6C6CFF"/>
<path d="M114.192 78.6406V106.935C114.192 108.488 115.451 109.747 117.004 109.747H130.97C132.524 109.747 133.783 108.488 133.783 106.935V78.6406C133.783 77.0873 132.524 75.8281 130.97 75.8281H117.004C115.451 75.8281 114.192 77.0876 114.192 78.6406Z" fill="#FF9D33"/>
<path d="M119.817 81.4531H128.158V104.122H119.817V81.4531Z" fill="#FFAB66"/>
<path d="M112.984 50.1583C122.386 50.1583 130.008 42.5366 130.008 33.1348C130.008 23.733 122.386 16.1113 112.984 16.1113C103.582 16.1113 95.9607 23.733 95.9607 33.1348C95.9607 42.5366 103.582 50.1583 112.984 50.1583Z" fill="#FFC599"/>
<path d="M26.9963 46.2968H24.2328V27.3867C24.2328 25.0605 22.3403 23.168 20.014 23.168C18.8876 23.168 17.8282 23.607 17.0311 24.4041C16.2343 25.2011 15.7953 26.2606 15.7953 27.3867V46.2968H13.03C10.7038 46.2968 8.81128 48.1894 8.81128 50.5156V112.56C8.81128 114.886 10.7038 116.778 13.03 116.778H15.7953V123.313C15.7953 125.639 17.6878 127.531 20.014 127.531C21.1404 127.531 22.1996 127.092 22.9942 126.298C23.7929 125.504 24.2328 124.444 24.2328 123.313V116.778H26.9963C29.3226 116.778 31.2151 114.886 31.2151 112.56V50.5156C31.2151 48.1894 29.3226 46.2968 26.9963 46.2968ZM21.4203 123.313C21.4203 123.689 21.2749 124.041 21.008 124.307C20.7422 124.572 20.3892 124.719 20.014 124.719C19.2386 124.719 18.6078 124.088 18.6078 123.313V116.779H21.4203V123.313ZM18.6078 27.3867C18.6078 27.0115 18.7543 26.6586 19.0198 26.3928C19.2856 26.127 19.6386 25.9805 20.014 25.9805C20.7894 25.9805 21.4203 26.6113 21.4203 27.3867V46.2968H18.6078V27.3867ZM28.4026 112.56C28.4026 113.335 27.7718 113.966 26.9963 113.966H13.03C12.2546 113.966 11.6238 113.335 11.6238 112.56V50.5156C11.6238 49.7402 12.2546 49.1093 13.03 49.1093H26.9963C27.7718 49.1093 28.4026 49.7402 28.4026 50.5156V112.56Z" fill="#0000CC"/>
<path d="M52.9402 80.0474H50.1758V73.5117C50.1758 71.1855 48.2833 69.293 45.957 69.293C43.6308 69.293 41.7383 71.1855 41.7383 73.5117V80.0474H38.9739C36.6477 80.0474 34.7551 81.9399 34.7551 84.2662V128.357C34.7551 130.683 36.6477 132.576 38.9739 132.576H42.2294C43.0059 132.576 43.6356 131.946 43.6356 131.17C43.6356 130.393 43.0059 129.763 42.2294 129.763H38.9739C38.1985 129.763 37.5676 129.133 37.5676 128.357V84.2662C37.5676 83.4908 38.1985 82.8599 38.9739 82.8599H52.9402C53.7156 82.8599 54.3464 83.4908 54.3464 84.2662V128.357C54.3464 129.133 53.7156 129.763 52.9402 129.763H49.7452C48.9687 129.763 48.3389 130.393 48.3389 131.17C48.3389 131.946 48.9687 132.576 49.7452 132.576H52.9405C55.2667 132.576 57.1592 130.683 57.1592 128.357V84.2662C57.159 81.9399 55.2664 80.0474 52.9402 80.0474ZM44.5508 80.0474V73.5117C44.5508 72.7363 45.1816 72.1055 45.957 72.1055C46.7324 72.1055 47.3633 72.7363 47.3633 73.5117V80.0474H44.5508Z" fill="#0000CC"/>
<path d="M78.8838 35.0468H76.1205V34.1367C76.1205 31.8105 74.228 29.918 71.9017 29.918C70.7708 29.918 69.7105 30.3578 68.9191 31.1541C68.122 31.9511 67.683 33.0106 67.683 34.1367V35.0468H64.9175C62.5913 35.0468 60.6987 36.9394 60.6987 39.2656V84.4346C60.6987 86.7609 62.5913 88.6534 64.9175 88.6534H67.683V100.813C67.683 103.139 69.5755 105.031 71.9017 105.031C73.0284 105.031 74.0876 104.592 74.8816 103.798C75.6803 103.004 76.1205 101.944 76.1205 100.813V88.6534H78.8838C81.21 88.6534 83.1025 86.7609 83.1025 84.4346V39.2656C83.1025 36.9394 81.21 35.0468 78.8838 35.0468ZM73.308 100.813C73.308 101.189 73.1626 101.541 72.8957 101.807C72.6302 102.073 72.2769 102.219 71.9017 102.219C71.1263 102.219 70.4955 101.588 70.4955 100.813V88.6542H73.308V100.813ZM70.4955 34.1367C70.4955 33.7615 70.642 33.4086 70.9106 33.14C71.1733 32.8762 71.5252 32.7305 71.9017 32.7305C72.6772 32.7305 73.308 33.3613 73.308 34.1367V35.0468H70.4955V34.1367ZM80.29 84.4346C80.29 85.21 79.6592 85.8409 78.8838 85.8409H64.9175C64.1421 85.8409 63.5112 85.21 63.5112 84.4346V39.2656C63.5112 38.4902 64.1421 37.8593 64.9175 37.8593H78.8838C79.6592 37.8593 80.29 38.4902 80.29 39.2656V84.4346Z" fill="#0000CC"/>
<path d="M107.64 55.2004C106.864 55.2004 106.234 55.8301 106.234 56.6067V95.6844C106.234 96.4598 105.603 97.0906 104.828 97.0906H90.8613C90.0859 97.0906 89.4551 96.4598 89.4551 95.6844V11.1406C89.4551 10.3652 90.0859 9.73438 90.8613 9.73438H104.828C105.603 9.73438 106.234 10.3652 106.234 11.1406V15.9913C99.4026 18.6911 94.5547 25.3553 94.5547 33.1349C94.5547 43.2971 102.822 51.5647 112.984 51.5647C123.147 51.5647 131.414 43.2971 131.414 33.1349C131.414 22.9728 123.147 14.7052 112.984 14.7052C111.633 14.7052 110.316 14.8557 109.046 15.1333V11.1406C109.046 8.81441 107.154 6.92188 104.828 6.92188H90.8613C88.5351 6.92188 86.6426 8.81441 86.6426 11.1406V95.6847C86.6426 98.0109 88.5351 99.9034 90.8613 99.9034H93.6257V106.439C93.6257 108.765 95.5183 110.658 97.8445 110.658C100.171 110.658 102.063 108.765 102.063 106.439V99.9034H104.828C107.154 99.9034 109.046 98.0109 109.046 95.6847V56.6067C109.046 55.8301 108.417 55.2004 107.64 55.2004ZM128.602 33.1349C128.602 41.7465 121.596 48.7522 112.984 48.7522C104.373 48.7522 97.3672 41.7463 97.3672 33.1349C97.3672 24.5236 104.373 17.5177 112.984 17.5177C121.596 17.5177 128.602 24.5236 128.602 33.1349ZM99.2507 106.439C99.2507 107.215 98.6199 107.845 97.8445 107.845C97.0691 107.845 96.4382 107.215 96.4382 106.439V99.9034H99.2507V106.439Z" fill="#0000CC"/>
<path d="M130.97 74.4219H117.004C114.678 74.4219 112.785 76.3144 112.785 78.6406V106.935C112.785 109.261 114.678 111.153 117.004 111.153H119.769V117.689C119.769 120.015 121.661 121.908 123.987 121.908C126.314 121.908 128.206 120.015 128.206 117.689V111.153H130.97C133.297 111.153 135.189 109.261 135.189 106.935V78.6406C135.189 76.3144 133.297 74.4219 130.97 74.4219ZM125.394 117.689C125.394 118.464 124.763 119.095 123.987 119.095C123.212 119.095 122.581 118.464 122.581 117.689V111.153H125.394V117.689ZM132.377 106.935C132.377 107.71 131.746 108.341 130.97 108.341H117.004C116.229 108.341 115.598 107.71 115.598 106.935V78.6406C115.598 77.8652 116.229 77.2344 117.004 77.2344H130.97C131.746 77.2344 132.377 77.8652 132.377 78.6406V106.935Z" fill="#0000CC"/>
<path d="M112.984 45.9994C120.089 45.9994 125.849 40.2396 125.849 33.1345C125.849 26.0294 120.089 20.2695 112.984 20.2695C105.879 20.2695 100.119 26.0294 100.119 33.1345C100.119 40.2396 105.879 45.9994 112.984 45.9994Z" fill="#FF9D33"/>
<path d="M84.2277 119.939C83.8677 119.939 83.508 119.802 83.2332 119.527L81.6965 117.991L80.1597 119.527C79.6104 120.076 78.7203 120.076 78.171 119.527C77.6217 118.978 77.6217 118.088 78.171 117.539L80.7022 115.007C81.2515 114.458 82.1417 114.458 82.691 115.007L85.2222 117.539C85.7715 118.088 85.7715 118.978 85.2222 119.527C84.9474 119.802 84.5874 119.939 84.2277 119.939Z" fill="#FF6C6C"/>
<path d="M130.689 59.99C130.329 59.99 129.97 59.8527 129.695 59.5782L128.158 58.0415L126.621 59.5782C126.072 60.1272 125.182 60.1272 124.633 59.5782C124.083 59.0289 124.083 58.1385 124.633 57.5895L127.164 55.0582C127.713 54.5092 128.603 54.5092 129.153 55.0582L131.684 57.5895C132.233 58.1388 132.233 59.0292 131.684 59.5782C131.409 59.8527 131.049 59.99 130.689 59.99Z" fill="#FF9D33"/>
<path d="M16.768 18.7829C16.408 18.7829 16.0483 18.6457 15.7735 18.3712L14.2367 16.8344L12.7 18.3712C12.1507 18.9202 11.2606 18.9202 10.7113 18.3712C10.162 17.8219 10.162 16.9315 10.7113 16.3825L13.2425 13.8512C13.7918 13.3022 14.682 13.3022 15.2312 13.8512L17.7625 16.3825C18.3118 16.9317 18.3118 17.8222 17.7625 18.3712C17.4877 18.6457 17.128 18.7829 16.768 18.7829Z" fill="#FF9D33"/>
<path d="M71.5683 128.357C71.2083 128.357 70.8486 128.22 70.5738 127.945C70.0245 127.396 70.0245 126.506 70.5738 125.957L73.3863 123.144C73.9356 122.595 74.8258 122.595 75.3751 123.144C75.9243 123.693 75.9243 124.584 75.3751 125.133L72.5626 127.945C72.2881 128.22 71.9283 128.357 71.5683 128.357Z" fill="#6C6CFF"/>
<path d="M37.4487 63.5564C37.0887 63.5564 36.729 63.4191 36.4542 63.1446C35.9049 62.5953 35.9049 61.7049 36.4542 61.1559L39.2667 58.3434C39.816 57.7944 40.7061 57.7944 41.2554 58.3434C41.8047 58.8927 41.8047 59.7831 41.2554 60.3321L38.4429 63.1446C38.1684 63.4191 37.8087 63.5564 37.4487 63.5564Z" fill="#6C6CFF"/>
</g>
<defs>
<linearGradient id="paint0_linear_8_421" x1="20.4245" y1="129.448" x2="107.483" y2="42.3899" gradientUnits="userSpaceOnUse">
<stop stop-color="#FFF3EE" stop-opacity="0"/>
<stop offset="0.2938" stop-color="#FFEADE" stop-opacity="0.373"/>
<stop offset="0.7874" stop-color="#FFD6BB"/>
</linearGradient>
<clipPath id="clip0_8_421">
<rect width="144" height="144" fill="white"/>
</clipPath>
</defs>
</svg>
