<svg width="1917" height="1268" viewBox="0 0 1917 1268" fill="none" xmlns="http://www.w3.org/2000/svg">
<path d="M1182.88 499H1168.96V512.942H1171.89L818.269 1001.05L666.185 698.7C666.101 698.557 665.981 698.438 665.837 698.356C665.693 698.273 665.53 698.23 665.364 698.23C665.198 698.23 665.035 698.273 664.891 698.356C664.747 698.438 664.627 698.557 664.543 698.7L381.442 1173.5H369.481V1175.14L228.257 1052.11C228.089 1051.96 227.869 1051.88 227.641 1051.88C227.413 1051.88 227.194 1051.96 227.025 1052.11L13.0625 1249.37H0V1263.31H13.9395V1251.14L227.66 1054.07L369.481 1177.63V1187.43H383.42V1173.8L665.196 701.052L817.336 1003.18C817.411 1003.32 817.52 1003.44 817.654 1003.53C817.788 1003.62 817.942 1003.67 818.101 1003.68C818.262 1003.7 818.423 1003.67 818.57 1003.61C818.717 1003.54 818.845 1003.44 818.941 1003.31L1174.24 512.942H1182.88V499Z" fill="url(#paint0_linear_201_26)"/>
<path d="M675.048 616.077H654.54V676.789H675.048V616.077Z" fill="url(#paint1_linear_201_26)"/>
<path d="M746.052 624.046C746.052 625.615 745.587 627.149 744.716 628.453C743.844 629.758 742.606 630.774 741.156 631.375C739.707 631.975 738.113 632.132 736.574 631.826C735.036 631.52 733.623 630.764 732.514 629.655C731.404 628.546 730.649 627.132 730.343 625.594C730.037 624.055 730.194 622.46 730.794 621.011C731.395 619.561 732.411 618.323 733.715 617.451C735.02 616.579 736.553 616.114 738.121 616.114C740.225 616.114 742.242 616.95 743.729 618.437C745.217 619.925 746.052 621.943 746.052 624.046Z" fill="url(#paint2_linear_201_26)"/>
<path d="M602.459 991.607C602.459 993.176 601.993 994.711 601.121 996.016C600.249 997.32 599.009 998.337 597.559 998.937C596.109 999.537 594.513 999.693 592.974 999.385C591.435 999.078 590.022 998.32 588.914 997.209C587.805 996.098 587.051 994.683 586.748 993.143C586.444 991.603 586.603 990.007 587.206 988.558C587.81 987.109 588.829 985.872 590.136 985.003C591.442 984.133 592.977 983.671 594.547 983.675C595.587 983.675 596.618 983.88 597.579 984.279C598.54 984.678 599.413 985.262 600.148 985.999C600.883 986.736 601.466 987.611 601.862 988.573C602.259 989.535 602.461 990.566 602.459 991.607Z" fill="url(#paint3_linear_201_26)"/>
<path d="M145.012 811.802C145.012 813.371 144.547 814.905 143.675 816.209C142.804 817.513 141.565 818.53 140.116 819.13C138.667 819.731 137.072 819.888 135.534 819.582C133.995 819.276 132.582 818.52 131.473 817.411C130.364 816.302 129.609 814.888 129.303 813.35C128.997 811.811 129.154 810.216 129.754 808.767C130.354 807.317 131.371 806.078 132.675 805.207C133.979 804.335 135.512 803.87 137.081 803.87C139.184 803.87 141.202 804.706 142.689 806.193C144.176 807.681 145.012 809.698 145.012 811.802Z" fill="url(#paint4_linear_201_26)"/>
<path d="M31.2006 1145.99V1264.73" stroke="url(#paint5_linear_201_26)" stroke-miterlimit="10"/>
<path d="M98.1738 1085.09V1203.83" stroke="url(#paint6_linear_201_26)" stroke-miterlimit="10"/>
<path d="M232.083 1019.53V1138.28" stroke="url(#paint7_linear_201_26)" stroke-miterlimit="10"/>
<path d="M299.242 766.953V885.691" stroke="url(#paint8_linear_201_26)" stroke-miterlimit="10"/>
<path d="M365.002 913.761V1077.65" stroke="url(#paint9_linear_201_26)" stroke-width="1.17" stroke-miterlimit="10"/>
<path d="M433.338 876.135V1040.02" stroke="url(#paint10_linear_201_26)" stroke-width="1.17" stroke-miterlimit="10"/>
<path d="M499.956 983.675V1147.56" stroke="url(#paint11_linear_201_26)" stroke-width="1.17" stroke-miterlimit="10"/>
<path d="M633.529 862.38V1026.27" stroke="url(#paint12_linear_201_26)" stroke-width="1.17" stroke-miterlimit="10"/>
<path d="M768.389 598.813V783.545" stroke="url(#paint13_linear_201_26)" stroke-width="1.25" stroke-miterlimit="10"/>
<path d="M834.709 627.07V811.802" stroke="url(#paint14_linear_201_26)" stroke-width="1.25" stroke-miterlimit="10"/>
<path d="M968.6 523.711V708.462" stroke="url(#paint15_linear_201_26)" stroke-width="1.25" stroke-miterlimit="10"/>
<path d="M1102.02 627.07V811.802" stroke="url(#paint16_linear_201_26)" stroke-width="1.25" stroke-miterlimit="10"/>
<path d="M900.712 823.653V976.154" stroke="url(#paint17_linear_201_26)" stroke-width="1.13" stroke-miterlimit="10"/>
<path d="M41.464 1203.83H20.956V1267.75H41.464V1203.83Z" fill="url(#paint18_linear_201_26)"/>
<path d="M108.419 1122.01H87.9105V1185.93H108.419V1122.01Z" fill="url(#paint19_linear_201_26)"/>
<path d="M175.167 983.115H154.659V1138.21H175.167V983.115Z" fill="url(#paint20_linear_201_26)"/>
<path d="M242.327 976.639H221.819V1040H242.327V976.639Z" fill="url(#paint21_linear_201_26)"/>
<path d="M309.506 847.804H288.998V1010.33H309.506V847.804Z" fill="url(#paint22_linear_201_26)"/>
<path d="M375.265 1019.71H354.757V1102.71H375.265V1019.71Z" fill="url(#paint23_linear_201_26)"/>
<path d="M443.583 1012.44H423.074V1134.5H443.583V1012.44Z" fill="url(#paint24_linear_201_26)"/>
<path d="M510.2 895.377H489.692V1057.92H510.2V895.377Z" fill="url(#paint25_linear_201_26)"/>
<path d="M644.762 771.395H624.254V933.936H644.762V771.395Z" fill="url(#paint26_linear_201_26)"/>
<path d="M778.652 733.079H758.144V793.791H778.652V733.079Z" fill="url(#paint27_linear_201_26)"/>
<path d="M844.973 719.436H824.464V881.977H844.973V719.436Z" fill="url(#paint28_linear_201_26)"/>
<path d="M910.957 933.937H890.449V994.649H910.957V933.937Z" fill="url(#paint29_linear_201_26)"/>
<path d="M978.863 660.216H958.354V966.318H978.863V660.216Z" fill="url(#paint30_linear_201_26)"/>
<path d="M1111.48 754.411H1090.98V898.233H1111.48V754.411Z" fill="url(#paint31_linear_201_26)"/>
<path d="M2389.88 0H2375.96V13.9417H2378.89L2025.27 502.051L1873.18 199.7C1873.1 199.557 1872.98 199.438 1872.84 199.356C1872.69 199.273 1872.53 199.23 1872.36 199.23C1872.2 199.23 1872.03 199.273 1871.89 199.356C1871.75 199.438 1871.63 199.557 1871.54 199.7L1588.44 674.502H1576.48V676.145L1435.26 553.114C1435.09 552.961 1434.87 552.876 1434.64 552.876C1434.41 552.876 1434.19 552.961 1434.03 553.114L1220.06 750.37H1207V764.312H1220.94V752.143L1434.66 555.074L1576.48 678.627V688.425H1590.42V674.801L1872.2 202.052L2024.34 504.178C2024.41 504.32 2024.52 504.44 2024.65 504.529C2024.79 504.617 2024.94 504.669 2025.1 504.682C2025.26 504.698 2025.42 504.672 2025.57 504.606C2025.72 504.541 2025.85 504.438 2025.94 504.309L2381.24 13.9417H2389.88V0Z" fill="url(#paint32_linear_201_26)"/>
<path d="M1882.05 117.077H1861.54V177.789H1882.05V117.077Z" fill="url(#paint33_linear_201_26)"/>
<path d="M1558.06 81.0187C1558.06 82.5875 1557.6 84.1211 1556.73 85.4255C1555.85 86.7299 1554.62 87.7466 1553.17 88.3469C1551.72 88.9473 1550.12 89.1044 1548.58 88.7983C1547.05 88.4923 1545.63 87.7368 1544.52 86.6275C1543.41 85.5182 1542.66 84.1048 1542.35 82.5662C1542.05 81.0275 1542.2 79.4326 1542.8 77.9832C1543.41 76.5339 1544.42 75.295 1545.73 74.4235C1547.03 73.5519 1548.56 73.0867 1550.13 73.0867C1552.24 73.0867 1554.25 73.9224 1555.74 75.4099C1557.23 76.8975 1558.06 78.915 1558.06 81.0187Z" fill="url(#paint34_linear_201_26)"/>
<path d="M1809.46 492.607C1809.46 494.177 1808.99 495.711 1808.12 497.016C1807.25 498.321 1806.01 499.337 1804.56 499.937C1803.11 500.537 1801.51 500.693 1799.97 500.385C1798.44 500.078 1797.02 499.32 1795.91 498.209C1794.81 497.098 1794.05 495.683 1793.75 494.143C1793.44 492.603 1793.6 491.008 1794.21 489.559C1794.81 488.11 1795.83 486.872 1797.14 486.003C1798.44 485.133 1799.98 484.671 1801.55 484.675C1802.59 484.675 1803.62 484.88 1804.58 485.279C1805.54 485.678 1806.41 486.263 1807.15 486.999C1807.88 487.736 1808.47 488.611 1808.86 489.573C1809.26 490.535 1809.46 491.566 1809.46 492.607Z" fill="url(#paint35_linear_201_26)"/>
<path d="M1352.01 312.802C1352.01 314.371 1351.55 315.904 1350.68 317.209C1349.8 318.513 1348.57 319.53 1347.12 320.13C1345.67 320.73 1344.07 320.888 1342.53 320.582C1341 320.275 1339.58 319.52 1338.47 318.411C1337.36 317.301 1336.61 315.888 1336.3 314.349C1336 312.811 1336.15 311.216 1336.75 309.766C1337.35 308.317 1338.37 307.078 1339.67 306.207C1340.98 305.335 1342.51 304.87 1344.08 304.87C1346.18 304.87 1348.2 305.706 1349.69 307.193C1351.18 308.681 1352.01 310.698 1352.01 312.802Z" fill="url(#paint36_linear_201_26)"/>
<path d="M1238.2 646.992V765.73" stroke="url(#paint37_linear_201_26)" stroke-miterlimit="10"/>
<path d="M1305.17 586.093V704.831" stroke="url(#paint38_linear_201_26)" stroke-miterlimit="10"/>
<path d="M1439.08 520.528V639.284" stroke="url(#paint39_linear_201_26)" stroke-miterlimit="10"/>
<path d="M1506.24 267.953V386.691" stroke="url(#paint40_linear_201_26)" stroke-miterlimit="10"/>
<path d="M1572 414.761V578.646" stroke="url(#paint41_linear_201_26)" stroke-width="1.17" stroke-miterlimit="10"/>
<path d="M1640.34 377.135V541.02" stroke="url(#paint42_linear_201_26)" stroke-width="1.17" stroke-miterlimit="10"/>
<path d="M1706.96 484.675V648.56" stroke="url(#paint43_linear_201_26)" stroke-width="1.17" stroke-miterlimit="10"/>
<path d="M1840.53 363.38V527.265" stroke="url(#paint44_linear_201_26)" stroke-width="1.17" stroke-miterlimit="10"/>
<path d="M1248.46 704.831H1227.96V768.754H1248.46V704.831Z" fill="url(#paint45_linear_201_26)"/>
<path d="M1315.42 623.01H1294.91V686.933H1315.42V623.01Z" fill="url(#paint46_linear_201_26)"/>
<path d="M1382.17 484.115H1361.66V639.21H1382.17V484.115Z" fill="url(#paint47_linear_201_26)"/>
<path d="M1449.33 477.639H1428.82V541.002H1449.33V477.639Z" fill="url(#paint48_linear_201_26)"/>
<path d="M1516.51 348.804H1496V511.327H1516.51V348.804Z" fill="url(#paint49_linear_201_26)"/>
<path d="M1582.27 520.714H1561.76V603.711H1582.27V520.714Z" fill="url(#paint50_linear_201_26)"/>
<path d="M1650.58 513.436H1630.07V635.495H1650.58V513.436Z" fill="url(#paint51_linear_201_26)"/>
<path d="M1717.2 396.377H1696.69V558.919H1717.2V396.377Z" fill="url(#paint52_linear_201_26)"/>
<path d="M1851.76 272.395H1831.25V434.937H1851.76V272.395Z" fill="url(#paint53_linear_201_26)"/>
<defs>
<linearGradient id="paint0_linear_201_26" x1="10633.6" y1="761.197" x2="10619.2" y2="1392.61" gradientUnits="userSpaceOnUse">
<stop stop-color="#FA3364"/>
<stop offset="1" stop-color="#343BFF"/>
</linearGradient>
<linearGradient id="paint1_linear_201_26" x1="838.899" y1="636.904" x2="833.737" y2="686.549" gradientUnits="userSpaceOnUse">
<stop stop-color="#FA3364"/>
<stop offset="1" stop-color="#343BFF"/>
</linearGradient>
<linearGradient id="paint2_linear_201_26" x1="872.779" y1="621.556" x2="872.319" y2="634.653" gradientUnits="userSpaceOnUse">
<stop stop-color="#FA3364"/>
<stop offset="1" stop-color="#343BFF"/>
</linearGradient>
<linearGradient id="paint3_linear_201_26" x1="729.187" y1="989.117" x2="728.726" y2="1002.21" gradientUnits="userSpaceOnUse">
<stop stop-color="#FA3364"/>
<stop offset="1" stop-color="#343BFF"/>
</linearGradient>
<linearGradient id="paint4_linear_201_26" x1="271.739" y1="809.312" x2="271.279" y2="822.409" gradientUnits="userSpaceOnUse">
<stop stop-color="#FA3364"/>
<stop offset="1" stop-color="#343BFF"/>
</linearGradient>
<linearGradient id="paint5_linear_201_26" x1="-nan" y1="-nan" x2="-nan" y2="-nan" gradientUnits="userSpaceOnUse">
<stop stop-color="#BB33FA"/>
<stop offset="1" stop-color="#34FFFF"/>
</linearGradient>
<linearGradient id="paint6_linear_201_26" x1="-nan" y1="-nan" x2="-nan" y2="-nan" gradientUnits="userSpaceOnUse">
<stop stop-color="#BB33FA"/>
<stop offset="1" stop-color="#34FFFF"/>
</linearGradient>
<linearGradient id="paint7_linear_201_26" x1="-nan" y1="-nan" x2="-nan" y2="-nan" gradientUnits="userSpaceOnUse">
<stop stop-color="#BB33FA"/>
<stop offset="1" stop-color="#34FFFF"/>
</linearGradient>
<linearGradient id="paint8_linear_201_26" x1="-nan" y1="-nan" x2="-nan" y2="-nan" gradientUnits="userSpaceOnUse">
<stop stop-color="#BB33FA"/>
<stop offset="1" stop-color="#34FFFF"/>
</linearGradient>
<linearGradient id="paint9_linear_201_26" x1="-nan" y1="-nan" x2="-nan" y2="-nan" gradientUnits="userSpaceOnUse">
<stop stop-color="#BB33FA"/>
<stop offset="1" stop-color="#34FFFF"/>
</linearGradient>
<linearGradient id="paint10_linear_201_26" x1="-nan" y1="-nan" x2="-nan" y2="-nan" gradientUnits="userSpaceOnUse">
<stop stop-color="#BB33FA"/>
<stop offset="1" stop-color="#34FFFF"/>
</linearGradient>
<linearGradient id="paint11_linear_201_26" x1="-nan" y1="-nan" x2="-nan" y2="-nan" gradientUnits="userSpaceOnUse">
<stop stop-color="#BB33FA"/>
<stop offset="1" stop-color="#34FFFF"/>
</linearGradient>
<linearGradient id="paint12_linear_201_26" x1="-nan" y1="-nan" x2="-nan" y2="-nan" gradientUnits="userSpaceOnUse">
<stop stop-color="#BB33FA"/>
<stop offset="1" stop-color="#34FFFF"/>
</linearGradient>
<linearGradient id="paint13_linear_201_26" x1="-nan" y1="-nan" x2="-nan" y2="-nan" gradientUnits="userSpaceOnUse">
<stop stop-color="#BB33FA"/>
<stop offset="1" stop-color="#34FFFF"/>
</linearGradient>
<linearGradient id="paint14_linear_201_26" x1="-nan" y1="-nan" x2="-nan" y2="-nan" gradientUnits="userSpaceOnUse">
<stop stop-color="#BB33FA"/>
<stop offset="1" stop-color="#34FFFF"/>
</linearGradient>
<linearGradient id="paint15_linear_201_26" x1="-nan" y1="-nan" x2="-nan" y2="-nan" gradientUnits="userSpaceOnUse">
<stop stop-color="#BB33FA"/>
<stop offset="1" stop-color="#34FFFF"/>
</linearGradient>
<linearGradient id="paint16_linear_201_26" x1="-nan" y1="-nan" x2="-nan" y2="-nan" gradientUnits="userSpaceOnUse">
<stop stop-color="#BB33FA"/>
<stop offset="1" stop-color="#34FFFF"/>
</linearGradient>
<linearGradient id="paint17_linear_201_26" x1="-nan" y1="-nan" x2="-nan" y2="-nan" gradientUnits="userSpaceOnUse">
<stop stop-color="#BB33FA"/>
<stop offset="1" stop-color="#34FFFF"/>
</linearGradient>
<linearGradient id="paint18_linear_201_26" x1="205.314" y1="1225.76" x2="199.599" y2="1277.97" gradientUnits="userSpaceOnUse">
<stop stop-color="#FA3364"/>
<stop offset="1" stop-color="#343BFF"/>
</linearGradient>
<linearGradient id="paint19_linear_201_26" x1="272.269" y1="1143.94" x2="266.553" y2="1196.15" gradientUnits="userSpaceOnUse">
<stop stop-color="#FA3364"/>
<stop offset="1" stop-color="#343BFF"/>
</linearGradient>
<linearGradient id="paint20_linear_201_26" x1="339.018" y1="1036.32" x2="307.211" y2="1156.07" gradientUnits="userSpaceOnUse">
<stop stop-color="#FA3364"/>
<stop offset="1" stop-color="#343BFF"/>
</linearGradient>
<linearGradient id="paint21_linear_201_26" x1="406.177" y1="998.375" x2="400.56" y2="1050.14" gradientUnits="userSpaceOnUse">
<stop stop-color="#FA3364"/>
<stop offset="1" stop-color="#343BFF"/>
</linearGradient>
<linearGradient id="paint22_linear_201_26" x1="473.356" y1="903.558" x2="438.655" y2="1028.23" gradientUnits="userSpaceOnUse">
<stop stop-color="#FA3364"/>
<stop offset="1" stop-color="#343BFF"/>
</linearGradient>
<linearGradient id="paint23_linear_201_26" x1="539.115" y1="1048.19" x2="529.557" y2="1115.43" gradientUnits="userSpaceOnUse">
<stop stop-color="#FA3364"/>
<stop offset="1" stop-color="#343BFF"/>
</linearGradient>
<linearGradient id="paint24_linear_201_26" x1="607.433" y1="1054.31" x2="587.226" y2="1150.97" gradientUnits="userSpaceOnUse">
<stop stop-color="#FA3364"/>
<stop offset="1" stop-color="#343BFF"/>
</linearGradient>
<linearGradient id="paint25_linear_201_26" x1="674.05" y1="951.137" x2="639.341" y2="1075.82" gradientUnits="userSpaceOnUse">
<stop stop-color="#FA3364"/>
<stop offset="1" stop-color="#343BFF"/>
</linearGradient>
<linearGradient id="paint26_linear_201_26" x1="808.612" y1="827.155" x2="773.903" y2="951.841" gradientUnits="userSpaceOnUse">
<stop stop-color="#FA3364"/>
<stop offset="1" stop-color="#343BFF"/>
</linearGradient>
<linearGradient id="paint27_linear_201_26" x1="942.503" y1="753.906" x2="937.341" y2="803.551" gradientUnits="userSpaceOnUse">
<stop stop-color="#FA3364"/>
<stop offset="1" stop-color="#343BFF"/>
</linearGradient>
<linearGradient id="paint28_linear_201_26" x1="1008.82" y1="775.195" x2="974.115" y2="899.882" gradientUnits="userSpaceOnUse">
<stop stop-color="#FA3364"/>
<stop offset="1" stop-color="#343BFF"/>
</linearGradient>
<linearGradient id="paint29_linear_201_26" x1="1074.81" y1="954.764" x2="1069.65" y2="1004.41" gradientUnits="userSpaceOnUse">
<stop stop-color="#FA3364"/>
<stop offset="1" stop-color="#343BFF"/>
</linearGradient>
<linearGradient id="paint30_linear_201_26" x1="1142.71" y1="765.225" x2="1038.67" y2="963.69" gradientUnits="userSpaceOnUse">
<stop stop-color="#FA3364"/>
<stop offset="1" stop-color="#343BFF"/>
</linearGradient>
<linearGradient id="paint31_linear_201_26" x1="1275.33" y1="803.749" x2="1247.73" y2="915.825" gradientUnits="userSpaceOnUse">
<stop stop-color="#FA3364"/>
<stop offset="1" stop-color="#343BFF"/>
</linearGradient>
<linearGradient id="paint32_linear_201_26" x1="11840.6" y1="262.197" x2="11826.2" y2="893.613" gradientUnits="userSpaceOnUse">
<stop stop-color="#FA3364"/>
<stop offset="1" stop-color="#343BFF"/>
</linearGradient>
<linearGradient id="paint33_linear_201_26" x1="2045.9" y1="137.904" x2="2040.74" y2="187.549" gradientUnits="userSpaceOnUse">
<stop stop-color="#FA3364"/>
<stop offset="1" stop-color="#343BFF"/>
</linearGradient>
<linearGradient id="paint34_linear_201_26" x1="1684.79" y1="78.5288" x2="1684.33" y2="91.6251" gradientUnits="userSpaceOnUse">
<stop stop-color="#FA3364"/>
<stop offset="1" stop-color="#343BFF"/>
</linearGradient>
<linearGradient id="paint35_linear_201_26" x1="1936.19" y1="490.117" x2="1935.73" y2="503.213" gradientUnits="userSpaceOnUse">
<stop stop-color="#FA3364"/>
<stop offset="1" stop-color="#343BFF"/>
</linearGradient>
<linearGradient id="paint36_linear_201_26" x1="1478.74" y1="310.312" x2="1478.28" y2="323.408" gradientUnits="userSpaceOnUse">
<stop stop-color="#FA3364"/>
<stop offset="1" stop-color="#343BFF"/>
</linearGradient>
<linearGradient id="paint37_linear_201_26" x1="-nan" y1="-nan" x2="-nan" y2="-nan" gradientUnits="userSpaceOnUse">
<stop stop-color="#BB33FA"/>
<stop offset="1" stop-color="#34FFFF"/>
</linearGradient>
<linearGradient id="paint38_linear_201_26" x1="-nan" y1="-nan" x2="-nan" y2="-nan" gradientUnits="userSpaceOnUse">
<stop stop-color="#BB33FA"/>
<stop offset="1" stop-color="#34FFFF"/>
</linearGradient>
<linearGradient id="paint39_linear_201_26" x1="-nan" y1="-nan" x2="-nan" y2="-nan" gradientUnits="userSpaceOnUse">
<stop stop-color="#BB33FA"/>
<stop offset="1" stop-color="#34FFFF"/>
</linearGradient>
<linearGradient id="paint40_linear_201_26" x1="-nan" y1="-nan" x2="-nan" y2="-nan" gradientUnits="userSpaceOnUse">
<stop stop-color="#BB33FA"/>
<stop offset="1" stop-color="#34FFFF"/>
</linearGradient>
<linearGradient id="paint41_linear_201_26" x1="-nan" y1="-nan" x2="-nan" y2="-nan" gradientUnits="userSpaceOnUse">
<stop stop-color="#BB33FA"/>
<stop offset="1" stop-color="#34FFFF"/>
</linearGradient>
<linearGradient id="paint42_linear_201_26" x1="-nan" y1="-nan" x2="-nan" y2="-nan" gradientUnits="userSpaceOnUse">
<stop stop-color="#BB33FA"/>
<stop offset="1" stop-color="#34FFFF"/>
</linearGradient>
<linearGradient id="paint43_linear_201_26" x1="-nan" y1="-nan" x2="-nan" y2="-nan" gradientUnits="userSpaceOnUse">
<stop stop-color="#BB33FA"/>
<stop offset="1" stop-color="#34FFFF"/>
</linearGradient>
<linearGradient id="paint44_linear_201_26" x1="-nan" y1="-nan" x2="-nan" y2="-nan" gradientUnits="userSpaceOnUse">
<stop stop-color="#BB33FA"/>
<stop offset="1" stop-color="#34FFFF"/>
</linearGradient>
<linearGradient id="paint45_linear_201_26" x1="1412.31" y1="726.76" x2="1406.6" y2="778.969" gradientUnits="userSpaceOnUse">
<stop stop-color="#FA3364"/>
<stop offset="1" stop-color="#343BFF"/>
</linearGradient>
<linearGradient id="paint46_linear_201_26" x1="1479.27" y1="644.938" x2="1473.55" y2="697.148" gradientUnits="userSpaceOnUse">
<stop stop-color="#FA3364"/>
<stop offset="1" stop-color="#343BFF"/>
</linearGradient>
<linearGradient id="paint47_linear_201_26" x1="1546.02" y1="537.32" x2="1514.21" y2="657.065" gradientUnits="userSpaceOnUse">
<stop stop-color="#FA3364"/>
<stop offset="1" stop-color="#343BFF"/>
</linearGradient>
<linearGradient id="paint48_linear_201_26" x1="1613.18" y1="499.375" x2="1607.56" y2="551.138" gradientUnits="userSpaceOnUse">
<stop stop-color="#FA3364"/>
<stop offset="1" stop-color="#343BFF"/>
</linearGradient>
<linearGradient id="paint49_linear_201_26" x1="1680.36" y1="404.557" x2="1645.65" y2="529.231" gradientUnits="userSpaceOnUse">
<stop stop-color="#FA3364"/>
<stop offset="1" stop-color="#343BFF"/>
</linearGradient>
<linearGradient id="paint50_linear_201_26" x1="1746.12" y1="549.187" x2="1736.56" y2="616.429" gradientUnits="userSpaceOnUse">
<stop stop-color="#FA3364"/>
<stop offset="1" stop-color="#343BFF"/>
</linearGradient>
<linearGradient id="paint51_linear_201_26" x1="1814.43" y1="555.308" x2="1794.23" y2="651.973" gradientUnits="userSpaceOnUse">
<stop stop-color="#FA3364"/>
<stop offset="1" stop-color="#343BFF"/>
</linearGradient>
<linearGradient id="paint52_linear_201_26" x1="1881.05" y1="452.137" x2="1846.34" y2="576.824" gradientUnits="userSpaceOnUse">
<stop stop-color="#FA3364"/>
<stop offset="1" stop-color="#343BFF"/>
</linearGradient>
<linearGradient id="paint53_linear_201_26" x1="2015.61" y1="328.155" x2="1980.9" y2="452.841" gradientUnits="userSpaceOnUse">
<stop stop-color="#FA3364"/>
<stop offset="1" stop-color="#343BFF"/>
</linearGradient>
</defs>
</svg>
