<svg width="80" height="80" viewBox="0 0 80 80" fill="none" xmlns="http://www.w3.org/2000/svg">
<g clip-path="url(#clip0_8_1875)">
<path d="M66.939 26.8575C65.6334 25.5519 64.1224 24.5258 62.452 23.7692C58.0737 21.7864 54.6315 18.2369 52.6967 13.8372C49.1159 5.69454 40.9818 0.00719417 31.5176 6.66727e-06C19.1253 -0.00936833 8.83603 9.86923 8.36963 22.2528C8.1701 27.5531 9.75353 32.4748 12.5681 36.4667C16.1426 41.5367 17.0713 47.9952 15.2276 53.9183C12.6082 62.3334 13.5215 70.3086 18.5046 75.2919C27.2371 84.0244 45.1587 80.2613 58.5335 66.8864C71.9082 53.5116 75.6715 35.5902 66.939 26.8575Z" fill="url(#paint0_linear_8_1875)"/>
<path opacity="0.1" d="M74.1916 50.8384V46.3431C74.1916 45.9117 73.8418 45.5618 73.4104 45.5618H70.2923C70.0388 44.6354 69.6716 43.7567 69.2065 42.9403L71.411 40.735C71.716 40.4298 71.716 39.9353 71.4108 39.6303L68.2323 36.4517C67.9273 36.1467 67.4326 36.1465 67.1276 36.4515L64.9222 38.6561C64.1058 38.1911 63.2271 37.8239 62.3007 37.5703V34.4521C62.3007 34.0207 61.9508 33.6709 61.5194 33.6709H57.0241C56.5927 33.6709 56.2429 34.0207 56.2429 34.4521V37.5703C55.3165 37.8237 54.4377 38.1909 53.6213 38.6561L51.416 36.4515C51.1108 36.1465 50.6163 36.1465 50.3113 36.4517L47.1327 39.6303C46.8277 39.9353 46.8276 40.43 47.1326 40.735L49.3371 42.9403C48.8721 43.7567 48.5049 44.6356 48.2513 45.5618H45.1332C44.7018 45.5618 44.3519 45.9117 44.3519 46.3431V50.8384C44.3519 51.2698 44.7018 51.6197 45.1332 51.6197H48.2513C48.5047 52.5461 48.8719 53.4248 49.3371 54.2412L47.1326 56.4465C46.8276 56.7517 46.8276 57.2462 47.1327 57.5512L50.3113 60.7298C50.6163 61.0348 51.111 61.035 51.416 60.73L53.6213 58.5254C54.4377 58.9904 55.3166 59.3576 56.2429 59.6112V62.7293C56.2429 63.1607 56.5927 63.5106 57.0241 63.5106H61.5194C61.9508 63.5106 62.3007 63.1607 62.3007 62.7293V59.6112C63.2271 59.3578 64.1058 58.9906 64.9222 58.5254L67.1276 60.73C67.4327 61.035 67.9273 61.035 68.2323 60.7298L71.4108 57.5512C71.7158 57.2462 71.716 56.7515 71.411 56.4465L69.2065 54.2412C69.6715 53.4248 70.0387 52.5459 70.2923 51.6197H73.4104C73.8418 51.6197 74.1916 51.2698 74.1916 50.8384ZM59.2718 54.4501C56.0357 54.4501 53.4124 51.8268 53.4124 48.5907C53.4124 45.3546 56.0357 42.7314 59.2718 42.7314C62.5079 42.7314 65.1312 45.3546 65.1312 48.5907C65.1312 51.8268 62.5079 54.4501 59.2718 54.4501Z" fill="#0000CC"/>
<path opacity="0.1" d="M45.7527 67.3502V64.225C45.7527 63.7936 45.4029 63.4437 44.9715 63.4437H42.7352C42.5391 62.7269 42.2549 62.0469 41.8951 61.415L43.4762 59.8334C43.7812 59.5283 43.7812 59.0338 43.476 58.7288L41.2662 56.5189C40.9612 56.2139 40.4665 56.2138 40.1615 56.5188L38.5799 58.0998C37.9482 57.74 37.268 57.4558 36.5512 57.2597V55.0234C36.5512 54.592 36.2013 54.2422 35.7699 54.2422H32.6446C32.2132 54.2422 31.8633 54.592 31.8633 55.0234V57.2597C31.1465 57.4558 30.4665 57.74 29.8346 58.0998L28.253 56.5188C27.9479 56.2138 27.4533 56.2138 27.1483 56.5189L24.9383 58.7288C24.6333 59.0338 24.6332 59.5284 24.9382 59.8334L26.5193 61.415C26.1594 62.0467 25.8752 62.7269 25.6791 63.4437H23.4429C23.0115 63.4437 22.6616 63.7936 22.6616 64.225V67.3503C22.6616 67.7817 23.0115 68.1316 23.4429 68.1316H25.6791C25.8752 68.8484 26.1594 69.5284 26.5193 70.1603L24.9382 71.7419C24.6332 72.047 24.6332 72.5416 24.9383 72.8466L27.1483 75.0564C27.4533 75.3614 27.948 75.3616 28.253 75.0566L29.8346 73.4755C30.4663 73.8353 31.1465 74.1195 31.8633 74.3156V76.5519C31.8633 76.9833 32.2132 77.3331 32.6446 77.3331H35.7699C36.2013 77.3331 36.5512 76.9833 36.5512 76.5519V74.3156C37.268 74.1195 37.948 73.8353 38.5799 73.4755L40.1615 75.0566C40.4666 75.3616 40.9612 75.3616 41.2662 75.0564L43.476 72.8466C43.781 72.5416 43.7812 72.0469 43.4762 71.7419L41.8951 70.1603C42.2549 69.5286 42.5391 68.8484 42.7352 68.1316H44.9715C45.4029 68.1314 45.7527 67.7817 45.7527 67.3502ZM34.2071 70.4616C31.6257 70.4616 29.533 68.3689 29.533 65.7875C29.533 63.2061 31.6257 61.1134 34.2071 61.1134C36.7885 61.1134 38.8812 63.2061 38.8812 65.7875C38.8812 68.3689 36.7885 70.4616 34.2071 70.4616Z" fill="#0000CC"/>
<path opacity="0.1" d="M45.7042 34.3209V27.7842C45.7042 27.3528 45.3543 27.0029 44.9229 27.0029H40.4907C40.1518 25.7643 39.6609 24.5893 39.039 23.4978L42.1726 20.3631C42.4776 20.0579 42.4776 19.5634 42.1724 19.2584L37.5503 14.6362C37.2453 14.3312 36.7506 14.3311 36.4456 14.6361L33.3109 17.7696C32.2193 17.1479 31.0443 16.657 29.8057 16.3179V11.8857C29.8057 11.4543 29.4559 11.1045 29.0245 11.1045H22.4878C22.0564 11.1045 21.7065 11.4543 21.7065 11.8857V16.3179C20.4679 16.6568 19.2929 17.1478 18.2014 17.7696L15.0668 14.6361C14.7617 14.3311 14.2671 14.3311 13.9621 14.6362L9.33995 19.2584C9.03495 19.5634 9.03479 20.0581 9.33979 20.3631L12.4734 23.4978C11.8517 24.5893 11.3607 25.7643 11.0217 27.0029H6.58948C6.15807 27.0029 5.80823 27.3528 5.80823 27.7842V34.3209C5.80823 34.7523 6.15807 35.1021 6.58948 35.1021H11.0217C11.3606 36.3407 11.8515 37.5157 12.4734 38.6073L9.33979 41.742C9.03479 42.0472 9.03479 42.5417 9.33995 42.8467L13.9621 47.4689C14.2671 47.7739 14.7618 47.774 15.0668 47.469L18.2015 44.3354C19.2931 44.9572 20.4681 45.4481 21.7067 45.7872V50.2193C21.7067 50.6507 22.0565 51.0006 22.4879 51.0006H29.0246C29.456 51.0006 29.8059 50.6507 29.8059 50.2193V45.7872C31.0445 45.4482 32.2195 44.9573 33.311 44.3354L36.4457 47.469C36.7509 47.774 37.2454 47.774 37.5504 47.4689L42.1726 42.8467C42.4776 42.5417 42.4778 42.047 42.1728 41.742L39.0392 38.6073C39.6609 37.5157 40.1518 36.3407 40.4909 35.1021H44.9231C45.3543 35.1021 45.7042 34.7523 45.7042 34.3209ZM25.7562 39.8912C20.8746 39.8912 16.9174 35.934 16.9174 31.0525C16.9174 26.1709 20.8746 22.2137 25.7562 22.2137C30.6378 22.2137 34.5949 26.1709 34.5949 31.0525C34.5949 35.934 30.6378 39.8912 25.7562 39.8912Z" fill="#0000CC"/>
<path d="M74.1916 46.6197V42.1243C74.1916 41.6929 73.8418 41.3431 73.4104 41.3431H70.2923C70.0388 40.4167 69.6716 39.5379 69.2065 38.7215L71.411 36.5162C71.716 36.2111 71.716 35.7165 71.4108 35.4115L68.2323 32.2329C67.9273 31.9279 67.4326 31.9278 67.1276 32.2328L64.9222 34.4373C64.1058 33.9723 63.2271 33.6051 62.3007 33.3515V30.2334C62.3007 29.802 61.9508 29.4521 61.5194 29.4521H57.0241C56.5927 29.4521 56.2429 29.802 56.2429 30.2334V33.3515C55.3165 33.605 54.4377 33.9721 53.6213 34.4373L51.416 32.2328C51.1108 31.9278 50.6163 31.9278 50.3113 32.2329L47.1327 35.4115C46.8277 35.7165 46.8276 36.2112 47.1326 36.5162L49.3371 38.7215C48.8721 39.5379 48.5049 40.4168 48.2513 41.3431H45.1332C44.7018 41.3431 44.3519 41.6929 44.3519 42.1243V46.6197C44.3519 47.0511 44.7018 47.4009 45.1332 47.4009H48.2513C48.5047 48.3273 48.8719 49.2061 49.3371 50.0225L47.1326 52.2278C46.8276 52.5329 46.8276 53.0275 47.1327 53.3325L50.3113 56.5111C50.6163 56.8161 51.111 56.8162 51.416 56.5112L53.6213 54.3067C54.4377 54.7717 55.3166 55.1389 56.2429 55.3925V58.5106C56.2429 58.942 56.5927 59.2918 57.0241 59.2918H61.5194C61.9508 59.2918 62.3007 58.942 62.3007 58.5106V55.3925C63.2271 55.139 64.1058 54.7718 64.9222 54.3067L67.1276 56.5112C67.4327 56.8162 67.9273 56.8162 68.2323 56.5111L71.4108 53.3325C71.7158 53.0275 71.716 52.5328 71.411 52.2278L69.2065 50.0225C69.6715 49.2061 70.0387 48.3272 70.2923 47.4009H73.4104C73.8418 47.4009 74.1916 47.0511 74.1916 46.6197ZM59.2718 50.2314C56.0357 50.2314 53.4124 47.6081 53.4124 44.372C53.4124 41.1359 56.0357 38.5126 59.2718 38.5126C62.5079 38.5126 65.1312 41.1359 65.1312 44.372C65.1312 47.6081 62.5079 50.2314 59.2718 50.2314Z" fill="#FF9D33"/>
<path d="M61.5194 60.0729H57.0241C56.1626 60.0729 55.4616 59.372 55.4616 58.5104V55.9731C54.8791 55.782 54.311 55.5467 53.763 55.2695L51.9683 57.0635C51.6732 57.3585 51.281 57.521 50.8637 57.521H50.8635C50.4462 57.521 50.0536 57.3584 49.7586 57.0631L46.5802 53.8846C46.2852 53.5896 46.1226 53.1975 46.1226 52.78C46.1226 52.3626 46.2851 51.9703 46.5801 51.6753L48.3741 49.8806C48.0969 49.3326 47.8616 48.7645 47.6705 48.1821H45.1332C44.2716 48.1821 43.5707 47.4812 43.5707 46.6196V42.1243C43.5707 41.2628 44.2716 40.5618 45.1332 40.5618H47.6705C47.8615 39.9793 48.0969 39.4112 48.3741 38.8632L46.5801 37.0686C45.9711 36.4596 45.9711 35.4684 46.5801 34.859L49.7588 31.6804C50.368 31.0711 51.3593 31.0714 51.9683 31.6801L53.763 33.4743C54.311 33.197 54.8791 32.9617 55.4616 32.7706V30.2334C55.4616 29.3718 56.1626 28.6709 57.0241 28.6709H61.5194C62.381 28.6709 63.0819 29.3718 63.0819 30.2334V32.7706C63.6644 32.9617 64.2324 33.197 64.7805 33.4743L66.5752 31.6801C67.1846 31.0712 68.1758 31.0714 68.7847 31.6804L71.9633 34.859C72.5724 35.4682 72.5724 36.4595 71.9633 37.0686L70.1693 38.8632C70.4465 39.4112 70.6819 39.9795 70.8729 40.5618H73.4102C74.2718 40.5618 74.9727 41.2628 74.9727 42.1243V46.6196C74.9727 47.4812 74.2718 48.1821 73.4102 48.1821H70.8729C70.6818 48.7648 70.4465 49.3326 70.1693 49.8806L71.9633 51.6753C72.2583 51.9704 72.4208 52.3626 72.4208 52.78C72.4208 53.1975 72.2582 53.5898 71.9632 53.8848L68.7846 57.0632C68.4896 57.3584 68.0972 57.521 67.6799 57.521C67.2626 57.521 66.8702 57.3587 66.5751 57.0635L64.7804 55.2695C64.2326 55.5467 63.6644 55.782 63.0818 55.9731V58.5104C63.0819 59.372 62.381 60.0729 61.5194 60.0729ZM53.6215 53.5254C53.7538 53.5254 53.8869 53.559 54.008 53.6278C54.7769 54.0659 55.5982 54.4059 56.4491 54.6389C56.7887 54.7317 57.0243 55.0403 57.0243 55.3923V58.5104H61.5196V55.3923C61.5196 55.0403 61.7551 54.7315 62.0947 54.6387C62.9457 54.406 63.7669 54.0659 64.5358 53.6278C64.8418 53.454 65.226 53.5053 65.4749 53.7542L67.6802 55.9585L70.8588 52.78L68.6543 50.5746C68.4055 50.3257 68.3538 49.9412 68.528 49.6354C68.966 48.8667 69.3062 48.0454 69.5391 47.1945C69.6321 46.855 69.9407 46.6195 70.2927 46.6195H73.4108V42.1242H70.2927C69.9407 42.1242 69.6321 41.8887 69.5391 41.549C69.3063 40.6984 68.9662 39.877 68.528 39.1078C68.354 38.802 68.4055 38.4176 68.6544 38.1687L70.859 35.9636L67.6804 32.785L65.4752 34.9895C65.2263 35.2382 64.8416 35.2896 64.5362 35.1159C63.7671 34.6776 62.9457 34.3376 62.0951 34.1048C61.7555 34.0118 61.5199 33.7032 61.5199 33.3512V30.2332H57.0246V33.3512C57.0246 33.7032 56.7891 34.012 56.4494 34.1046C55.599 34.3375 54.7776 34.6776 54.0083 35.1159C53.7026 35.29 53.3182 35.2382 53.0693 34.9895L50.8641 32.785L47.6855 35.9636L49.8899 38.1687C50.1386 38.4176 50.1904 38.802 50.0163 39.1078C49.5782 39.877 49.238 40.6984 49.0052 41.549C48.9122 41.8887 48.6038 42.1242 48.2516 42.1242H45.1335V46.6195H48.2516C48.6037 46.6195 48.9122 46.855 49.0052 47.1945C49.238 48.0453 49.5782 48.8667 50.0163 49.6356C50.1904 49.9412 50.1388 50.3257 49.8899 50.5746L47.6855 52.78L50.8641 55.9585L53.0693 53.7542C53.2193 53.6039 53.4193 53.5254 53.6215 53.5254ZM59.2718 51.0126C55.6101 51.0126 52.6312 48.0337 52.6312 44.372C52.6312 40.7103 55.6101 37.7314 59.2718 37.7314C62.9335 37.7314 65.9124 40.7103 65.9124 44.372C65.9124 45.044 65.8121 45.7075 65.6144 46.344C65.4865 46.7561 65.0487 46.9868 64.6366 46.8584C64.2246 46.7304 63.9943 46.2926 64.1222 45.8804C64.2732 45.3943 64.3499 44.8867 64.3499 44.372C64.3499 41.5718 62.0718 39.2939 59.2718 39.2939C56.4718 39.2939 54.1937 41.5718 54.1937 44.372C54.1937 47.1721 56.4718 49.4501 59.2718 49.4501C59.8294 49.4501 60.3804 49.3587 60.9093 49.1787C61.3174 49.039 61.7616 49.2578 61.9007 49.6662C62.0397 50.0746 61.8215 50.5185 61.413 50.6578C60.7216 50.8931 60.0012 51.0126 59.2718 51.0126Z" fill="#0000CC"/>
<path d="M45.753 63.1314V60.0063C45.753 59.5749 45.4031 59.225 44.9717 59.225H42.7355C42.5394 58.5081 42.2551 57.8281 41.8953 57.1963L43.4764 55.6147C43.7814 55.3095 43.7814 54.815 43.4762 54.51L41.2664 52.3002C40.9614 51.9952 40.4667 51.995 40.1617 52.3L38.5801 53.8811C37.9484 53.5213 37.2683 53.237 36.5514 53.0409V50.8047C36.5514 50.3733 36.2015 50.0234 35.7701 50.0234H32.6448C32.2134 50.0234 31.8636 50.3733 31.8636 50.8047V53.0409C31.1467 53.237 30.4667 53.5213 29.8348 53.8811L28.2533 52.3C27.9481 51.995 27.4536 51.995 27.1486 52.3002L24.9386 54.51C24.6336 54.815 24.6334 55.3097 24.9384 55.6147L26.5195 57.1963C26.1597 57.828 25.8755 58.5081 25.6794 59.225H23.4431C23.0117 59.225 22.6619 59.5749 22.6619 60.0063V63.1316C22.6619 63.563 23.0117 63.9128 23.4431 63.9128H25.6794C25.8755 64.6297 26.1597 65.3097 26.5195 65.9416L24.9384 67.5231C24.6334 67.8283 24.6334 68.3228 24.9386 68.6278L27.1486 70.8377C27.4536 71.1427 27.9483 71.1428 28.2533 70.8378L29.8348 69.2567C30.4666 69.6166 31.1467 69.9008 31.8636 70.0969V72.3331C31.8636 72.7645 32.2134 73.1144 32.6448 73.1144H35.7701C36.2015 73.1144 36.5514 72.7645 36.5514 72.3331V70.0969C37.2683 69.9008 37.9483 69.6166 38.5801 69.2567L40.1617 70.8378C40.4669 71.1428 40.9614 71.1428 41.2664 70.8377L43.4762 68.6278C43.7812 68.3228 43.7814 67.8281 43.4764 67.5231L41.8953 65.9416C42.2551 65.3099 42.5394 64.6297 42.7355 63.9128H44.9717C45.4031 63.9127 45.753 63.563 45.753 63.1314ZM34.2073 66.2428C31.6259 66.2428 29.5333 64.1502 29.5333 61.5688C29.5333 58.9874 31.6259 56.8947 34.2073 56.8947C36.7887 56.8947 38.8814 58.9874 38.8814 61.5688C38.8814 64.1502 36.7887 66.2428 34.2073 66.2428Z" fill="#6C6CFF"/>
<path d="M35.7699 73.8959H32.6446C31.7831 73.8959 31.0821 73.195 31.0821 72.3334V70.6737C30.7057 70.5447 30.3373 70.392 29.9795 70.217L28.8054 71.3906C28.1963 71.9997 27.2051 71.9998 26.5959 71.3905L24.3859 69.1805C23.777 68.5714 23.7768 67.5803 24.3856 66.9709L25.5593 65.7967C25.3842 65.4389 25.2317 65.0706 25.1026 64.6941H23.4427C22.5812 64.6941 21.8802 63.9931 21.8802 63.1316V60.0066C21.8802 59.145 22.5812 58.4441 23.4427 58.4441H25.1026C25.2317 58.0677 25.3842 57.6992 25.5593 57.3412L24.3856 56.1672C23.7765 55.558 23.7767 54.5667 24.3859 53.9575L26.5957 51.7477C27.2048 51.1386 28.196 51.1384 28.8052 51.7475L29.9793 52.9211C30.3374 52.7459 30.7056 52.5933 31.082 52.4644V50.8047C31.082 49.9431 31.7829 49.2422 32.6445 49.2422H35.7698C36.6313 49.2422 37.3323 49.9431 37.3323 50.8047V52.4644C37.7085 52.5933 38.0768 52.7459 38.4349 52.9211L39.609 51.7475C40.2181 51.1386 41.2093 51.1386 41.8185 51.7475L44.0285 53.9577C44.6377 54.5666 44.6377 55.5578 44.0287 56.1672L42.8549 57.3412C43.0301 57.6992 43.1827 58.0675 43.3116 58.4441H44.9715C45.833 58.4441 46.534 59.145 46.534 60.0066V63.1317C46.534 63.9933 45.833 64.6942 44.9715 64.6942H43.3116C43.1826 65.0706 43.0301 65.4391 42.8549 65.7969L44.0285 66.9709C44.6374 67.5803 44.6373 68.5714 44.0284 69.1806L41.8184 71.3906C41.2091 71.9997 40.2179 71.9995 39.6087 71.3908L38.4346 70.2172C38.0768 70.3922 37.7084 70.5448 37.332 70.6739V72.3336C37.3324 73.1948 36.6315 73.8959 35.7699 73.8959ZM29.8349 68.4758C29.9673 68.4758 30.1004 68.5094 30.2213 68.5781C30.8035 68.9097 31.4254 69.1673 32.0696 69.3436C32.4092 69.4366 32.6446 69.745 32.6446 70.097V72.3333H35.7699V70.0972C35.7699 69.7451 36.0054 69.4366 36.3449 69.3437C36.9893 69.1673 37.6112 68.9098 38.1932 68.5783C38.499 68.4045 38.8834 68.4558 39.1321 68.7047L40.7137 70.2856L42.9237 68.0758L41.3427 66.4941C41.094 66.2451 41.0423 65.8606 41.2165 65.555C41.5481 64.9728 41.8057 64.3511 41.9818 63.7069C42.0748 63.3672 42.3832 63.1317 42.7354 63.1317H44.9716V60.0066H42.7354C42.3834 60.0066 42.0748 59.7711 41.9818 59.4314C41.8056 58.7873 41.5481 58.1653 41.2163 57.5831C41.0423 57.2773 41.094 56.893 41.3427 56.6441L42.9238 55.0625L40.7138 52.8525L39.1321 54.4336C38.8834 54.6823 38.499 54.7341 38.1932 54.56C37.6106 54.2281 36.9888 53.9706 36.3451 53.7947C36.0056 53.7017 35.7699 53.3931 35.7699 53.0411V50.8048H32.6446V53.0411C32.6446 53.3931 32.4092 53.7019 32.0695 53.7947C31.4257 53.9706 30.804 54.2281 30.2213 54.56C29.9157 54.7341 29.5312 54.6827 29.2824 54.4336L27.7009 52.8527L25.4909 55.0625L27.0718 56.6441C27.3206 56.893 27.3723 57.2773 27.1982 57.5831C26.8665 58.1655 26.609 58.7873 26.4327 59.4314C26.3398 59.7711 26.0313 60.0066 25.6792 60.0066H23.4429V63.1317H25.6792C26.0312 63.1317 26.3398 63.3672 26.4327 63.7069C26.609 64.3511 26.8665 64.973 27.1981 65.555C27.3723 65.8606 27.3206 66.2451 27.0718 66.4941L25.4907 68.0756L27.7007 70.2858L29.2823 68.7047C29.4329 68.5542 29.6327 68.4758 29.8349 68.4758ZM34.2073 67.0244C31.1993 67.0244 28.752 64.5772 28.752 61.5691C28.752 58.5611 31.1992 56.1139 34.2073 56.1139C37.2154 56.1139 39.6626 58.5611 39.6626 61.5691C39.6626 64.5772 37.2154 67.0244 34.2073 67.0244ZM34.2073 57.6764C32.0609 57.6764 30.3145 59.4227 30.3145 61.5691C30.3145 63.7155 32.0607 65.4619 34.2073 65.4619C36.3538 65.4619 38.1001 63.7155 38.1001 61.5691C38.1001 59.4227 36.3538 57.6764 34.2073 57.6764Z" fill="#0000CC"/>
<path d="M45.7042 30.1021V23.5654C45.7042 23.134 45.3543 22.7842 44.9229 22.7842H40.4907C40.1518 21.5456 39.6609 20.3706 39.039 19.279L42.1726 16.1443C42.4776 15.8392 42.4776 15.3446 42.1724 15.0396L37.5503 10.4175C37.2453 10.1125 36.7506 10.1123 36.4456 10.4173L33.3109 13.5509C32.2193 12.9292 31.0443 12.4382 29.8057 12.0992V7.66699C29.8057 7.23559 29.4559 6.88574 29.0245 6.88574H22.4878C22.0564 6.88574 21.7065 7.23559 21.7065 7.66699V12.0992C20.4679 12.4381 19.2929 12.929 18.2014 13.5509L15.0668 10.4173C14.7617 10.1123 14.2671 10.1123 13.9621 10.4175L9.33995 15.0395C9.03495 15.3445 9.03479 15.8392 9.33979 16.1442L12.4734 19.2789C11.8517 20.3704 11.3607 21.5454 11.0217 22.784H6.58948C6.15807 22.784 5.80823 23.1339 5.80823 23.5653V30.102C5.80823 30.5334 6.15807 30.8832 6.58948 30.8832H11.0217C11.3606 32.1218 11.8515 33.2968 12.4734 34.3884L9.33979 37.5231C9.03479 37.8282 9.03479 38.3228 9.33995 38.6278L13.9621 43.25C14.2671 43.555 14.7618 43.5551 15.0668 43.2501L18.2015 40.1165C19.2931 40.7382 20.4681 41.2292 21.7067 41.5682V46.0004C21.7067 46.4318 22.0565 46.7817 22.4879 46.7817H29.0246C29.456 46.7817 29.8059 46.4318 29.8059 46.0004V41.5682C31.0445 41.2293 32.2195 40.7384 33.311 40.1165L36.4457 43.2501C36.7509 43.5551 37.2454 43.5551 37.5504 43.25L42.1726 38.6278C42.4776 38.3228 42.4778 37.8281 42.1728 37.5231L39.0392 34.3884C39.6609 33.2968 40.1518 32.1218 40.4909 30.8832H44.9231C45.3543 30.8834 45.7042 30.5336 45.7042 30.1021ZM25.7562 35.6725C20.8746 35.6725 16.9174 31.7153 16.9174 26.8337C16.9174 21.9521 20.8746 17.995 25.7562 17.995C30.6378 17.995 34.5949 21.9521 34.5949 26.8337C34.5949 31.7153 30.6378 35.6725 25.7562 35.6725Z" fill="#FF6C6C"/>
<path d="M29.0246 47.5628H22.4879C21.6264 47.5628 20.9254 46.8618 20.9254 46.0003V42.1525C20.0354 41.8725 19.1699 41.5139 18.3407 41.0818L15.6193 43.8025C15.0101 44.4115 14.0187 44.4115 13.4096 43.8022L8.78745 39.1801C8.17838 38.5714 8.17823 37.5801 8.78729 36.9707L11.5079 34.2493C11.0759 33.42 10.7173 32.5543 10.4373 31.6645H6.58948C5.72792 31.6645 5.02698 30.9636 5.02698 30.102V23.5653C5.02698 22.7037 5.72792 22.0028 6.58948 22.0028H10.4371C10.7171 21.1128 11.0757 20.2473 11.5078 19.4181L8.78713 16.6965C8.17823 16.0876 8.17823 15.0964 8.78713 14.487L13.4093 9.86496C14.0185 9.25605 15.0098 9.2559 15.619 9.86465L18.3404 12.5853C19.1695 12.1532 20.0349 11.7946 20.9251 11.5146V7.66699C20.9251 6.80543 21.626 6.10449 22.4876 6.10449H29.0243C29.8859 6.10449 30.5868 6.80543 30.5868 7.66699V11.5148C31.4768 11.7948 32.3423 12.1534 33.1715 12.5853L35.8929 9.8648C36.5023 9.2559 37.4935 9.25605 38.1025 9.86512L42.7246 14.4871C43.3337 15.0965 43.3337 16.0876 42.7246 16.6967L40.0042 19.4182C40.4362 20.2475 40.7948 21.1129 41.0748 22.0029H44.9225C45.784 22.0029 46.485 22.7039 46.485 23.5654V30.1021C46.485 30.9637 45.784 31.6646 44.9225 31.6646H41.0748C40.7948 32.5545 40.4362 33.4201 40.0042 34.2495L42.7248 36.9707C43.3337 37.58 43.3337 38.5712 42.7246 39.1803L38.1025 43.8025C37.8075 44.0976 37.4151 44.2603 36.9978 44.2603C36.5804 44.2603 36.1881 44.0979 35.8929 43.8028L33.1715 41.0821C32.3425 41.5142 31.477 41.8728 30.5868 42.1528V46.0006C30.5871 46.8618 29.8862 47.5628 29.0246 47.5628ZM18.2017 39.3353C18.334 39.3353 18.4671 39.3689 18.5882 39.4376C19.6354 40.0342 20.7539 40.4973 21.9128 40.8147C22.2523 40.9075 22.4878 41.2161 22.4878 41.5681V46.0003H29.0245V41.5681C29.0245 41.2161 29.26 40.9073 29.5995 40.8147C30.7584 40.4975 31.877 40.0343 32.924 39.4376C33.23 39.2639 33.6142 39.3153 33.8631 39.564L36.9978 42.6976L41.62 38.0754L38.4864 34.9409C38.2376 34.692 38.1859 34.3076 38.36 34.0018C38.9565 32.9545 39.4198 31.8359 39.737 30.6771C39.83 30.3375 40.1384 30.102 40.4906 30.102H44.9228V23.5653H40.4906C40.1385 23.5653 39.83 23.3298 39.737 22.9901C39.42 21.8314 38.9567 20.7128 38.3601 19.6656C38.1859 19.36 38.2376 18.9754 38.4864 18.7265L41.62 15.5917L36.9978 10.9696L33.8632 14.1032C33.6142 14.3518 33.2299 14.4034 32.9242 14.2296C31.877 13.6331 30.7585 13.17 29.5996 12.8526C29.2601 12.7598 29.0246 12.4512 29.0246 12.0992V7.66699H22.4879V12.0992C22.4879 12.4512 22.2524 12.76 21.9129 12.8526C20.754 13.1698 19.6354 13.6329 18.5884 14.2296C18.2828 14.4037 17.8982 14.3523 17.6493 14.1032L14.5145 10.9698L9.89245 15.5918L13.026 18.7267C13.2748 18.9756 13.3265 19.3601 13.1523 19.6657C12.5557 20.7129 12.0924 21.8315 11.7754 22.9903C11.6824 23.33 11.374 23.5654 11.0218 23.5654H6.58948V30.1021H11.0218C11.3739 30.1021 11.6824 30.3376 11.7754 30.6773C12.0924 31.8361 12.5557 32.9546 13.1524 34.002C13.3265 34.3078 13.2749 34.6921 13.026 34.9411L9.89245 38.0756L14.5146 42.6978L17.6493 39.5642C17.7995 39.4137 17.9995 39.3353 18.2017 39.3353ZM25.7562 36.4537C24.1424 36.4537 22.5451 36.0454 21.1368 35.2729C20.7585 35.0654 20.6199 34.5906 20.8276 34.2123C21.0353 33.834 21.5101 33.6953 21.8882 33.9031C23.067 34.5497 24.4045 34.8912 25.7564 34.8912C30.1993 34.8912 33.8139 31.2765 33.8139 26.8337C33.8139 22.3909 30.1993 18.7764 25.7564 18.7764C21.3134 18.7764 17.699 22.3909 17.699 26.8337C17.699 28.0865 17.9799 29.2886 18.5342 30.4064C18.7257 30.7929 18.5678 31.2617 18.1812 31.4532C17.7943 31.6446 17.3259 31.4868 17.1342 31.1003C16.4721 29.7648 16.1365 28.3293 16.1365 26.8336C16.1365 21.5292 20.452 17.2137 25.7564 17.2137C31.0609 17.2137 35.3764 21.5292 35.3764 26.8336C35.3762 32.1382 31.0607 36.4537 25.7562 36.4537Z" fill="#0000CC"/>
<path d="M59.2719 16.4541C58.1325 16.4541 57.2054 15.5271 57.2054 14.3877C57.2054 13.2483 58.1325 12.3213 59.2719 12.3213C60.4112 12.3213 61.3383 13.2483 61.3383 14.3877C61.3383 15.5271 60.4112 16.4541 59.2719 16.4541ZM59.2719 13.8838C58.994 13.8838 58.7679 14.1097 58.7679 14.3877C58.7679 14.6657 58.994 14.8916 59.2719 14.8916C59.5497 14.8916 59.7758 14.6657 59.7758 14.3877C59.7758 14.1097 59.5497 13.8838 59.2719 13.8838Z" fill="#6C6CFF"/>
<path d="M59.2719 74.5802C58.1325 74.5802 57.2054 73.6532 57.2054 72.5138C57.2054 71.3743 58.1325 70.4473 59.2719 70.4473C60.4112 70.4473 61.3383 71.3743 61.3383 72.5138C61.3383 73.6534 60.4112 74.5802 59.2719 74.5802ZM59.2719 72.0099C58.994 72.0099 58.7679 72.236 58.7679 72.514C58.7679 72.792 58.994 73.0179 59.2719 73.0179C59.5497 73.0179 59.7758 72.792 59.7758 72.514C59.7758 72.236 59.5497 72.0099 59.2719 72.0099Z" fill="#FF9D33"/>
<path d="M34.2071 7.66715C33.0678 7.66715 32.1407 6.74012 32.1407 5.60074C32.1407 4.46121 33.0678 3.53418 34.2071 3.53418C35.3465 3.53418 36.2736 4.46121 36.2736 5.60074C36.2736 6.74027 35.3465 7.66715 34.2071 7.66715ZM34.2071 5.09684C33.9293 5.09684 33.7032 5.32293 33.7032 5.6009C33.7032 5.87887 33.9293 6.1048 34.2071 6.1048C34.485 6.1048 34.7111 5.87887 34.7111 5.6009C34.7111 5.32293 34.485 5.09684 34.2071 5.09684Z" fill="#6C6CFF"/>
<path d="M51.4193 22.3432C51.2193 22.3432 51.0194 22.2669 50.8668 22.1143L49.1024 20.3499C48.7972 20.0449 48.7972 19.5502 49.1024 19.2452L50.8668 17.4808C51.1719 17.1757 51.6665 17.1757 51.9716 17.4808L53.736 19.2452C53.8826 19.3918 53.9647 19.5904 53.9647 19.7975C53.9647 20.0047 53.8824 20.2035 53.736 20.3499L51.9716 22.1143C51.8193 22.2669 51.6193 22.3432 51.4193 22.3432ZM50.7599 19.7975L51.4194 20.4571L52.079 19.7975L51.4194 19.138L50.7599 19.7975Z" fill="#FF6C6C"/>
<path d="M9.17306 54.724C8.96587 54.724 8.76712 54.6417 8.62056 54.4951L6.85619 52.7307C6.55103 52.4257 6.55103 51.9311 6.85619 51.6261L8.62056 49.8617C8.92572 49.5565 9.42025 49.5565 9.72541 49.8617L11.4898 51.6261C11.6363 51.7726 11.7185 51.9712 11.7185 52.1784C11.7185 52.3856 11.6362 52.5843 11.4898 52.7307L9.72541 54.4953C9.579 54.6417 9.38025 54.724 9.17306 54.724ZM8.51337 52.1782L9.17291 52.8379L9.83244 52.1782L9.17291 51.5187L8.51337 52.1782Z" fill="#FF9D33"/>
</g>
<defs>
<linearGradient id="paint0_linear_8_1875" x1="80.4281" y1="50.8733" x2="-63.4925" y2="18.9952" gradientUnits="userSpaceOnUse">
<stop offset="0.007" stop-color="#9494FF"/>
<stop offset="0.992" stop-color="#FFE8DC" stop-opacity="0"/>
</linearGradient>
<clipPath id="clip0_8_1875">
<rect width="80" height="80" fill="white"/>
</clipPath>
</defs>
</svg>
