<svg width="80" height="80" viewBox="0 0 80 80" fill="none" xmlns="http://www.w3.org/2000/svg">
<path d="M64.2425 24.2425C59.5564 24.2425 55.7577 20.4438 55.7577 15.7577C55.7577 7.05484 48.7027 0 40 0C31.2973 0 24.2425 7.05484 24.2425 15.7575C24.2425 20.4436 20.4438 24.2423 15.7577 24.2423C7.05484 24.2425 0 31.2973 0 40C0 48.7027 7.05484 55.7575 15.7575 55.7575C20.4436 55.7575 24.2423 59.5563 24.2423 64.2423C24.2425 72.9452 31.2973 80 40 80C48.7027 80 55.7575 72.9452 55.7575 64.2425C55.7575 59.5564 59.5563 55.7577 64.2423 55.7577C72.9452 55.7575 80 48.7027 80 40C80 31.2973 72.9452 24.2425 64.2425 24.2425Z" fill="url(#paint0_linear_8_1783)"/>
<path opacity="0.1" d="M61.4831 75.6532H18.5168C16.7909 75.6532 15.3918 74.2541 15.3918 72.5282V15.4395C15.3918 13.7135 16.7909 12.3145 18.5168 12.3145H61.4831C63.209 12.3145 64.6081 13.7135 64.6081 15.4395V72.5282C64.6081 74.254 63.209 75.6532 61.4831 75.6532Z" fill="#2626BC"/>
<path d="M61.4831 71.4344H18.5168C16.7909 71.4344 15.3918 70.0354 15.3918 68.3094V11.2207C15.3918 9.49477 16.7909 8.0957 18.5168 8.0957H61.4831C63.209 8.0957 64.6081 9.49477 64.6081 11.2207V68.3094C64.6081 70.0352 63.209 71.4344 61.4831 71.4344Z" fill="#8383FF"/>
<path d="M15.3918 42.9213C14.9604 42.9213 14.6106 42.5715 14.6106 42.1401V11.2207C14.6106 9.0668 16.3629 7.31445 18.5168 7.31445H61.4831C63.637 7.31445 65.3893 9.0668 65.3893 11.2207V18.0776C65.3893 18.509 65.0395 18.8588 64.6081 18.8588C64.1767 18.8588 63.8268 18.509 63.8268 18.0776V11.2207C63.8268 9.92836 62.7754 8.87695 61.4831 8.87695H18.5168C17.2245 8.87695 16.1731 9.92836 16.1731 11.2207V42.1401C16.1731 42.5715 15.8233 42.9213 15.3918 42.9213Z" fill="#2626BC"/>
<path d="M61.4831 72.2163H18.5168C16.3629 72.2163 14.6106 70.4639 14.6106 68.31V46.9219C14.6106 46.4905 14.9604 46.1406 15.3918 46.1406C15.8233 46.1406 16.1731 46.4905 16.1731 46.9219V68.3098C16.1731 69.6022 17.2245 70.6536 18.5168 70.6536H61.4831C62.7754 70.6536 63.8268 69.6022 63.8268 68.3098V22.8594C63.8268 22.428 64.1767 22.0781 64.6081 22.0781C65.0395 22.0781 65.3893 22.428 65.3893 22.8594V68.3098C65.3893 70.4639 63.637 72.2163 61.4831 72.2163Z" fill="#2626BC"/>
<path d="M60.8578 12.627V66.902C60.8578 67.3348 60.5078 67.6832 60.0766 67.6832H50.7608C50.4617 67.6832 50.1889 67.5124 50.0581 67.2435L49.6669 66.4385C49.5361 66.1696 49.2633 65.9988 48.9642 65.9988H31.0358C30.7367 65.9988 30.4639 66.1696 30.3331 66.4385L29.9419 67.2435C29.8111 67.5124 29.5383 67.6832 29.2392 67.6832H19.9235C19.4922 67.6832 19.1422 67.3348 19.1422 66.902V12.627C19.1422 12.1941 19.4922 11.8457 19.9235 11.8457H29.2392C29.5383 11.8457 29.8111 12.0165 29.9419 12.2854L30.3331 13.0904C30.4639 13.3593 30.7367 13.5301 31.0358 13.5301H48.9642C49.2633 13.5301 49.5361 13.3593 49.6669 13.0904L50.0581 12.2854C50.1889 12.0165 50.4617 11.8457 50.7608 11.8457H60.0766C60.5078 11.8457 60.8578 12.1941 60.8578 12.627Z" fill="white"/>
<path d="M26.9365 27.077L24.8565 25.66L22.7765 27.077C22.2579 27.4303 21.5554 27.0589 21.5554 26.4314V13.9912H28.1578V26.4314C28.1576 27.0589 27.4551 27.4303 26.9365 27.077Z" fill="#F7F3FF"/>
<path d="M39.4438 16.227C38.9453 15.5613 38.6969 15.0738 38.6969 14.7613C38.6969 14.3566 38.9578 13.9473 39.4828 13.5301H35.3687C34.075 14.8707 33.4266 16.3098 33.4266 17.8488C33.4266 18.9504 33.775 19.8551 34.4719 20.5613C35.1672 21.2676 36.0344 21.6207 37.075 21.6207C38.0516 21.6207 38.8406 21.3254 39.4438 20.7332C40.0469 20.141 40.3484 19.377 40.3484 18.441C40.3484 17.7973 40.0469 17.0582 39.4438 16.227ZM59.1828 37.5238C58.4547 37.5238 57.8625 37.1801 57.4047 36.4941C56.9469 35.8301 56.7188 34.791 56.7188 33.3769V17.4113C56.7188 15.2504 55.8031 13.4098 53.975 11.8926C53.9547 11.877 53.9359 11.8613 53.9156 11.8457H50.7609C50.4609 11.8457 50.1891 12.016 50.0578 12.2848L49.6672 13.091C49.5938 13.2426 49.475 13.3629 49.3313 13.4379C49.4266 13.5129 49.5188 13.5895 49.6094 13.6707C50.8766 14.7926 51.5109 16.1441 51.5109 17.7238V22.152C45.5875 22.816 40.8422 24.152 37.2781 26.1582C33.7125 28.1644 31.9297 30.6848 31.9297 33.7191C31.9297 35.7363 32.7094 37.3879 34.2688 38.6769C35.8281 39.966 38.1031 40.6098 41.0969 40.6098C43.1969 40.6098 44.9953 40.2613 46.4922 39.566C47.9875 38.8691 49.7234 37.4816 51.6984 35.4035C52.4266 37.3363 53.2734 38.6879 54.2406 39.4566C55.2063 40.2254 56.3969 40.6098 57.8109 40.6098C58.8828 40.6098 59.8984 40.3488 60.8578 39.8254V37.0801C60.2797 37.3769 59.7219 37.5238 59.1828 37.5238ZM51.5109 28.3879C51.5109 31.1941 50.6125 33.527 48.8141 35.3879C47.0156 37.2488 44.8906 38.1785 42.4375 38.1785C41.0656 38.1785 39.9531 37.7254 39.1016 36.8223C38.2484 35.9176 37.8234 34.666 37.8234 33.0644C37.8234 30.7785 38.6437 29.0113 40.2859 27.7645C42.4891 26.1223 46.2313 24.9379 51.5109 24.2098V28.3879Z" fill="#EBEBFF"/>
<path d="M11.5625 18.7773H11.0938V18.3086C11.0938 17.8772 10.7439 17.5273 10.3125 17.5273C9.88109 17.5273 9.53125 17.8772 9.53125 18.3086V18.7773H9.0625C8.63109 18.7773 8.28125 19.1272 8.28125 19.5586C8.28125 19.99 8.63109 20.3398 9.0625 20.3398H9.53125V20.8086C9.53125 21.24 9.88109 21.5898 10.3125 21.5898C10.7439 21.5898 11.0938 21.24 11.0938 20.8086V20.3398H11.5625C11.9939 20.3398 12.3438 19.99 12.3438 19.5586C12.3438 19.1272 11.9939 18.7773 11.5625 18.7773Z" fill="#8383FF"/>
<path d="M71.5625 59.4062H71.0938V58.9375C71.0938 58.5061 70.7439 58.1562 70.3125 58.1562C69.8811 58.1562 69.5312 58.5061 69.5312 58.9375V59.4062H69.0625C68.6311 59.4062 68.2812 59.7561 68.2812 60.1875C68.2812 60.6189 68.6311 60.9688 69.0625 60.9688H69.5312V61.4375C69.5312 61.8689 69.8811 62.2188 70.3125 62.2188C70.7439 62.2188 71.0938 61.8689 71.0938 61.4375V60.9688H71.5625C71.9939 60.9688 72.3438 60.6189 72.3438 60.1875C72.3438 59.7561 71.9939 59.4062 71.5625 59.4062Z" fill="#FF6C6C"/>
<path d="M70.3125 17.5273H69.8438V17.0586C69.8438 16.6272 69.4939 16.2773 69.0625 16.2773C68.6311 16.2773 68.2812 16.6272 68.2812 17.0586V17.5273H67.8125C67.3811 17.5273 67.0312 17.8772 67.0312 18.3086C67.0312 18.74 67.3811 19.0898 67.8125 19.0898H68.2812V19.5586C68.2812 19.99 68.6311 20.3398 69.0625 20.3398C69.4939 20.3398 69.8438 19.99 69.8438 19.5586V19.0898H70.3125C70.7439 19.0898 71.0938 18.74 71.0938 18.3086C71.0938 17.8772 70.7439 17.5273 70.3125 17.5273Z" fill="#FF9D33"/>
<path d="M71.8751 26.535C71.6751 26.535 71.4752 26.4587 71.3226 26.3062L70.6251 25.6087L69.9276 26.3062C69.6224 26.6112 69.1279 26.6112 68.8227 26.3062C68.5176 26.0011 68.5176 25.5064 68.8227 25.2014L70.0727 23.9514C70.3779 23.6464 70.8724 23.6464 71.1776 23.9514L72.4276 25.2014C72.7327 25.5066 72.7327 26.0012 72.4276 26.3062C72.2749 26.4587 72.0751 26.535 71.8751 26.535Z" fill="#FF6C6C"/>
<path d="M11.8751 58.9375C11.6751 58.9375 11.4752 58.8612 11.3226 58.7087L10.6251 58.0111L9.92758 58.7086C9.62243 59.0136 9.1279 59.0136 8.82274 58.7086C8.51758 58.4034 8.51758 57.9087 8.82274 57.6037L10.0727 56.3537C10.3779 56.0488 10.8724 56.0488 11.1776 56.3537L12.4276 57.6037C12.7327 57.9089 12.7327 58.4036 12.4276 58.7086C12.2749 58.8612 12.0751 58.9375 11.8751 58.9375Z" fill="#FF6C6C"/>
<path d="M26.9365 24.9315L24.8565 23.5145L22.7765 24.9315C22.2579 25.2848 21.5554 24.9134 21.5554 24.2859V11.8457H28.1578V24.2859C28.1576 24.9134 27.4551 25.2849 26.9365 24.9315Z" fill="#FF6C6C"/>
<path d="M57.7301 42.9932H22.3363C21.9047 42.9932 21.5551 42.6433 21.5551 42.2119C21.5551 41.7805 21.9047 41.4307 22.3363 41.4307H57.7301C58.1616 41.4307 58.5113 41.7805 58.5113 42.2119C58.5113 42.6433 58.1615 42.9932 57.7301 42.9932Z" fill="#FF6C6C"/>
<path d="M57.7301 46.041H22.3363C21.9047 46.041 21.5551 45.6912 21.5551 45.2598C21.5551 44.8284 21.9047 44.4785 22.3363 44.4785H57.7301C58.1616 44.4785 58.5113 44.8284 58.5113 45.2598C58.5113 45.6912 58.1615 46.041 57.7301 46.041Z" fill="#FF6C6C"/>
<path d="M57.7301 49.0879H22.3363C21.9047 49.0879 21.5551 48.738 21.5551 48.3066C21.5551 47.8752 21.9047 47.5254 22.3363 47.5254H57.7301C58.1616 47.5254 58.5113 47.8752 58.5113 48.3066C58.5113 48.738 58.1615 49.0879 57.7301 49.0879Z" fill="#FF6C6C"/>
<path d="M57.7301 52.1348H22.3363C21.9047 52.1348 21.5551 51.7849 21.5551 51.3535C21.5551 50.9221 21.9047 50.5723 22.3363 50.5723H57.7301C58.1616 50.5723 58.5113 50.9221 58.5113 51.3535C58.5113 51.7849 58.1615 52.1348 57.7301 52.1348Z" fill="#FF6C6C"/>
<path d="M57.7301 55.1826H22.3363C21.9047 55.1826 21.5551 54.8328 21.5551 54.4014C21.5551 53.97 21.9047 53.6201 22.3363 53.6201H57.7301C58.1616 53.6201 58.5113 53.97 58.5113 54.4014C58.5113 54.8328 58.1615 55.1826 57.7301 55.1826Z" fill="#FF6C6C"/>
<path d="M57.7301 56.667C58.1616 56.667 58.5113 57.0168 58.5113 57.4482C58.5113 57.8796 58.1616 58.2295 57.7301 58.2295H22.3363C21.9047 58.2295 21.5551 57.8796 21.5551 57.4482C21.5551 57.0168 21.9047 56.667 22.3363 56.667H57.7301Z" fill="#FF6C6C"/>
<path d="M39.9999 63.9552C39.7999 63.9552 39.6001 63.8789 39.4474 63.7264L38.536 62.815C38.2308 62.5099 38.2308 62.0152 38.536 61.7102C38.8412 61.4052 39.3357 61.4052 39.6408 61.7102L39.9999 62.0693L40.359 61.7102C40.6641 61.4052 41.1587 61.4052 41.4638 61.7102C41.769 62.0154 41.769 62.51 41.4638 62.815L40.5524 63.7264C40.3998 63.8789 40.1999 63.9552 39.9999 63.9552Z" fill="#FF7300"/>
<path d="M34.7613 34.251H22.3363C21.9047 34.251 21.5551 33.9011 21.5551 33.4697C21.5551 33.0383 21.9047 32.6885 22.3363 32.6885H34.7613C35.1929 32.6885 35.5426 33.0383 35.5426 33.4697C35.5426 33.9011 35.1927 34.251 34.7613 34.251Z" fill="#8383FF"/>
<path d="M43.6676 36.9854H22.3363C21.9047 36.9854 21.5551 36.6355 21.5551 36.2041C21.5551 35.7727 21.9047 35.4229 22.3363 35.4229H43.6676C44.0991 35.4229 44.4488 35.7727 44.4488 36.2041C44.4488 36.6355 44.099 36.9854 43.6676 36.9854Z" fill="#8383FF"/>
<path d="M22.5781 31.4307C23.0096 31.4307 23.3594 31.0809 23.3594 30.6494C23.3594 30.2179 23.0096 29.8682 22.5781 29.8682C22.1467 29.8682 21.7969 30.2179 21.7969 30.6494C21.7969 31.0809 22.1467 31.4307 22.5781 31.4307Z" fill="#8383FF"/>
<path d="M25.1172 31.4307C25.5487 31.4307 25.8984 31.0809 25.8984 30.6494C25.8984 30.2179 25.5487 29.8682 25.1172 29.8682C24.6857 29.8682 24.3359 30.2179 24.3359 30.6494C24.3359 31.0809 24.6857 31.4307 25.1172 31.4307Z" fill="#8383FF"/>
<defs>
<linearGradient id="paint0_linear_8_1783" x1="68.2945" y1="11.7055" x2="-0.625" y2="80.625" gradientUnits="userSpaceOnUse">
<stop stop-color="#FFD9D9" stop-opacity="0"/>
<stop offset="0.9981" stop-color="#FFB3B3"/>
</linearGradient>
</defs>
</svg>
