<svg width="80" height="80" viewBox="0 0 80 80" fill="none" xmlns="http://www.w3.org/2000/svg">
<g clip-path="url(#clip0_8_1827)">
<path d="M78.2147 31.3437C79.3366 28.8118 79.9711 26.0159 79.9989 23.0748C80.1058 11.8293 71.216 2.43433 59.98 1.95511C56.2939 1.79792 52.8074 2.59433 49.7464 4.11808C43.6025 7.17667 36.397 7.17667 30.2531 4.11808C27.1924 2.59433 23.7058 1.79792 20.0197 1.95511C8.78408 2.43448 -0.105768 11.8292 0.000950829 23.0748C0.0289196 26.0159 0.663295 28.8118 1.78517 31.3437C4.22704 36.8545 4.22704 43.1453 1.78517 48.6562C0.663295 51.1881 0.0287633 53.9842 0.000950829 56.9253C-0.105768 68.1709 8.78408 77.5656 20.02 78.0448C23.7061 78.202 27.1927 77.4056 30.2535 75.8818C36.3974 72.8232 43.6027 72.8232 49.7464 75.8818C52.8072 77.4056 56.2939 78.202 59.98 78.0448C71.2158 77.5656 80.1056 68.1707 79.9989 56.9253C79.971 53.9842 79.3366 51.1882 78.2147 48.6563C75.7728 43.1453 75.7728 36.8545 78.2147 31.3437Z" fill="url(#paint0_linear_8_1827)"/>
<path opacity="0.1" d="M53.0947 29.0553H61.5044C62.855 29.0553 63.9498 27.9604 63.9498 26.6098C63.9498 25.2593 62.855 24.1645 61.5045 24.1645H53.0861C52.9964 22.6932 51.7709 21.4757 50.2817 21.5037C48.8148 21.5312 47.6309 22.7037 47.5789 24.1645H47.5739V22.4928C47.5739 20.9682 46.338 19.7323 44.8134 19.7323C43.2889 19.7323 42.053 20.9682 42.053 22.4928V21.4193C42.053 19.872 40.7867 18.5581 39.2398 18.587C37.7397 18.6151 36.5322 19.8399 36.5322 21.347V14.0756C36.5322 12.5845 35.3798 11.3082 33.89 11.2453C33.1477 11.214 32.4684 11.4779 31.9556 11.927C30.3539 10.4709 28.2095 9.60119 25.8617 9.65681C21.1686 9.76806 17.3631 13.6395 17.328 18.3337C17.31 20.736 18.2619 22.9151 19.8139 24.5062C19.7627 24.5298 19.7114 24.5534 19.6611 24.5793L17.0691 25.9156C16.5047 26.2065 16.5047 27.0134 17.0691 27.3043L19.6611 28.6406C20.1898 28.9131 20.7761 29.0554 21.3709 29.0554H25.4906V37.4457C25.4906 41.6034 27.8811 45.2006 31.3614 46.9442L30.8095 58.3456H16.832C16.4006 58.3456 16.0508 58.6954 16.0508 59.1268V73.7838C16.0508 74.2152 16.4006 74.5651 16.832 74.5651H33.2498C33.6705 74.5651 34.0111 74.2318 34.028 73.8152H47.7047C48.1509 73.8152 48.5066 73.442 48.485 72.9962L47.9664 62.2804H62.3862C63.2503 62.2804 63.9487 61.5804 63.9487 60.7179V42.846C63.9487 41.9835 63.2503 41.2835 62.3862 41.2835H52.3769C52.8387 40.0928 53.0948 38.7995 53.0948 37.4456L53.0947 29.0553Z" fill="#2626BC"/>
<path d="M26.074 22.9287C30.9045 22.9287 34.8205 19.0127 34.8205 14.1821C34.8205 9.35152 30.9045 5.43555 26.074 5.43555C21.2434 5.43555 17.3274 9.35152 17.3274 14.1821C17.3274 19.0127 21.2434 22.9287 26.074 22.9287Z" fill="#FF9D33"/>
<path d="M28.6698 13.2755C28.6698 11.8441 27.5053 10.6797 26.0741 10.6797C24.6428 10.6797 23.4783 11.8442 23.4783 13.2755C23.4783 13.9814 23.7623 14.6216 24.2212 15.09C23.7625 15.5584 23.4783 16.1986 23.4783 16.9045C23.4783 17.3359 23.828 17.6858 24.2595 17.6858C24.6911 17.6858 25.0408 17.3359 25.0408 16.9045C25.0408 16.3348 25.5044 15.8712 26.0741 15.8712C26.6437 15.8712 27.1073 16.3348 27.1073 16.9045C27.1073 17.3359 27.457 17.6858 27.8886 17.6858C28.3201 17.6858 28.6698 17.3359 28.6698 16.9045C28.6698 16.1986 28.3858 15.5584 27.9269 15.09C28.3858 14.6217 28.6698 13.9814 28.6698 13.2755ZM26.0741 12.2422C26.6437 12.2422 27.1073 12.7058 27.1073 13.2755C27.1073 13.8452 26.6437 14.3087 26.0741 14.3087C25.5044 14.3087 25.0408 13.8452 25.0408 13.2755C25.0408 12.7058 25.5042 12.2422 26.0741 12.2422Z" fill="white"/>
<path d="M48.5245 69.5963L47.0895 39.9463H31.4958L30.0608 69.5963H48.5245Z" fill="#8383FF"/>
<path d="M48.0995 60.8057H43.8042C42.9401 60.8057 42.2417 60.1057 42.2417 59.2432V41.3713C42.2417 40.7369 42.6198 40.19 43.1651 39.9463H47.0901L48.0995 60.8057Z" fill="#4D4DFF"/>
<path d="M47.413 46.6275C45.938 47.4057 44.2567 47.8447 42.4739 47.8447H36.1114C34.3286 47.8447 32.6474 47.4057 31.1724 46.6275L31.4958 39.9463H47.0896L47.413 46.6275Z" fill="#4D4DFF"/>
<path d="M63.9498 22.3927C63.9498 23.7434 62.855 24.8382 61.5043 24.8382H21.3709C20.7761 24.8382 20.1898 24.696 19.6611 24.4234L17.069 23.0871C16.5047 22.7962 16.5047 21.9893 17.069 21.6984L19.6611 20.3621C20.1898 20.0896 20.7761 19.9473 21.3709 19.9473H61.5045C62.855 19.9473 63.9498 21.0421 63.9498 22.3927Z" fill="white"/>
<path d="M26.882 19.9463V24.8371H24.677V19.9463H26.882Z" fill="#D9D9FF"/>
<path d="M58.4004 24.8372H61.5045C62.8551 24.8372 63.9499 23.7424 63.9499 22.3918C63.9499 21.0411 62.8551 19.9463 61.5045 19.9463H58.4004V24.8372Z" fill="#D9D9FF"/>
<path d="M25.4905 24.8368V33.2271C25.4905 39.0924 30.2453 43.8472 36.1106 43.8472H42.4745C48.3399 43.8472 53.0947 39.0924 53.0947 33.2271V20.1174C53.0947 18.5702 51.8286 17.2561 50.2816 17.2852C48.7814 17.3133 47.5739 18.5382 47.5739 20.045V18.2743C47.5739 16.7497 46.338 15.5138 44.8134 15.5138C43.2889 15.5138 42.053 16.7497 42.053 18.2743V17.1285C42.053 15.604 40.817 14.368 39.2925 14.368C37.768 14.368 36.532 15.604 36.532 17.1285V9.85707C36.532 8.30989 35.2659 6.99582 33.7189 7.02489C32.2188 7.05301 31.0113 8.27786 31.0113 9.78489V24.8369L25.4905 24.8368Z" fill="#9494FF"/>
<path d="M25.4905 24.8369H31.0113V27.501H25.4905V24.8369Z" fill="#8383FF"/>
<path d="M33.2498 70.3465H16.832C16.4006 70.3465 16.0508 69.9966 16.0508 69.5652V54.9082C16.0508 54.4768 16.4006 54.127 16.832 54.127H33.2498C33.6812 54.127 34.0311 54.4768 34.0311 54.9082V69.5652C34.0311 69.9966 33.6812 70.3465 33.2498 70.3465Z" fill="#FF6C6C"/>
<path d="M34.0311 58.609V54.9082C34.0311 54.4768 33.6812 54.127 33.2498 54.127H16.832C16.4006 54.127 16.0508 54.4768 16.0508 54.9082V58.609H34.0311Z" fill="#FFC599"/>
<path d="M22.9453 61.9774V65.7769C22.9453 66.1388 23.338 66.3641 23.6505 66.1818L26.9044 64.2819C27.2142 64.101 27.2142 63.6532 26.9044 63.4722L23.6505 61.5724C23.338 61.39 22.9453 61.6155 22.9453 61.9774Z" fill="white"/>
<path d="M19.0803 57.3857C19.3824 57.3857 19.6272 57.1409 19.6272 56.8389C19.6272 56.5368 19.3824 56.292 19.0803 56.292C18.7783 56.292 18.5334 56.5368 18.5334 56.8389C18.5334 57.1409 18.7783 57.3857 19.0803 57.3857Z" fill="#FF6C6C"/>
<path d="M20.825 57.3857C21.127 57.3857 21.3718 57.1409 21.3718 56.8389C21.3718 56.5368 21.127 56.292 20.825 56.292C20.5229 56.292 20.2781 56.5368 20.2781 56.8389C20.2781 57.1409 20.5229 57.3857 20.825 57.3857Z" fill="#FF6C6C"/>
<path d="M22.5698 57.3857C22.8719 57.3857 23.1167 57.1409 23.1167 56.8389C23.1167 56.5368 22.8719 56.292 22.5698 56.292C22.2678 56.292 22.0229 56.5368 22.0229 56.8389C22.0229 57.1409 22.2678 57.3857 22.5698 57.3857Z" fill="#FF6C6C"/>
<path d="M43.8032 58.0613H62.386C63.2501 58.0613 63.9485 57.3613 63.9485 56.4988V38.6269C63.9485 37.7644 63.2501 37.0644 62.386 37.0644H51.6095L50.4901 34.8029C50.2565 34.3308 49.7754 34.0322 49.2488 34.0322C48.7221 34.0322 48.2409 34.3311 48.0074 34.8033L46.8892 37.0646H43.8032C42.9403 37.0646 42.2407 37.7641 42.2407 38.6271V56.4989C42.2407 57.3618 42.9404 58.0613 43.8032 58.0613Z" fill="#FF6C6C"/>
<path d="M62.3859 36.2835H53.4543C53.7265 35.3101 53.8759 34.286 53.8759 33.2268V20.727H61.5043C62.422 20.727 63.1684 21.4734 63.1684 22.391C63.1684 23.3087 62.422 24.0551 61.5043 24.0551H58.4001C57.9686 24.0551 57.6189 24.4048 57.6189 24.8363C57.6189 25.2679 57.9686 25.6176 58.4001 25.6176H61.5043C63.2836 25.6176 64.7309 24.1701 64.7309 22.391C64.7309 20.6119 63.2834 19.1645 61.5043 19.1645H53.7454C53.5754 18.546 53.244 17.9726 52.7798 17.5168C52.0962 16.846 51.2087 16.4859 50.2667 16.5038C49.492 16.5184 48.7758 16.7868 48.1973 17.228C47.7503 15.7841 46.4023 14.7324 44.8134 14.7324C43.9247 14.7324 43.1115 15.0613 42.489 15.6038C41.9184 14.4118 40.7 13.5865 39.2925 13.5865C38.56 13.5865 37.8787 13.8101 37.3133 14.1924V9.8568C37.3133 8.88789 36.9137 7.93992 36.2172 7.25633C35.5336 6.58555 34.6431 6.22414 33.704 6.24336C33.0831 6.25508 32.5001 6.4307 31.9951 6.72695C30.3679 5.43133 28.3108 4.6543 26.0739 4.6543C20.8203 4.6543 16.5461 8.92836 16.5461 14.1821C16.5461 16.3915 17.3044 18.4254 18.5712 20.0432L16.7104 21.0024C16.1884 21.2718 15.864 21.8038 15.864 22.3913C15.864 22.9788 16.1884 23.5109 16.7106 23.7802L19.3026 25.1165C19.9394 25.4446 20.6544 25.618 21.3704 25.618H24.7089V33.2271C24.7089 37.4985 27.0712 41.2266 30.5567 43.1793L30.0647 53.3457H16.8315C15.97 53.3457 15.269 54.0466 15.269 54.9082V69.5652C15.269 70.4268 15.97 71.1277 16.8315 71.1277H33.2493C34.1109 71.1277 34.8118 70.4268 34.8118 69.5652V54.9082C34.8118 54.0466 34.1109 53.3457 33.2493 53.3457H31.629L32.0865 43.893C33.3386 44.3669 34.6942 44.6285 36.1103 44.6285H41.4592V47.6098C41.4592 48.0413 41.8089 48.391 42.2404 48.391C42.672 48.391 43.0217 48.0413 43.0217 47.6098V38.6276C43.0217 38.1968 43.3722 37.8463 43.8029 37.8463H46.8889C47.1859 37.8463 47.4575 37.6777 47.5892 37.4115L48.7073 35.1501C48.8097 34.9429 49.017 34.8141 49.2484 34.8141C49.4795 34.8141 49.687 34.9429 49.7895 35.1499L50.9089 37.4116C51.0408 37.6779 51.312 37.8463 51.609 37.8463H62.3856C62.8164 37.8463 63.1668 38.1968 63.1668 38.6276V56.4994C63.1668 56.9302 62.8164 57.2807 62.3856 57.2807H43.8033C43.3725 57.2807 43.022 56.9302 43.022 56.4994V52.3913C43.022 51.9598 42.6723 51.6101 42.2408 51.6101C41.8092 51.6101 41.4595 51.9598 41.4595 52.3913V56.4994C41.4595 57.7918 42.5109 58.8432 43.8033 58.8432H47.2218L47.744 69.6344C47.7643 70.0526 48.1097 70.3779 48.5237 70.3779C48.5364 70.3779 48.5492 70.3776 48.5622 70.3769C48.9931 70.356 49.3256 69.9898 49.3047 69.559L48.7861 58.8432H62.3859C63.6782 58.8432 64.7297 57.7918 64.7297 56.4994V38.6276C64.7297 37.3348 63.6784 36.2835 62.3859 36.2835ZM33.2506 69.5649H16.8319V54.9079H33.2497L33.2506 69.5649ZM26.074 6.2168C27.8609 6.2168 29.51 6.81102 30.8398 7.80883C30.4554 8.37523 30.23 9.05602 30.23 9.78445V19.1645H21.3708C20.9192 19.1645 20.4683 19.2337 20.0369 19.367C18.8372 17.9724 18.1087 16.1616 18.1087 14.182C18.1087 9.78992 21.682 6.2168 26.074 6.2168ZM20.0189 23.7273L17.4269 22.391L20.0187 21.0548C20.435 20.8402 20.9025 20.7268 21.3708 20.7268H30.23V24.0551H25.4904H21.3708C20.9025 24.0552 20.435 23.9418 20.0189 23.7273ZM51.1903 34.4565C50.8223 33.713 50.0784 33.2512 49.2487 33.2512C48.4187 33.2512 47.6747 33.7134 47.3068 34.4571L46.4039 36.2834H43.8033C42.5109 36.2834 41.4595 37.3348 41.4595 38.6271V43.0655H36.1106C34.5278 43.0655 33.0325 42.6877 31.7064 42.0207C31.7028 42.019 31.6994 42.0169 31.6958 42.0152C28.4822 40.3943 26.2717 37.0646 26.2717 33.2265V25.6174H30.23V31.9974C30.23 32.429 30.5798 32.7787 31.0112 32.7787C31.4426 32.7787 31.7925 32.429 31.7925 31.9974V24.8362V9.78445C31.7925 8.71351 32.6633 7.8257 33.7336 7.80555C34.2473 7.80211 34.7412 7.99711 35.1228 8.37148C35.522 8.76336 35.7509 9.30461 35.7509 9.8568V17.1282V24.7324C35.7509 25.164 36.1008 25.5137 36.5322 25.5137C36.9636 25.5137 37.3134 25.164 37.3134 24.7324V17.1282C37.3134 16.037 38.2012 15.149 39.2926 15.149C40.3839 15.149 41.2718 16.037 41.2718 17.1282V18.274V24.7324C41.2718 25.164 41.6215 25.5137 42.0531 25.5137C42.4847 25.5137 42.8343 25.164 42.8343 24.7324V18.274C42.8343 17.1827 43.7223 16.2949 44.8136 16.2949C45.9048 16.2949 46.7926 17.1827 46.7926 18.274V20.0449V24.7324C46.7926 25.164 47.1423 25.5137 47.5739 25.5137C48.0054 25.5137 48.3551 25.164 48.3551 24.7324V20.0449C48.3551 18.9738 49.2259 18.086 50.2962 18.066C50.8047 18.0599 51.3037 18.2574 51.6856 18.6321C52.0848 19.0238 52.3137 19.5651 52.3137 20.1173V33.2268C52.3137 34.1705 52.1782 35.0827 51.9284 35.9473L51.1903 34.4565Z" fill="#2626BC"/>
<path d="M60.0382 54.9081C59.7355 54.9081 59.4476 54.7312 59.3202 54.4358L57.1598 49.417L54.9993 54.4358C54.8287 54.832 54.3688 55.015 53.9727 54.8444C53.5765 54.6737 53.3935 54.2142 53.5641 53.8178L56.4422 47.1323C56.5657 46.8458 56.8479 46.6602 57.1599 46.6602C57.4719 46.6602 57.7541 46.8458 57.8776 47.1323L60.7557 53.8178C60.9263 54.2142 60.7433 54.6739 60.3471 54.8444C60.2462 54.8877 60.1413 54.9081 60.0382 54.9081Z" fill="white"/>
<path d="M58.4646 52.7764H55.1995C54.7679 52.7764 54.4182 52.4267 54.4182 51.9951C54.4182 51.5636 54.7679 51.2139 55.1995 51.2139H58.4646C58.8962 51.2139 59.2459 51.5636 59.2459 51.9951C59.2459 52.4267 58.8962 52.7764 58.4646 52.7764Z" fill="white"/>
<path d="M59.717 43.7743H46.6284C46.197 43.7743 45.8472 43.4245 45.8472 42.9931V41.21C45.8472 40.7786 46.197 40.4287 46.6284 40.4287H59.717C60.1484 40.4287 60.4983 40.7786 60.4983 41.21V42.9931C60.4983 43.4245 60.1484 43.7743 59.717 43.7743Z" fill="#FFEEEE"/>
<path d="M19.4023 42.6963H18.9336V42.2275C18.9336 41.796 18.5837 41.4463 18.1523 41.4463C17.7209 41.4463 17.3711 41.796 17.3711 42.2275V42.6963H16.9023C16.4709 42.6963 16.1211 43.046 16.1211 43.4775C16.1211 43.9091 16.4709 44.2588 16.9023 44.2588H17.3711V44.7275C17.3711 45.1591 17.7209 45.5088 18.1523 45.5088C18.5837 45.5088 18.9336 45.1591 18.9336 44.7275V44.2588H19.4023C19.8337 44.2588 20.1836 43.9091 20.1836 43.4775C20.1836 43.046 19.8337 42.6963 19.4023 42.6963Z" fill="#FF6C6C"/>
<path d="M50.0737 8.87305H49.605V8.4043C49.605 7.97273 49.2553 7.62305 48.8237 7.62305C48.3922 7.62305 48.0425 7.97273 48.0425 8.4043V8.87305H47.5737C47.1422 8.87305 46.7925 9.22273 46.7925 9.6543C46.7925 10.0859 47.1422 10.4355 47.5737 10.4355H48.0425V10.9043C48.0425 11.3359 48.3922 11.6855 48.8237 11.6855C49.2553 11.6855 49.605 11.3359 49.605 10.9043V10.4355H50.0737C50.5053 10.4355 50.855 10.0859 50.855 9.6543C50.855 9.22273 50.5051 8.87305 50.0737 8.87305Z" fill="#FF9D33"/>
<path d="M59.3677 69.5645H58.8989V69.0957C58.8989 68.6641 58.5492 68.3145 58.1177 68.3145C57.6861 68.3145 57.3364 68.6641 57.3364 69.0957V69.5645H56.8677C56.4361 69.5645 56.0864 69.9141 56.0864 70.3457C56.0864 70.7773 56.4361 71.127 56.8677 71.127H57.3364V71.5957C57.3364 72.0273 57.6861 72.377 58.1177 72.377C58.5492 72.377 58.8989 72.0273 58.8989 71.5957V71.127H59.3677C59.7992 71.127 60.1489 70.7773 60.1489 70.3457C60.1489 69.9141 59.7992 69.5645 59.3677 69.5645Z" fill="#8383FF"/>
<path d="M16.1718 37.1279C15.9718 37.1279 15.772 37.0516 15.6193 36.899L14.9218 36.2015L14.2243 36.899C13.9192 37.2041 13.4246 37.2041 13.1195 36.899C12.8143 36.594 12.8143 36.0993 13.1195 35.7943L14.3695 34.5443C14.6746 34.2391 15.1692 34.2391 15.4743 34.5443L16.7243 35.7943C17.0295 36.0993 17.0295 36.594 16.7243 36.899C16.5718 37.0516 16.3718 37.1279 16.1718 37.1279Z" fill="#8383FF"/>
<path d="M66.9406 32.3896C66.7408 32.3896 66.5406 32.3134 66.3883 32.1607L65.6906 31.4632L64.993 32.1607C64.6881 32.4659 64.1931 32.4659 63.8883 32.1607C63.5831 31.8557 63.5831 31.361 63.8883 31.056L65.1383 29.806C65.4431 29.5009 65.9381 29.5009 66.243 29.806L67.493 31.056C67.7981 31.361 67.7981 31.8557 67.493 32.1607C67.3405 32.3134 67.1405 32.3896 66.9406 32.3896Z" fill="#8383FF"/>
</g>
<defs>
<linearGradient id="paint0_linear_8_1827" x1="78.6675" y1="84.4315" x2="3.19128" y2="-2.29585" gradientUnits="userSpaceOnUse">
<stop stop-color="#FFD9D9" stop-opacity="0"/>
<stop offset="0.9981" stop-color="#FFB3B3"/>
</linearGradient>
<clipPath id="clip0_8_1827">
<rect width="80" height="80" fill="white"/>
</clipPath>
</defs>
</svg>
