<svg width="80" height="80" viewBox="0 0 80 80" fill="none" xmlns="http://www.w3.org/2000/svg">
<g clip-path="url(#clip0_8_1736)">
<path d="M28.1643 0.000212391C12.4409 0.0836499 4.54697 27.1251 1.60088 41.0251C-1.34522 54.9252 1.73322 83.4404 24.5846 79.6577C28.2784 79.0463 29.1406 78.921 32.1854 77.3926C37.6049 74.6721 44.0188 72.758 49.8151 72.1802C52.1918 71.9433 55.1971 71.1587 56.7876 70.8727C69.5417 68.5791 82.5576 56.2227 78.6171 43.2755C75.6579 33.5524 66.9878 29.6383 58.3049 30.1765C53.5365 30.4719 48.4617 27.6747 47.444 24.5846C44.1293 14.5194 40.3171 -0.0641626 28.1643 0.000212391Z" fill="url(#paint0_linear_8_1736)"/>
<path opacity="0.1" d="M39.7048 8.77273L19.9744 16.8229C19.3263 17.0873 19.3263 18.0051 19.9744 18.2696L39.7048 26.3198C39.8941 26.397 40.1059 26.397 40.2952 26.3198L60.0256 18.2696C60.6737 18.0052 60.6737 17.0874 60.0256 16.8229L40.2952 8.77273C40.1059 8.69555 39.8941 8.69555 39.7048 8.77273Z" fill="#2626BC"/>
<path opacity="0.1" d="M75.3111 62.6953V66.6344C75.3111 67.4969 74.6127 68.1969 73.7486 68.1969H6.25159C5.38752 68.1969 4.68909 67.4969 4.68909 66.6344V62.6953C4.68909 61.8328 5.38752 61.1328 6.25159 61.1328H27.5024C27.7291 61.1328 27.9447 61.2312 28.093 61.4028L30.1047 63.7266H49.8953L51.9071 61.4028C52.0555 61.2314 52.271 61.1328 52.4977 61.1328H73.7485C74.6127 61.1328 75.3111 61.8328 75.3111 62.6953Z" fill="#2626BC"/>
<path d="M70.6319 60.6143H9.36816V21.5934C9.36816 20.1082 10.5721 18.9043 12.0572 18.9043H67.943C69.4282 18.9043 70.6321 20.1082 70.6321 21.5934V60.6143H70.6319Z" fill="#8383FF"/>
<path d="M75.3111 58.4766V62.4156C75.3111 63.2781 74.6127 63.9781 73.7486 63.9781H6.25159C5.38752 63.9781 4.68909 63.2781 4.68909 62.4156V58.4766C4.68909 57.6141 5.38752 56.9141 6.25159 56.9141H27.5024C27.7291 56.9141 27.9447 57.0125 28.093 57.1841L30.1047 59.5078H49.8953L51.9071 57.1841C52.0555 57.0127 52.271 56.9141 52.4977 56.9141H73.7485C74.6127 56.9141 75.3111 57.6141 75.3111 58.4766Z" fill="#D9D9FF"/>
<path d="M66.2231 53.1681H13.7769C13.3454 53.1681 12.9956 52.8182 12.9956 52.3868V23.5693C12.9956 23.1379 13.3454 22.7881 13.7769 22.7881H66.2231C66.6545 22.7881 67.0044 23.1379 67.0044 23.5693V52.3868C67.0044 52.8182 66.6548 53.1681 66.2231 53.1681Z" fill="white"/>
<path d="M67.0044 32.9687V23.5693C67.0044 23.1379 66.6545 22.7881 66.2231 22.7881H13.7769C13.3454 22.7881 12.9956 23.1379 12.9956 23.5693V32.9687H67.0044Z" fill="#FFD9D9"/>
<path d="M62.5848 40.2979H35.1598C34.7282 40.2979 34.3785 39.948 34.3785 39.5166C34.3785 39.0852 34.7282 38.7354 35.1598 38.7354H62.5848C63.0163 38.7354 63.366 39.0852 63.366 39.5166C63.366 39.948 63.0162 40.2979 62.5848 40.2979Z" fill="#FF6C6C"/>
<path d="M62.5848 43.0322H35.1598C34.7282 43.0322 34.3785 42.6824 34.3785 42.251C34.3785 41.8196 34.7282 41.4697 35.1598 41.4697H62.5848C63.0163 41.4697 63.366 41.8196 63.366 42.251C63.366 42.6824 63.0162 43.0322 62.5848 43.0322Z" fill="#FF6C6C"/>
<path d="M62.5848 45.7676H35.1598C34.7282 45.7676 34.3785 45.4177 34.3785 44.9863C34.3785 44.5549 34.7282 44.2051 35.1598 44.2051H62.5848C63.0163 44.2051 63.366 44.5549 63.366 44.9863C63.366 45.4177 63.0162 45.7676 62.5848 45.7676Z" fill="#FF6C6C"/>
<path d="M62.5848 46.9404C63.0163 46.9404 63.366 47.2903 63.366 47.7217C63.366 48.1531 63.0163 48.5029 62.5848 48.5029H35.1598C34.7282 48.5029 34.3785 48.1531 34.3785 47.7217C34.3785 47.2903 34.7282 46.9404 35.1598 46.9404H62.5848Z" fill="#FF6C6C"/>
<path d="M25.153 40.2979H17.4155C16.984 40.2979 16.6343 39.948 16.6343 39.5166C16.6343 39.0852 16.984 38.7354 17.4155 38.7354H25.153C25.5846 38.7354 25.9343 39.0852 25.9343 39.5166C25.9343 39.948 25.5844 40.2979 25.153 40.2979Z" fill="#8383FF"/>
<path d="M29.3718 43.0322H17.4155C16.984 43.0322 16.6343 42.6824 16.6343 42.251C16.6343 41.8196 16.984 41.4697 17.4155 41.4697H29.3718C29.8033 41.4697 30.153 41.8196 30.153 42.251C30.153 42.6824 29.8032 43.0322 29.3718 43.0322Z" fill="#8383FF"/>
<path d="M29.3718 45.7676H17.4155C16.984 45.7676 16.6343 45.4177 16.6343 44.9863C16.6343 44.5549 16.984 44.2051 17.4155 44.2051H29.3718C29.8033 44.2051 30.153 44.5549 30.153 44.9863C30.153 45.4177 29.8032 45.7676 29.3718 45.7676Z" fill="#8383FF"/>
<path d="M29.3718 48.5029H17.4155C16.984 48.5029 16.6343 48.1531 16.6343 47.7217C16.6343 47.2903 16.984 46.9404 17.4155 46.9404H29.3718C29.8033 46.9404 30.153 47.2903 30.153 47.7217C30.153 48.1531 29.8032 48.5029 29.3718 48.5029Z" fill="#8383FF"/>
<path d="M17.6573 37.4775C18.0888 37.4775 18.4386 37.1278 18.4386 36.6963C18.4386 36.2648 18.0888 35.915 17.6573 35.915C17.2259 35.915 16.8761 36.2648 16.8761 36.6963C16.8761 37.1278 17.2259 37.4775 17.6573 37.4775Z" fill="#FF6C6C"/>
<path d="M20.1964 37.4775C20.6279 37.4775 20.9777 37.1278 20.9777 36.6963C20.9777 36.2648 20.6279 35.915 20.1964 35.915C19.7649 35.915 19.4152 36.2648 19.4152 36.6963C19.4152 37.1278 19.7649 37.4775 20.1964 37.4775Z" fill="#FF6C6C"/>
<path d="M15.7031 9.89844H15.2344V9.42969C15.2344 8.99828 14.8845 8.64844 14.4531 8.64844C14.0217 8.64844 13.6719 8.99828 13.6719 9.42969V9.89844H13.2031C12.7717 9.89844 12.4219 10.2483 12.4219 10.6797C12.4219 11.1111 12.7717 11.4609 13.2031 11.4609H13.6719V11.9297C13.6719 12.3611 14.0217 12.7109 14.4531 12.7109C14.8845 12.7109 15.2344 12.3611 15.2344 11.9297V11.4609H15.7031C16.1345 11.4609 16.4844 11.1111 16.4844 10.6797C16.4844 10.2483 16.1345 9.89844 15.7031 9.89844Z" fill="#FF6C6C"/>
<path d="M26.6146 72.1094H26.1459V71.6406C26.1459 71.2092 25.796 70.8594 25.3646 70.8594C24.9332 70.8594 24.5834 71.2092 24.5834 71.6406V72.1094H24.1146C23.6832 72.1094 23.3334 72.4592 23.3334 72.8906C23.3334 73.322 23.6832 73.6719 24.1146 73.6719H24.5834V74.1406C24.5834 74.572 24.9332 74.9219 25.3646 74.9219C25.796 74.9219 26.1459 74.572 26.1459 74.1406V73.6719H26.6146C27.046 73.6719 27.3959 73.322 27.3959 72.8906C27.3959 72.4592 27.0462 72.1094 26.6146 72.1094Z" fill="#FF6C6C"/>
<path d="M67.4731 12.7051H67.0044V12.2363C67.0044 11.8049 66.6547 11.4551 66.2231 11.4551C65.7916 11.4551 65.4419 11.8049 65.4419 12.2363V12.7051H64.9731C64.5416 12.7051 64.1919 13.0549 64.1919 13.4863C64.1919 13.9177 64.5416 14.2676 64.9731 14.2676H65.4419V14.7363C65.4419 15.1677 65.7916 15.5176 66.2231 15.5176C66.6547 15.5176 67.0044 15.1677 67.0044 14.7363V14.2676H67.4731C67.9047 14.2676 68.2544 13.9177 68.2544 13.4863C68.2544 13.0549 67.9049 12.7051 67.4731 12.7051Z" fill="#8383FF"/>
<path d="M22.5343 7.60434C22.3343 7.60434 22.1344 7.52809 21.9818 7.37559L21.2843 6.67809L20.5868 7.37559C20.2816 7.68059 19.7871 7.68059 19.4819 7.37559C19.1768 7.07043 19.1768 6.57574 19.4819 6.27074L20.7319 5.02074C21.0371 4.71574 21.5316 4.71574 21.8368 5.02074L23.0868 6.27074C23.3919 6.5759 23.3919 7.07059 23.0868 7.37559C22.9341 7.52793 22.7343 7.60434 22.5343 7.60434Z" fill="#FF9D33"/>
<path d="M35.9798 75.5702C35.7798 75.5702 35.58 75.4939 35.4273 75.3414L34.7298 74.6439L34.0323 75.3414C33.7272 75.6464 33.2326 75.6464 32.9275 75.3414C32.6223 75.0363 32.6223 74.5416 32.9275 74.2366L34.1775 72.9866C34.4826 72.6816 34.9772 72.6816 35.2823 72.9866L36.5323 74.2366C36.8375 74.5417 36.8375 75.0364 36.5323 75.3414C36.3797 75.4938 36.1797 75.5702 35.9798 75.5702Z" fill="#8383FF"/>
<path d="M53.958 14.8066V29.6957C53.958 30.0129 53.7658 30.2988 53.4705 30.4191L40.2955 35.7957C40.1064 35.8723 39.8939 35.8723 39.7049 35.7957L26.5299 30.4191C26.2345 30.2988 26.0424 30.0129 26.0424 29.6957V14.8066H53.958Z" fill="#4D4DFF"/>
<path d="M53.958 14.8066V19.0582L41.1814 24.2707C40.8049 24.4254 40.4064 24.5035 40.0002 24.5035C39.5939 24.5035 39.1955 24.4254 38.8189 24.2707L26.0424 19.0582V14.8066H53.958Z" fill="#2C27FF"/>
<path d="M39.7048 4.55398L19.9744 12.6041C19.3263 12.8685 19.3263 13.7863 19.9744 14.0509L39.7048 22.101C39.8941 22.1782 40.1059 22.1782 40.2952 22.101L60.0256 14.0509C60.6737 13.7865 60.6737 12.8687 60.0256 12.6041L40.2952 4.55398C40.1059 4.4768 39.8941 4.4768 39.7048 4.55398Z" fill="#8383FF"/>
<path d="M51.494 49.5308H47.5687C47.1373 49.5308 46.7875 49.181 46.7875 48.7496V44.2138C46.7875 42.6983 48.0161 41.4697 49.5315 41.4697C51.047 41.4697 52.2756 42.6983 52.2756 44.2138V48.7496C52.2753 49.181 51.9256 49.5308 51.494 49.5308Z" fill="#FF7300"/>
<path d="M49.5313 42.7706C51.1941 42.7706 52.5421 41.4226 52.5421 39.7598C52.5421 38.097 51.1941 36.749 49.5313 36.749C47.8685 36.749 46.5205 38.097 46.5205 39.7598C46.5205 41.4226 47.8685 42.7706 49.5313 42.7706Z" fill="#FFC599"/>
<path d="M73.7486 56.1326H71.4133V21.5936C71.4133 19.68 69.8566 18.1234 67.943 18.1234H54.7386V17.0517L60.321 14.7741C60.9116 14.5331 61.2933 13.9653 61.2933 13.3275C61.2933 12.6895 60.9117 12.1217 60.321 11.8806L40.5903 3.83047C40.2099 3.675 39.7903 3.675 39.4097 3.83047L19.6792 11.8806C19.0886 12.1216 18.7071 12.6895 18.7071 13.3275C18.7071 13.9653 19.0888 14.5331 19.6794 14.7741L25.2617 17.0517V29.6953C25.2617 30.3333 25.6433 30.9011 26.2341 31.142L39.4099 36.5178C39.6002 36.5956 39.8003 36.6344 40.0002 36.6344C40.2002 36.6344 40.4002 36.5955 40.5903 36.5178L48.75 33.1886V36.0489C47.0327 36.41 45.7392 37.9364 45.7392 39.7595C45.7392 40.6923 46.0785 41.5469 46.6391 42.2081C46.2421 42.7783 46.006 43.4683 46.006 44.2141V48.7498C46.006 49.6114 46.7069 50.3123 47.5685 50.3123H51.4939C52.3555 50.3123 53.0564 49.6114 53.0564 48.7498V44.2141C53.0564 43.468 52.8227 42.7758 52.4255 42.2056C52.9849 41.5448 53.3232 40.6911 53.3232 39.7595C53.3232 37.9364 52.0297 36.41 50.3124 36.0489V32.5511L53.7661 31.142C54.3567 30.9011 54.7385 30.3331 54.7385 29.6953V19.6859H67.9428C68.9947 19.6859 69.8506 20.5417 69.8506 21.5936V56.9139C69.8506 57.3453 70.2003 57.6951 70.6319 57.6951H73.7485C74.1792 57.6951 74.5297 58.0456 74.5297 58.4764V62.4155C74.5297 62.8462 74.1792 63.1967 73.7485 63.1967H6.25159C5.82081 63.1967 5.47034 62.8462 5.47034 62.4155V58.4764C5.47034 58.0456 5.82081 57.6951 6.25159 57.6951H27.5024L29.5141 60.0191C29.6625 60.1905 29.878 60.2891 30.1047 60.2891H49.8953C50.1221 60.2891 50.3375 60.1906 50.486 60.0191L52.4975 57.6951H65.8505C66.2821 57.6951 66.6317 57.3453 66.6317 56.9139C66.6317 56.4825 66.2821 56.1326 65.8505 56.1326H52.4975C52.0438 56.1326 51.6131 56.3295 51.3163 56.6725L49.5381 58.7264H30.4616L28.6836 56.6725C28.3867 56.3294 27.9561 56.1326 27.5022 56.1326H10.1494V21.5936C10.1494 20.5417 11.0052 19.6859 12.0571 19.6859H21.2608C21.6922 19.6859 22.0421 19.3361 22.0421 18.9047C22.0421 18.4733 21.6922 18.1234 21.2608 18.1234H12.0572C10.1438 18.1234 8.58706 19.6802 8.58706 21.5936V56.1326H6.25159C4.95924 56.1326 3.90784 57.1841 3.90784 58.4764V62.4155C3.90784 63.7078 4.95924 64.7592 6.25159 64.7592H73.7485C75.0408 64.7592 76.0922 63.7078 76.0922 62.4155V58.4764C76.0924 57.1841 75.0411 56.1326 73.7486 56.1326ZM50.5731 48.7498V46.4061C50.5731 45.9747 50.2235 45.6248 49.7919 45.6248C49.3603 45.6248 49.0106 45.9747 49.0106 46.4061V48.7498H47.5686V44.2141C47.5686 43.8295 47.6821 43.4723 47.8742 43.1695C48.3752 43.4139 48.9375 43.5516 49.5314 43.5516C50.1252 43.5516 50.6872 43.4141 51.1881 43.1698C51.3803 43.4725 51.4942 43.8295 51.4942 44.2142L51.4952 48.7498H50.5731ZM51.761 39.7595C51.761 40.9889 50.761 41.9891 49.5314 41.9891C48.3019 41.9891 47.3019 40.9889 47.3019 39.7595C47.3019 38.5302 48.3019 37.53 49.5314 37.53C50.761 37.53 51.761 38.5302 51.761 39.7595ZM40 5.27703L59.7305 13.3272L49.2106 17.6194L38.2041 12.7717C37.8091 12.5977 37.348 12.7767 37.1742 13.1719C37.0003 13.5667 37.1794 14.0278 37.5744 14.2017L47.1985 18.4406L40 21.3775L20.2696 13.3272L40 5.27703ZM40 35.0711L26.8241 29.6952V17.6891L39.4097 22.8241C39.6 22.9019 39.8002 22.9406 40 22.9406C40.2 22.9406 40.4 22.9017 40.5902 22.8241L48.75 19.495V31.5011L40 35.0711ZM50.3125 30.8636V18.8575L53.176 17.6892V29.6953L50.3125 30.8636Z" fill="#2626BC"/>
</g>
<defs>
<linearGradient id="paint0_linear_8_1736" x1="142.541" y1="-0.5651" x2="-69.0836" y2="75.1312" gradientUnits="userSpaceOnUse">
<stop stop-color="#FFD9D9" stop-opacity="0"/>
<stop offset="0.9981" stop-color="#FFB3B3"/>
</linearGradient>
<clipPath id="clip0_8_1736">
<rect width="80" height="80" fill="white"/>
</clipPath>
</defs>
</svg>
