<svg width="80" height="80" viewBox="0 0 80 80" fill="none" xmlns="http://www.w3.org/2000/svg">
<g clip-path="url(#clip0_8_1508)">
<path d="M71.2207 2.06809C69.4763 -0.0545655 63.1235 -0.795659 59.9951 1.05278C42.9544 11.1209 46.4752 48.2182 28.1115 44.7593C22.1579 43.6379 23.2346 36.0765 13.7387 34.362C9.08242 33.5214 1.54008 38.6643 0.617263 48.0015C-0.302269 57.3059 3.07398 75.3847 15.7071 78.9442C33.2907 83.8986 36.1479 70.1484 51.834 63.9714C58.7027 61.2665 62.0063 72.2783 72.3971 69.5245C75.4771 68.7082 77.7868 61.3467 76.5235 57.4654C74.144 50.1536 62.7577 49.7548 70.2957 39.9692C76.7882 31.5409 81.7062 20.322 78.5377 16.3107C77.0741 14.4579 72.7327 16.635 70.1627 11.7186C69.0384 9.56762 74.7438 6.35528 71.2207 2.06809Z" fill="url(#paint0_linear_8_1508)"/>
<path opacity="0.1" d="M75.3349 73.6477C74.9034 73.6477 74.5537 73.9975 74.5537 74.4289V75.1333H70.5979V18.6541L58.2244 33.1847L51.1755 30.0522L45.7029 37.4575C45.0912 36.2222 44.2577 35.0688 43.199 34.0589C39.7696 30.7882 34.8452 29.9322 30.629 31.4775C30.6716 31.1133 30.696 30.7435 30.696 30.3679C30.696 25.1446 26.4618 20.9104 21.2385 20.9104C16.0152 20.9104 11.781 25.1446 11.781 30.3679C11.781 35.5911 16.0154 39.8254 21.2385 39.8254C21.8909 39.8254 22.5277 39.7593 23.1429 39.6335C22.2507 42.9041 22.7505 46.475 24.6457 49.408L24.012 52.7482C23.9487 53.0819 24.1052 53.3897 24.3612 53.5532L22.9271 54.408L14.501 66.7133L7.16383 69.5722V13.0557H7.8682C8.29977 13.0557 8.64945 12.7058 8.64945 12.2744C8.64945 11.843 8.29977 11.4932 7.8682 11.4932H4.89648C4.46492 11.4932 4.11523 11.843 4.11523 12.2744C4.11523 12.7058 4.46492 13.0557 4.89648 13.0557H5.60102V75.9146C5.59273 76.3343 5.96258 76.7041 6.38227 76.6958H74.5537V77.4002C74.5537 77.8316 74.9034 78.1814 75.3349 78.1814C75.7665 78.1814 76.1162 77.8316 76.1162 77.4002V74.4288C76.1162 73.9974 75.7663 73.6477 75.3349 73.6477Z" fill="#0000CC"/>
<path d="M6.3822 66.1271L14.5006 62.9637L22.9267 50.6584L32.0189 45.2384L36.0853 37.6105L42.5452 37.9805L51.1753 26.3024L58.2244 29.4349L70.5978 14.9043V72.1648H6.3822V66.1271Z" fill="#6C6CFF"/>
<path d="M43.4093 51.4111C39.2953 55.5252 32.9609 56.0627 28.2656 53.0283L24.925 53.6611C24.3844 53.7643 23.9093 53.2893 24.0125 52.7486L24.5968 49.6627L32.0187 45.2377L36.0859 37.6111L42.5453 37.9799L44.4312 35.4268C48.1156 40.1814 47.7734 47.0471 43.4093 51.4111Z" fill="#4D4DFF"/>
<path d="M65.9109 27.6387V72.1637L20.7297 72.1652H10.7484V69.4559L17.5515 66.8059L26.2125 54.1559L35.5406 48.5949L38.8109 42.4605L44.8078 42.8043L52.7094 32.1137L59.5219 35.1402L65.9109 27.6387Z" fill="#8383FF"/>
<path d="M43.4094 51.4109C39.2953 55.525 32.9609 56.0625 28.2656 53.0281L28.0297 53.0734L35.5406 48.5953L38.8109 42.4609L44.8078 42.8047L46.6844 40.2656C47.5265 44.1594 46.4344 48.3859 43.4094 51.4109Z" fill="#6C6CFF"/>
<path d="M65.9109 37.6387V72.1637L20.7296 72.1652L26.2124 64.1559L35.5406 58.5949L38.8109 52.4606L44.8077 52.8043L52.7093 42.1137L59.5218 45.1402L65.9109 37.6387Z" fill="#9494FF"/>
<path d="M22.8006 52.8601C24.2069 52.8601 25.3469 51.7201 25.3469 50.3138C25.3469 48.9076 24.2069 47.7676 22.8006 47.7676C21.3944 47.7676 20.2544 48.9076 20.2544 50.3138C20.2544 51.7201 21.3944 52.8601 22.8006 52.8601Z" fill="#D9D9FF"/>
<path d="M43.409 47.662C48.2131 42.8579 48.1429 35.0255 43.1989 30.3098C38.524 25.8509 31.0689 25.874 26.4201 30.3599C22.1625 34.4684 21.5725 40.903 24.6454 45.659L24.0117 48.9991C23.909 49.5404 24.3837 50.0149 24.9248 49.9123L28.265 49.2785C32.9617 52.3132 39.2951 51.7757 43.409 47.662Z" fill="#FF6C6C"/>
<path d="M30.6965 30.3691C30.6965 35.0848 27.2433 38.9941 22.7277 39.7082C22.5558 36.3348 23.7855 32.902 26.4199 30.3598C27.584 29.2379 28.923 28.3941 30.3512 27.8301C30.5762 28.6379 30.6965 29.4895 30.6965 30.3691Z" fill="#FF4D4D"/>
<path d="M40.7487 39.6146L35.5327 32.3268C35.191 31.8494 34.4813 31.8494 34.1398 32.3268L28.9238 39.6146C28.4816 40.2324 29.003 41.0774 29.7537 40.9591L31.7676 40.6418V45.3677C31.7676 45.8407 32.151 46.2243 32.6241 46.2243H37.0485C37.5215 46.2243 37.9051 45.8408 37.9051 45.3677V40.6418L39.919 40.9591C40.6693 41.0774 41.1909 40.2325 40.7487 39.6146Z" fill="#FFEEEE"/>
<path d="M21.2381 36.0761C26.4614 36.0761 30.6956 31.8419 30.6956 26.6186C30.6956 21.3954 26.4614 17.1611 21.2381 17.1611C16.0149 17.1611 11.7806 21.3954 11.7806 26.6186C11.7806 31.8419 16.0149 36.0761 21.2381 36.0761Z" fill="#FFC599"/>
<path d="M21.2383 33.7661C25.1855 33.7661 28.3854 30.5662 28.3854 26.6189C28.3854 22.6716 25.1855 19.4717 21.2383 19.4717C17.291 19.4717 14.0911 22.6716 14.0911 26.6189C14.0911 30.5662 17.291 33.7661 21.2383 33.7661Z" fill="#FF9D33"/>
<path d="M22.2561 25.837H22.0192V24.2463H23.4964C23.9278 24.2463 24.2777 23.8965 24.2777 23.4651C24.2777 23.0337 23.9278 22.6838 23.4964 22.6838H22.0192V22.291C22.0192 21.8596 21.6694 21.5098 21.238 21.5098C20.8066 21.5098 20.4567 21.8596 20.4567 22.291V22.6838H20.2199C18.9197 22.6838 17.8621 23.7415 17.8621 25.0416C17.8621 26.3418 18.9197 27.3995 20.2199 27.3995H20.4567V28.9901H18.9797C18.5483 28.9901 18.1985 29.3399 18.1985 29.7713C18.1985 30.2027 18.5483 30.5526 18.9797 30.5526H20.4567V30.9454C20.4567 31.3768 20.8066 31.7266 21.238 31.7266C21.6694 31.7266 22.0192 31.3768 22.0192 30.9454V30.5526H22.2561C23.5561 30.5526 24.6138 29.4949 24.6138 28.1948C24.6138 26.8946 23.5563 25.837 22.2561 25.837ZM20.22 25.837C19.7814 25.837 19.4247 25.4802 19.4247 25.0416C19.4247 24.603 19.7814 24.2463 20.22 24.2463H20.4569V25.837H20.22ZM22.2561 28.9901H22.0192V27.3995H22.2561C22.6946 27.3995 23.0513 27.7562 23.0513 28.1948C23.0513 28.6334 22.6947 28.9901 22.2561 28.9901Z" fill="#FFD6BB"/>
<path d="M51.426 29.1638C52.8323 29.1638 53.9723 28.0238 53.9723 26.6175C53.9723 25.2113 52.8323 24.0713 51.426 24.0713C50.0198 24.0713 48.8798 25.2113 48.8798 26.6175C48.8798 28.0238 50.0198 29.1638 51.426 29.1638Z" fill="#D9D9FF"/>
<path d="M75.3349 69.8977C74.9034 69.8977 74.5537 70.2475 74.5537 70.6789V71.3833H7.16352V66.6608L14.7837 63.6921C14.9301 63.635 15.0559 63.5352 15.1448 63.4055L21.9154 53.5172C22.198 53.5955 22.4945 53.6407 22.8016 53.6407C24.5795 53.6407 26.0318 52.2371 26.1198 50.4799L28.1101 50.1029C30.1584 51.3543 32.4948 51.9764 34.8305 51.9763C37.4618 51.9761 40.0915 51.186 42.3026 49.615C42.6545 49.365 42.737 48.8774 42.4871 48.5257C42.237 48.1739 41.7491 48.0916 41.3977 48.3413C37.654 51.001 32.5471 51.1139 28.6898 48.6219C28.5213 48.513 28.3171 48.4733 28.1204 48.5105L25.1638 49.0711C25.1601 49.0718 25.1565 49.0714 25.1527 49.0721C25.1493 49.0727 25.1463 49.0743 25.1429 49.075L24.7802 49.1438L24.9396 48.303C24.9399 48.301 24.9404 48.2988 24.9409 48.2968L25.4134 45.8033C25.4505 45.6063 25.4107 45.4024 25.3018 45.2338C23.641 42.6641 23.0998 39.5189 23.7855 36.5358C27.669 35.538 30.6665 32.313 31.3352 28.3096C35.2754 27.0458 39.6743 28.0283 42.6596 30.8749C46.7418 34.7677 47.3673 40.9455 44.1469 45.5643C43.9002 45.9182 43.9871 46.4052 44.341 46.6519C44.4771 46.7468 44.6329 46.7924 44.7871 46.7924C45.0338 46.7924 45.2768 46.6757 45.4285 46.4578C47.1695 43.9611 47.9698 40.9086 47.682 37.8629C47.5482 36.4483 47.1793 35.0779 46.6052 33.8004L49.7791 29.505C50.2655 29.7836 50.827 29.9452 51.4263 29.9452C52.5673 29.9452 53.5754 29.3675 54.1751 28.4897L57.9079 30.1482C58.0101 30.1936 58.118 30.2155 58.2248 30.2155C58.4488 30.2155 58.6679 30.1191 58.8199 29.9407L71.1934 15.411C71.473 15.0825 71.4335 14.5894 71.1052 14.3097C70.7766 14.03 70.2837 14.0694 70.0038 14.398L58.0088 28.4832L54.7262 27.0247C54.7426 26.891 54.7537 26.7557 54.7537 26.6177C54.7537 24.7829 53.2609 23.2902 51.4262 23.2902C49.5915 23.2902 48.0987 24.7829 48.0987 26.6177C48.0987 27.2835 48.2973 27.9029 48.6352 28.4235L45.791 32.2725C45.2194 31.3538 44.5327 30.5022 43.7374 29.7438C40.4962 26.6532 35.7927 25.4935 31.4765 26.6414C31.4765 26.6335 31.4771 26.6257 31.4771 26.6177C31.4771 24.5125 30.8409 22.4885 29.6371 20.7643C29.3901 20.4104 28.9032 20.3239 28.5493 20.571C28.1955 20.818 28.109 21.305 28.356 21.6588C29.3757 23.1194 29.9148 24.8341 29.9148 26.6177C29.9148 31.4019 26.0226 35.2939 21.2385 35.2939C16.4543 35.2939 12.5621 31.4018 12.5621 26.6177C12.5621 21.8336 16.4543 17.9414 21.2385 17.9414C22.7393 17.9414 24.2205 18.333 25.522 19.0738C25.8973 19.2871 26.374 19.1561 26.5874 18.7813C26.8007 18.4063 26.6698 17.9293 26.2949 17.7158C24.7584 16.8411 23.0099 16.3788 21.2385 16.3788C15.5927 16.3788 10.9996 20.9719 10.9996 26.6175C10.9996 32.2632 15.5927 36.8563 21.2385 36.8563C21.5407 36.8563 21.8391 36.8405 22.1346 36.8147C21.5826 39.9136 22.1748 43.1227 23.8207 45.8135L23.5809 47.0797C23.3271 47.0186 23.0662 46.9857 22.8016 46.9857C20.9665 46.9857 19.4735 48.478 19.4735 50.3122C19.4735 51.2764 19.8882 52.1435 20.5454 52.7518L13.9916 62.3233L7.16367 64.9836V9.30566H7.86805C8.29961 9.30566 8.6493 8.95582 8.6493 8.52441C8.6493 8.09301 8.29961 7.74316 7.86805 7.74316H4.89648C4.46492 7.74316 4.11523 8.09301 4.11523 8.52441C4.11523 8.95582 4.46492 9.30566 4.89648 9.30566H5.60102V72.1646C5.60102 72.3718 5.6832 72.5705 5.82992 72.7171C5.97648 72.8636 6.17508 72.9458 6.38227 72.9458H74.5537V73.6502C74.5537 74.0816 74.9034 74.4314 75.3349 74.4314C75.7665 74.4314 76.1162 74.0816 76.1162 73.6502V70.6788C76.1162 70.2474 75.7663 69.8977 75.3349 69.8977ZM51.426 24.8529C52.3993 24.8529 53.191 25.6446 53.191 26.6179C53.191 27.5911 52.3993 28.3829 51.426 28.3829C50.4527 28.3829 49.661 27.5911 49.661 26.6179C49.661 25.6446 50.4527 24.8529 51.426 24.8529ZM22.8015 48.5485C22.9679 48.5485 23.132 48.5719 23.2895 48.6174L23.2449 48.8521C23.1479 49.3604 23.3085 49.8824 23.6746 50.2485C23.9091 50.483 24.2077 50.6321 24.5252 50.6844C24.3541 51.4799 23.6465 52.0782 22.8013 52.0782C21.8279 52.0782 21.0357 51.2861 21.0357 50.3125C21.0359 49.3397 21.8279 48.5485 22.8015 48.5485Z" fill="#0000CC"/>
<path d="M41.9701 52.6422C40.6514 53.6047 39.1811 54.2672 37.6545 54.6297L38.8108 52.4609L41.9701 52.6422Z" fill="#8383FF"/>
<path d="M42.2649 21.6581C42.065 21.6581 41.8649 21.5818 41.7125 21.4293L40.8586 20.5755L40.0047 21.4293C39.6999 21.7343 39.2049 21.7343 38.9 21.4293C38.5949 21.1241 38.5949 20.6295 38.9 20.3245L40.3063 18.9182C40.6111 18.6132 41.1061 18.6132 41.411 18.9182L42.8172 20.3245C43.1224 20.6296 43.1224 21.1243 42.8172 21.4293C42.6649 21.5818 42.4647 21.6581 42.2649 21.6581Z" fill="#FF6C6C"/>
<path d="M46.5493 15.8348C46.3494 15.8348 46.1493 15.7586 45.9969 15.6061L45.143 14.7523L44.2891 15.6061C43.9843 15.9111 43.4893 15.9111 43.1844 15.6061C42.8793 15.3009 42.8793 14.8062 43.1844 14.5012L44.5907 13.095C44.8955 12.79 45.3905 12.79 45.6954 13.095L47.1016 14.5012C47.4068 14.8064 47.4068 15.3011 47.1016 15.6061C46.9493 15.7586 46.7491 15.8348 46.5493 15.8348Z" fill="#FF9D33"/>
<path d="M60.9744 19.3475C60.7746 19.3475 60.5744 19.2712 60.4221 19.1187L59.5682 18.265L58.7143 19.1187C58.4094 19.4237 57.9144 19.4237 57.6096 19.1187C57.3044 18.8136 57.3044 18.3189 57.6096 18.0139L59.0159 16.6077C59.3207 16.3027 59.8157 16.3027 60.1205 16.6077L61.5268 18.0139C61.8319 18.3191 61.8319 18.8137 61.5268 19.1187C61.3744 19.2711 61.1744 19.3475 60.9744 19.3475Z" fill="#6C6CFF"/>
<path d="M14.0913 14.4286C13.8914 14.4286 13.6913 14.3523 13.5389 14.1998C13.2338 13.8946 13.2338 13.4 13.5389 13.095L15.1014 11.5325C15.4063 11.2275 15.9013 11.2275 16.2061 11.5325C16.5113 11.8376 16.5113 12.3323 16.2061 12.6373L14.6436 14.1998C14.4911 14.3523 14.2911 14.4286 14.0913 14.4286Z" fill="#6C6CFF"/>
<path d="M14.0913 56.5233C13.8914 56.5233 13.6913 56.447 13.5389 56.2945C13.2338 55.9894 13.2338 55.4947 13.5389 55.1897L15.1014 53.6272C15.4063 53.3222 15.9013 53.3222 16.2061 53.6272C16.5113 53.9323 16.5113 54.427 16.2061 54.732L14.6436 56.2945C14.4911 56.447 14.2911 56.5233 14.0913 56.5233Z" fill="#FF6C6C"/>
</g>
<defs>
<linearGradient id="paint0_linear_8_1508" x1="13.362" y1="79.4364" x2="80.9846" y2="11.8137" gradientUnits="userSpaceOnUse">
<stop stop-color="#FFD9D9" stop-opacity="0"/>
<stop offset="0.9981" stop-color="#FFB3B3"/>
</linearGradient>
<clipPath id="clip0_8_1508">
<rect width="80" height="80" fill="white"/>
</clipPath>
</defs>
</svg>
