<svg width="80" height="80" viewBox="0 0 80 80" fill="none" xmlns="http://www.w3.org/2000/svg">
<g clip-path="url(#clip0_8_1665)">
<path d="M67.3299 26.8575C66.0242 25.5519 64.5133 24.5258 62.8428 23.7692C58.4646 21.7864 55.0224 18.2369 53.0875 13.8372C49.5067 5.69454 41.3727 0.00719417 31.9085 6.66727e-06C19.5161 -0.00936833 9.2269 9.86923 8.7605 22.2528C8.56097 27.5531 10.1444 32.4748 12.9589 36.4667C16.5335 41.5367 17.4622 47.9952 15.6185 53.9183C12.9991 62.3334 13.9124 70.3086 18.8955 75.2919C27.628 84.0244 45.5496 80.2613 58.9244 66.8864C72.2991 53.5116 76.0624 35.5902 67.3299 26.8575Z" fill="url(#paint0_linear_8_1665)"/>
<path opacity="0.1" d="M62.6302 34.4007C63.4932 34.4007 64.1927 33.7012 64.1927 32.8382V30.9184C64.1927 30.0554 63.4932 29.3559 62.6302 29.3559H60.2344V28.9418C60.2344 25.2546 57.2453 22.2654 53.558 22.2654H52.5067V10.2715H28.2746V22.2652H27.2233C23.5361 22.2652 20.5469 25.2543 20.5469 28.9416V29.3559H18.1511C17.2882 29.3559 16.5886 30.0554 16.5886 30.9184V32.8382C16.5886 33.7012 17.2882 34.4007 18.1511 34.4007H20.5469V49.8174H18.1511C17.2882 49.8174 16.5886 50.517 16.5886 51.3799V53.2998C16.5886 54.1627 17.2882 54.8623 18.1511 54.8623H20.5469V55.2763C20.5469 58.9635 23.536 61.9527 27.2233 61.9527H28.275V73.1652C28.275 73.5966 28.6249 73.9465 29.0563 73.9465H51.725C52.1564 73.9465 52.5063 73.5966 52.5063 73.1652V61.9527H53.558C57.2452 61.9527 60.2344 58.9637 60.2344 55.2763V54.8621H62.6302C63.4932 54.8621 64.1927 54.1626 64.1927 53.2996V51.3798C64.1927 50.5168 63.4932 49.8173 62.6302 49.8173H60.2344V34.4005H62.6302V34.4007Z" fill="#0000CC"/>
<path d="M28.2745 6.05273H52.5069V21.8412H28.2745V6.05273Z" fill="#6C6CFF"/>
<path d="M28.275 53.9385H52.5063V69.7275H28.275V53.9385Z" fill="#6C6CFF"/>
<path d="M28.275 53.9385H52.5063V61.6322H28.275V53.9385Z" fill="#4D4DFF"/>
<path d="M62.6302 50.6445H58.9844V45.5996H62.6302C63.4931 45.5996 64.1927 46.2991 64.1927 47.1621V49.082C64.1927 49.9448 63.4931 50.6445 62.6302 50.6445Z" fill="white"/>
<path d="M62.6302 30.1825H58.9844V25.1377H62.6302C63.4931 25.1377 64.1927 25.8372 64.1927 26.7002V28.62C64.1927 29.4829 63.4931 30.1825 62.6302 30.1825Z" fill="white"/>
<path d="M18.1511 50.6445H21.7969V45.5996H18.1511C17.2882 45.5996 16.5886 46.2991 16.5886 47.1621V49.082C16.5886 49.9448 17.2882 50.6445 18.1511 50.6445Z" fill="white"/>
<path d="M18.1511 30.1825H21.7969V25.1377H18.1511C17.2882 25.1377 16.5886 25.8372 16.5886 26.7002V28.62C16.5886 29.4829 17.2882 30.1825 18.1511 30.1825Z" fill="white"/>
<path d="M53.558 57.7344H27.2233C23.5361 57.7344 20.5469 54.7453 20.5469 51.058V24.7233C20.5469 21.0361 23.5359 18.0469 27.2233 18.0469H53.558C57.2452 18.0469 60.2344 21.0359 60.2344 24.7233V51.058C60.2344 54.7453 57.2453 57.7344 53.558 57.7344Z" fill="#8383FF"/>
<path d="M34.7591 18.0469H27.2233C23.5361 18.0469 20.5469 21.0359 20.5469 24.7233V32.2591C25.2842 27.5217 30.0217 22.7842 34.7591 18.0469Z" fill="#B3B3FF"/>
<path d="M43.9147 18.0469H37.5847L20.5469 35.0847V41.3306L43.9147 18.0469Z" fill="#B3B3FF"/>
<path d="M20.5469 32.1094H60.2344V44.2969H20.5469V32.1094Z" fill="#FFC599"/>
<path d="M29.8016 32.1094L20.5469 41.3312V35.0844L23.5219 32.1094H29.8016Z" fill="#FFE8DC"/>
<path d="M52.5068 62.2656C52.0753 62.2656 51.7256 62.6155 51.7256 63.0469V69.728C51.7256 70.1594 52.0753 70.5092 52.5068 70.5092C52.9384 70.5092 53.2881 70.1594 53.2881 69.728V63.0469C53.2881 62.6155 52.9384 62.2656 52.5068 62.2656Z" fill="#0000CC"/>
<path d="M62.6302 30.9632C63.9225 30.9632 64.9739 29.9118 64.9739 28.6195V26.6996C64.9739 25.4073 63.9225 24.3559 62.6302 24.3559H61.0063C60.8143 20.4137 57.5471 17.2654 53.558 17.2654H53.288V6.05273C53.288 5.62133 52.9383 5.27148 52.5068 5.27148C52.0752 5.27148 51.7255 5.62133 51.7255 6.05273V17.2652H33.5871C33.1555 17.2652 32.8058 17.6151 32.8058 18.0465C32.8058 18.4779 33.1555 18.8277 33.5871 18.8277H53.558C56.8086 18.8277 59.4532 21.4723 59.4532 24.7229V51.0576C59.4532 54.3082 56.8086 56.9527 53.558 56.9527H27.2233C23.9727 56.9527 21.3282 54.3082 21.3282 51.0576V24.7229C21.3282 21.4723 23.9727 18.8277 27.2233 18.8277H28.2746C28.7061 18.8277 29.0558 18.4779 29.0558 18.0465V6.05273C29.0558 5.62133 28.7061 5.27148 28.2746 5.27148C27.843 5.27148 27.4933 5.62133 27.4933 6.05273V17.2652H27.2233C23.2342 17.2652 19.9671 20.4135 19.775 24.3557H18.1511C16.8588 24.3557 15.8074 25.4071 15.8074 26.6995V28.6193C15.8074 29.9116 16.8588 30.963 18.1511 30.963H19.7657V44.8173H18.1511C16.8588 44.8173 15.8074 45.8687 15.8074 47.161V49.081C15.8074 50.3734 16.8588 51.4248 18.1511 51.4248H19.775C19.9671 55.3671 23.2344 58.5152 27.2233 58.5152H27.4935V69.7277C27.4935 70.1591 27.8432 70.509 28.2747 70.509C28.7063 70.509 29.056 70.1591 29.056 69.7277V58.5152H53.5582C57.5471 58.5152 60.8143 55.367 61.0064 51.4248H62.6303C63.9227 51.4248 64.9741 50.3734 64.9741 49.081V47.161C64.9741 45.8687 63.9227 44.8173 62.6303 44.8173H61.0157V30.963H62.6302V30.9632ZM18.1511 29.4007C17.7203 29.4007 17.3699 29.0502 17.3699 28.6195V26.6996C17.3699 26.2688 17.7203 25.9184 18.1511 25.9184H19.7657V29.4007H18.1511ZM17.3699 49.081V47.161C17.3699 46.7302 17.7203 46.3798 18.1511 46.3798H19.7657V49.8623H18.1511C17.7203 49.8623 17.3699 49.5116 17.3699 49.081ZM63.4114 26.6995V28.6193C63.4114 29.0501 63.061 29.4005 62.6302 29.4005H61.0157V25.9182H62.6302C63.061 25.9182 63.4114 26.2688 63.4114 26.6995ZM62.6302 46.3798C63.061 46.3798 63.4114 46.7302 63.4114 47.161V49.081C63.4114 49.5118 63.061 49.8623 62.6302 49.8623H61.0157V46.3798H62.6302Z" fill="#0000CC"/>
<path d="M52.7875 23.21H46.4844C46.053 23.21 45.7031 23.5598 45.7031 23.9912C45.7031 24.4226 46.053 24.7725 46.4844 24.7725H52.828C53.2827 24.7725 53.6464 24.3842 53.6061 23.9212C53.5705 23.5107 53.1995 23.21 52.7875 23.21Z" fill="white"/>
<path d="M27.5621 41.0204H26.729C25.7121 41.0204 24.8848 40.1932 24.8848 39.1764V36.605C24.8848 35.5881 25.7121 34.7607 26.729 34.7607H27.5621C28.579 34.7607 29.4063 35.5881 29.4063 36.605V39.1764C29.4062 40.1931 28.5788 41.0204 27.5621 41.0204ZM26.7288 36.3232C26.5735 36.3232 26.4471 36.4496 26.4471 36.605V39.1764C26.4471 39.3317 26.5735 39.4579 26.7288 39.4579H27.562C27.7173 39.4579 27.8437 39.3315 27.8437 39.1764V36.605C27.8437 36.4496 27.7173 36.3232 27.562 36.3232H26.7288Z" fill="#FF7300"/>
<path d="M34.0435 40.9507H31.2141C30.8825 40.9507 30.5872 40.7415 30.4772 40.4287C30.3672 40.1158 30.4666 39.7677 30.725 39.5601C31.513 38.9274 32.7322 37.7709 32.976 37.1809C33.0697 36.9541 33.0549 36.704 32.9372 36.5282C32.846 36.3915 32.7099 36.3223 32.5332 36.3223C32.2366 36.3223 31.9954 36.5635 31.9954 36.8601C31.9954 37.2915 31.6457 37.6413 31.2141 37.6413C30.7825 37.6413 30.4329 37.2915 30.4329 36.8601C30.4329 35.702 31.375 34.7598 32.5332 34.7598C33.233 34.7598 33.8536 35.0877 34.236 35.6596C34.646 36.2724 34.7147 37.0643 34.42 37.7776C34.2085 38.2891 33.7329 38.8709 33.2335 39.3882H34.0435C34.475 39.3882 34.8247 39.738 34.8247 40.1694C34.8247 40.6008 34.475 40.9507 34.0435 40.9507Z" fill="#FF7300"/>
<path d="M43.7214 41.0204H42.8884C41.8715 41.0204 41.0442 40.1932 41.0442 39.1764V36.605C41.0442 35.5881 41.8715 34.7607 42.8884 34.7607H43.7214C44.7382 34.7607 45.5656 35.5881 45.5656 36.605V39.1764C45.5656 40.1931 44.7382 41.0204 43.7214 41.0204ZM42.8884 36.3232C42.7331 36.3232 42.6067 36.4496 42.6067 36.605V39.1764C42.6067 39.3317 42.7331 39.4579 42.8884 39.4579H43.7214C43.8767 39.4579 44.0031 39.3315 44.0031 39.1764V36.605C44.0031 36.4496 43.8767 36.3232 43.7214 36.3232H42.8884Z" fill="#FF7300"/>
<path d="M50.2029 40.9507H47.3735C47.042 40.9507 46.7467 40.7415 46.6367 40.4287C46.5267 40.1158 46.626 39.7677 46.8845 39.5601C47.6724 38.9274 48.8917 37.7709 49.1354 37.1809C49.2292 36.954 49.2143 36.704 49.0968 36.5282C49.0054 36.3915 48.8695 36.3223 48.6926 36.3223C48.396 36.3223 48.1548 36.5635 48.1548 36.8601C48.1548 37.2915 47.8051 37.6413 47.3735 37.6413C46.942 37.6413 46.5923 37.2915 46.5923 36.8601C46.5923 35.702 47.5345 34.7598 48.6926 34.7598C49.3924 34.7598 50.0132 35.0877 50.3956 35.6598C50.8056 36.2727 50.8742 37.0644 50.5795 37.7777C50.3679 38.2893 49.8923 38.8709 49.3929 39.3882H50.2029C50.6345 39.3882 50.9842 39.738 50.9842 40.1694C50.9842 40.6008 50.6345 40.9507 50.2029 40.9507Z" fill="#FF7300"/>
<path d="M37.9342 37.5072C37.5026 37.5072 37.153 37.1574 37.153 36.726V36.708C37.153 36.2766 37.5026 35.9268 37.9342 35.9268C38.3658 35.9268 38.7155 36.2766 38.7155 36.708V36.726C38.7155 37.1574 38.3658 37.5072 37.9342 37.5072Z" fill="#FF7300"/>
<path d="M37.9342 39.8529C37.5026 39.8529 37.153 39.5031 37.153 39.0717V39.0537C37.153 38.6223 37.5026 38.2725 37.9342 38.2725C38.3658 38.2725 38.7155 38.6223 38.7155 39.0537V39.0717C38.7155 39.5031 38.3658 39.8529 37.9342 39.8529Z" fill="#FF7300"/>
<path d="M55.1151 36.7784C54.9153 36.7784 54.7153 36.7022 54.5628 36.5497L54.2035 36.1906L53.8443 36.5497C53.5395 36.8547 53.0446 36.8548 52.7395 36.5497C52.4345 36.2445 52.4345 35.75 52.7396 35.4448L53.6512 34.5334C53.956 34.2284 54.451 34.2284 54.7559 34.5334L55.6674 35.4448C55.9726 35.75 55.9726 36.2445 55.6676 36.5497C55.5151 36.702 55.3151 36.7784 55.1151 36.7784Z" fill="#FF7300"/>
<path d="M42.6304 25.2289C42.4306 25.2289 42.2304 25.1527 42.0779 25L41.719 24.641L41.3598 25C41.0549 25.305 40.56 25.305 40.2551 25C39.95 24.6949 39.95 24.2002 40.2551 23.8952L41.1667 22.9836C41.3132 22.8371 41.5118 22.7549 41.719 22.7549C41.9262 22.7549 42.1251 22.8372 42.2715 22.9838L43.1829 23.8954C43.4879 24.2005 43.4879 24.6952 43.1828 25.0002C43.0303 25.1527 42.8303 25.2289 42.6304 25.2289Z" fill="white"/>
<path d="M36.2762 25.2288C36.0764 25.2288 35.8762 25.1525 35.7239 25C35.4187 24.6949 35.4187 24.2002 35.7239 23.8952L36.6354 22.9836C36.9403 22.6786 37.4353 22.6786 37.7401 22.9836C38.0453 23.2888 38.0453 23.7835 37.7401 24.0885L36.8286 25C36.6762 25.1525 36.476 25.2288 36.2762 25.2288Z" fill="white"/>
<path d="M27.7096 51.8375C28.6701 51.8375 29.4487 51.0589 29.4487 50.0984C29.4487 49.138 28.6701 48.3594 27.7096 48.3594C26.7492 48.3594 25.9706 49.138 25.9706 50.0984C25.9706 51.0589 26.7492 51.8375 27.7096 51.8375Z" fill="#FF4D4D"/>
<path d="M34.0502 51.8375C35.0107 51.8375 35.7893 51.0589 35.7893 50.0984C35.7893 49.138 35.0107 48.3594 34.0502 48.3594C33.0898 48.3594 32.3112 49.138 32.3112 50.0984C32.3112 51.0589 33.0898 51.8375 34.0502 51.8375Z" fill="#FFC599"/>
<path d="M40.3906 51.8375C41.351 51.8375 42.1296 51.0589 42.1296 50.0984C42.1296 49.138 41.351 48.3594 40.3906 48.3594C39.4301 48.3594 38.6515 49.138 38.6515 50.0984C38.6515 51.0589 39.4301 51.8375 40.3906 51.8375Z" fill="#D9D9FF"/>
<path d="M46.7314 51.8375C47.6918 51.8375 48.4704 51.0589 48.4704 50.0984C48.4704 49.138 47.6918 48.3594 46.7314 48.3594C45.7709 48.3594 44.9923 49.138 44.9923 50.0984C44.9923 51.0589 45.7709 51.8375 46.7314 51.8375Z" fill="#FF8B00"/>
<path d="M53.0719 51.8375C54.0324 51.8375 54.811 51.0589 54.811 50.0984C54.811 49.138 54.0324 48.3594 53.0719 48.3594C52.1115 48.3594 51.3329 49.138 51.3329 50.0984C51.3329 51.0589 52.1115 51.8375 53.0719 51.8375Z" fill="white"/>
<path d="M10.4624 42.4999C10.2625 42.4999 10.0624 42.4236 9.91002 42.2711L8.19127 40.5523C7.88611 40.2472 7.88611 39.7525 8.19127 39.4475L9.91002 37.7288C10.2149 37.4237 10.7099 37.4237 11.0147 37.7288L12.7335 39.4475C13.0386 39.7527 13.0386 40.2473 12.7335 40.5523L11.0147 42.2711C10.8624 42.4236 10.6622 42.4999 10.4624 42.4999ZM9.84846 39.9998L10.4624 40.6138L11.0763 39.9998L10.4624 39.3859L9.84846 39.9998Z" fill="#FF9D33"/>
<path d="M62.4741 66.0526C62.2742 66.0526 62.0741 65.9763 61.9217 65.8238L60.203 64.1051C59.8978 63.7999 59.8978 63.3052 60.203 63.0002L61.9217 61.2815C62.2266 60.9765 62.7216 60.9765 63.0264 61.2815L64.7452 63.0002C65.0503 63.3054 65.0503 63.8001 64.7452 64.1051L63.0264 65.8238C62.8741 65.9763 62.6739 66.0526 62.4741 66.0526ZM61.8602 63.5526L62.4741 64.1665L63.088 63.5526L62.4741 62.9387L61.8602 63.5526Z" fill="#FF6C6C"/>
<path d="M60.2345 13.575C59.1134 13.575 58.2014 12.663 58.2014 11.5419C58.2014 10.4208 59.1134 9.50879 60.2345 9.50879C61.3556 9.50879 62.2677 10.4208 62.2677 11.5419C62.2677 12.663 61.3556 13.575 60.2345 13.575ZM60.2345 11.0713C59.975 11.0713 59.7639 11.2824 59.7639 11.5419C59.7639 11.8014 59.975 12.0125 60.2345 12.0125C60.4941 12.0125 60.7052 11.8014 60.7052 11.5419C60.7052 11.2824 60.4941 11.0713 60.2345 11.0713Z" fill="#FF6C6C"/>
<path d="M10.4623 51.3182C9.34123 51.3182 8.4292 50.4062 8.4292 49.2851C8.4292 48.164 9.34123 47.252 10.4623 47.252C11.5834 47.252 12.4954 48.164 12.4954 49.2851C12.4954 50.4062 11.5834 51.3182 10.4623 51.3182ZM10.4623 48.8146C10.2028 48.8146 9.9917 49.0257 9.9917 49.2852C9.9917 49.5448 10.2028 49.7559 10.4623 49.7559C10.7219 49.7559 10.9329 49.5448 10.9329 49.2852C10.9329 49.0257 10.7219 48.8146 10.4623 48.8146Z" fill="#6C6CFF"/>
<path d="M21.7987 14.827C20.6777 14.827 19.7656 13.915 19.7656 12.7939C19.7656 11.6728 20.6777 10.7607 21.7987 10.7607C22.9198 10.7607 23.8319 11.6728 23.8319 12.7939C23.8319 13.915 22.9198 14.827 21.7987 14.827ZM21.7987 12.3232C21.5392 12.3232 21.3281 12.5343 21.3281 12.7939C21.3281 13.0534 21.5392 13.2645 21.7987 13.2645C22.0583 13.2645 22.2694 13.0534 22.2694 12.7939C22.2692 12.5343 22.0583 12.3232 21.7987 12.3232Z" fill="#6C6CFF"/>
</g>
<defs>
<linearGradient id="paint0_linear_8_1665" x1="80.8255" y1="-6.7528" x2="-18.7362" y2="92.8091" gradientUnits="userSpaceOnUse">
<stop offset="0.0023" stop-color="#FFC599"/>
<stop offset="0.992" stop-color="#FFE8DC" stop-opacity="0"/>
</linearGradient>
<clipPath id="clip0_8_1665">
<rect width="80" height="80" fill="white"/>
</clipPath>
</defs>
</svg>
