<svg width="80" height="80" viewBox="0 0 80 80" fill="none" xmlns="http://www.w3.org/2000/svg">
<g clip-path="url(#clip0_8_1605)">
<path d="M66.9392 26.8575C65.6336 25.5519 64.1227 24.5258 62.4522 23.7692C58.0739 21.7864 54.6317 18.2369 52.6969 13.8372C49.1161 5.69454 40.9821 0.00719417 31.5178 6.66727e-06C19.1255 -0.00936833 8.83628 9.86923 8.36987 22.2528C8.17034 27.5531 9.75378 32.4748 12.5683 36.4667C16.1428 41.5367 17.0716 47.9952 15.2278 53.9183C12.6085 62.3334 13.5217 70.3086 18.5049 75.2919C27.2374 84.0244 45.1589 80.2613 58.5338 66.8864C71.9085 53.5116 75.6717 35.5902 66.9392 26.8575Z" fill="url(#paint0_linear_8_1605)"/>
<path opacity="0.1" d="M49.9422 72.0707V60.388C49.9422 59.4032 50.4428 58.489 51.267 57.9499C57.3276 53.9865 62.7501 47.7288 63.3295 40.2963C64.9289 19.781 44.9859 8.67195 28.7854 19.8243C28.7854 19.8243 16.822 28.164 16.5808 46.3915C16.5754 46.7976 16.9023 47.131 17.3084 47.131H21.9114C21.9114 47.131 20.8872 60.7479 23.2587 61.9935C24.3178 62.5498 27.1073 62.814 29.9636 62.6094V72.0705C29.9636 72.5019 30.3134 72.8518 30.7448 72.8518H49.1609C49.5923 72.8519 49.9422 72.5021 49.9422 72.0707Z" fill="#0000CC"/>
<path d="M49.9422 68.6332V56.1693C49.9422 55.1844 50.4428 54.2702 51.267 53.7312C57.3276 49.7677 62.7501 43.5101 63.3295 36.0776C64.9289 15.5623 44.9859 4.4532 28.7854 15.6055C28.7854 15.6055 16.822 23.9452 16.5808 42.1727C16.5754 42.5788 16.9023 42.9123 17.3084 42.9123H21.9114C21.9114 42.9123 20.8872 56.5291 23.2587 57.7748C24.3178 58.331 27.1073 58.5952 29.9636 58.3907V68.633H49.9422V68.6332Z" fill="#FFAB66"/>
<path d="M63.2707 30.9061H18.3958C20.452 24.6076 23.8145 20.3357 26.1551 17.9404H57.6489C60.6598 21.2576 62.7176 25.6732 63.2707 30.9061Z" fill="#FFC599"/>
<path d="M41.6673 31.6875H34.9482C34.5168 31.6875 34.167 31.3378 34.167 30.9062C34.167 30.4747 34.5168 30.125 34.9482 30.125H41.6673C42.0987 30.125 42.4485 30.4747 42.4485 30.9062C42.4485 31.3378 42.0989 31.6875 41.6673 31.6875Z" fill="#FF7300"/>
<path d="M34.636 37.8704H25.6035C25.1721 37.8704 24.8223 37.5207 24.8223 37.0891C24.8223 36.6576 25.1721 36.3079 25.6035 36.3079H33.8548V26.3652H29.3535C28.9221 26.3652 28.5723 26.0155 28.5723 25.584C28.5723 25.1524 28.9221 24.8027 29.3535 24.8027H34.636C35.0674 24.8027 35.4173 25.1524 35.4173 25.584V37.0891C35.4173 37.5207 35.0674 37.8704 34.636 37.8704Z" fill="#FF7300"/>
<path d="M28.8595 27.5605C29.9511 27.5605 30.8361 26.6756 30.8361 25.584C30.8361 24.4924 29.9511 23.6074 28.8595 23.6074C27.7679 23.6074 26.8829 24.4924 26.8829 25.584C26.8829 26.6756 27.7679 27.5605 28.8595 27.5605Z" fill="#6C6CFF"/>
<path d="M24.9061 39.0664C25.9978 39.0664 26.8827 38.1815 26.8827 37.0898C26.8827 35.9982 25.9978 35.1133 24.9061 35.1133C23.8145 35.1133 22.9296 35.9982 22.9296 37.0898C22.9296 38.1815 23.8145 39.0664 24.9061 39.0664Z" fill="#6C6CFF"/>
<path d="M24.9063 38.0498C25.4367 38.0498 25.8667 37.6198 25.8667 37.0894C25.8667 36.5589 25.4367 36.1289 24.9063 36.1289C24.3758 36.1289 23.9458 36.5589 23.9458 37.0894C23.9458 37.6198 24.3758 38.0498 24.9063 38.0498Z" fill="#9494FF"/>
<path d="M37.69 47.5957H22.1628C21.7314 47.5957 21.3816 47.246 21.3816 46.8145C21.3816 46.3829 21.7314 46.0332 22.1628 46.0332H37.69C38.1214 46.0332 38.4713 46.3829 38.4713 46.8145C38.4713 47.246 38.1216 47.5957 37.69 47.5957Z" fill="#FF7300"/>
<path d="M39.3234 48.791C40.415 48.791 41.2999 47.9061 41.2999 46.8145C41.2999 45.7228 40.415 44.8379 39.3234 44.8379C38.2317 44.8379 37.3468 45.7228 37.3468 46.8145C37.3468 47.9061 38.2317 48.791 39.3234 48.791Z" fill="#6C6CFF"/>
<path d="M39.3234 47.7754C39.8538 47.7754 40.2838 47.3454 40.2838 46.815C40.2838 46.2845 39.8538 45.8545 39.3234 45.8545C38.7929 45.8545 38.3629 46.2845 38.3629 46.815C38.3629 47.3454 38.7929 47.7754 39.3234 47.7754Z" fill="#9494FF"/>
<path d="M28.8592 26.545C29.3896 26.545 29.8196 26.1149 29.8196 25.5845C29.8196 25.054 29.3896 24.624 28.8592 24.624C28.3287 24.624 27.8987 25.054 27.8987 25.5845C27.8987 26.1149 28.3287 26.545 28.8592 26.545Z" fill="#9494FF"/>
<path d="M48.4165 23.4914C47.9851 23.4914 47.6353 23.1417 47.6353 22.7101V12.4443C47.6353 12.0128 47.9851 11.6631 48.4165 11.6631C48.8479 11.6631 49.1978 12.0128 49.1978 12.4443V22.7101C49.1978 23.1417 48.8479 23.4914 48.4165 23.4914Z" fill="#FF7300"/>
<path d="M42.4484 61.782C42.017 61.782 41.6671 61.4323 41.6671 61.0007V52.8796C41.6671 52.4481 42.017 52.0984 42.4484 52.0984H47.6354V38.084C47.6354 37.6524 47.9852 37.3027 48.4166 37.3027C48.8481 37.3027 49.1979 37.6524 49.1979 38.084V52.8796C49.1979 53.3112 48.8481 53.6609 48.4166 53.6609H43.2296V61.0007C43.2296 61.4321 42.8798 61.782 42.4484 61.782Z" fill="#FF7300"/>
<path d="M42.4484 63.9775C43.54 63.9775 44.4249 63.0926 44.4249 62.001C44.4249 60.9094 43.54 60.0244 42.4484 60.0244C41.3567 60.0244 40.4718 60.9094 40.4718 62.001C40.4718 63.0926 41.3567 63.9775 42.4484 63.9775Z" fill="#6C6CFF"/>
<path d="M42.4484 62.9619C42.9788 62.9619 43.4089 62.5319 43.4089 62.0015C43.4089 61.471 42.9788 61.041 42.4484 61.041C41.9179 61.041 41.4879 61.471 41.4879 62.0015C41.4879 62.5319 41.9179 62.9619 42.4484 62.9619Z" fill="#9494FF"/>
<path d="M35.124 69.2286C34.6926 69.2286 34.3428 68.8789 34.3428 68.4474V58.0439C34.3428 57.6124 34.6926 57.2627 35.124 57.2627C35.5554 57.2627 35.9053 57.6124 35.9053 58.0439V68.4474C35.9053 68.8789 35.5554 69.2286 35.124 69.2286Z" fill="#FF7300"/>
<path d="M35.1239 58.043C36.2155 58.043 37.1005 57.158 37.1005 56.0664C37.1005 54.9748 36.2155 54.0898 35.1239 54.0898C34.0323 54.0898 33.1473 54.9748 33.1473 56.0664C33.1473 57.158 34.0323 58.043 35.1239 58.043Z" fill="#6C6CFF"/>
<path d="M35.1239 57.0274C35.6544 57.0274 36.0844 56.5974 36.0844 56.0669C36.0844 55.5365 35.6544 55.1064 35.1239 55.1064C34.5935 55.1064 34.1635 55.5365 34.1635 56.0669C34.1635 56.5974 34.5935 57.0274 35.1239 57.0274Z" fill="#9494FF"/>
<path d="M61.7855 42.8262H54.8442C54.4128 42.8262 54.063 42.4765 54.063 42.0449C54.063 41.6134 54.4128 41.2637 54.8442 41.2637H61.7855C62.2169 41.2637 62.5667 41.6134 62.5667 42.0449C62.5667 42.4765 62.2169 42.8262 61.7855 42.8262Z" fill="#FF7300"/>
<path d="M53.8837 44.0215C54.9753 44.0215 55.8602 43.1366 55.8602 42.0449C55.8602 40.9533 54.9753 40.0684 53.8837 40.0684C52.792 40.0684 51.9071 40.9533 51.9071 42.0449C51.9071 43.1366 52.792 44.0215 53.8837 44.0215Z" fill="#6C6CFF"/>
<path d="M53.8837 43.0059C54.4141 43.0059 54.8442 42.5759 54.8442 42.0454C54.8442 41.515 54.4141 41.085 53.8837 41.085C53.3532 41.085 52.9232 41.515 52.9232 42.0454C52.9232 42.5759 53.3532 43.0059 53.8837 43.0059Z" fill="#9494FF"/>
<path d="M49.9424 59.4287C49.511 59.4287 49.1611 59.079 49.1611 58.6474V56.1698C49.1611 54.921 49.7886 53.7651 50.8396 53.0778C60.7125 46.6215 62.3186 38.9962 62.5508 36.0173C62.9041 31.4857 62.2086 27.3135 60.4835 23.6167C58.895 20.2128 56.4486 17.3396 53.4085 15.3078C47.2292 11.1778 39.3053 10.8648 32.2122 14.4704C31.8275 14.6659 31.3574 14.5126 31.1617 14.1281C30.9663 13.7434 31.1196 13.2731 31.5041 13.0776C39.108 9.2126 47.621 9.56041 54.2766 14.0087C57.5542 16.1995 60.1902 19.2932 61.8992 22.956C63.7396 26.8999 64.4828 31.3354 64.1085 36.1388C63.5797 42.9217 59.055 49.5723 51.6946 54.3854C51.0864 54.7832 50.7235 55.4501 50.7235 56.1698V58.6474C50.7236 59.079 50.3738 59.4287 49.9424 59.4287Z" fill="#0000CC"/>
<path d="M49.9424 69.4146C49.511 69.4146 49.1611 69.065 49.1611 68.6334V63.96C49.1611 63.5284 49.511 63.1787 49.9424 63.1787C50.3738 63.1787 50.7236 63.5284 50.7236 63.96V68.6334C50.7236 69.065 50.3738 69.4146 49.9424 69.4146Z" fill="#0000CC"/>
<path d="M29.9636 69.4148C29.5322 69.4148 29.1824 69.0651 29.1824 68.6336V59.2173C26.8214 59.3136 24.1491 59.1253 22.8955 58.4669C22.0133 58.0034 20.991 56.6092 20.9147 49.8856C20.8863 47.3836 21.0046 44.9351 21.078 43.6939H17.3085C16.9021 43.6939 16.521 43.5344 16.2354 43.245C15.9489 42.955 15.7943 42.5706 15.7996 42.1628C15.9943 27.4587 23.6511 19.0464 26.9343 16.112C27.256 15.8242 27.7499 15.852 28.0374 16.1739C28.3249 16.4956 28.2972 16.9895 27.9755 17.277C24.8504 20.0705 17.5663 28.0792 17.3627 42.1314H21.9114C22.1288 42.1314 22.3363 42.222 22.4843 42.3814C22.6322 42.5408 22.7069 42.7545 22.6905 42.9712C22.688 43.005 22.4371 46.3909 22.4772 49.8769C22.5527 56.4467 23.5785 57.0606 23.6222 57.0834C24.4168 57.5009 26.8896 57.8278 29.908 57.6119C30.1244 57.5962 30.3375 57.6715 30.4961 57.8194C30.6549 57.967 30.745 58.1742 30.745 58.3911V68.6334C30.7449 69.0651 30.395 69.4148 29.9636 69.4148Z" fill="#0000CC"/>
<path d="M48.4167 38.0834C52.662 38.0834 56.1034 34.6419 56.1034 30.3967C56.1034 26.1514 52.662 22.71 48.4167 22.71C44.1714 22.71 40.73 26.1514 40.73 30.3967C40.73 34.6419 44.1714 38.0834 48.4167 38.0834Z" fill="#9494FF"/>
<path d="M48.4166 34.2469C50.5426 34.2469 52.2661 32.5234 52.2661 30.3974C52.2661 28.2713 50.5426 26.5479 48.4166 26.5479C46.2905 26.5479 44.567 28.2713 44.567 30.3974C44.567 32.5234 46.2905 34.2469 48.4166 34.2469Z" fill="#D9D9FF"/>
<path d="M46.3407 36.0195C47.3201 36.0195 48.1141 35.2255 48.1141 34.2461C48.1141 33.2667 47.3201 32.4727 46.3407 32.4727C45.3613 32.4727 44.5673 33.2667 44.5673 34.2461C44.5673 35.2255 45.3613 36.0195 46.3407 36.0195Z" fill="#FF6C6C"/>
<path d="M11.063 42.4687C9.94194 42.4687 9.02991 41.5566 9.02991 40.4355C9.02991 39.3144 9.94194 38.4023 11.063 38.4023C12.1841 38.4023 13.0962 39.3144 13.0962 40.4355C13.0962 41.5566 12.1841 42.4687 11.063 42.4687ZM11.063 39.965C10.8035 39.965 10.5924 40.1761 10.5924 40.4356C10.5924 40.6952 10.8035 40.9064 11.063 40.9064C11.3226 40.9064 11.5337 40.6952 11.5337 40.4356C11.5337 40.1761 11.3226 39.965 11.063 39.965Z" fill="#FF6C6C"/>
<path d="M67.1503 64.2098C66.0292 64.2098 65.1172 63.2978 65.1172 62.1767C65.1172 61.0556 66.0292 60.1436 67.1503 60.1436C68.2714 60.1436 69.1834 61.0556 69.1834 62.1767C69.1834 63.2978 68.2714 64.2098 67.1503 64.2098ZM67.1503 61.7061C66.8908 61.7061 66.6797 61.9171 66.6797 62.1767C66.6797 62.4362 66.8908 62.6473 67.1503 62.6473C67.4098 62.6473 67.6209 62.4362 67.6209 62.1767C67.6209 61.9171 67.4098 61.7061 67.1503 61.7061Z" fill="#FF6C6C"/>
<path d="M58.7132 13.3307C58.5132 13.3307 58.3134 13.2544 58.1607 13.1018L56.3963 11.3374C56.0912 11.0324 56.0912 10.5377 56.3963 10.2327L58.1607 8.46816C58.3073 8.3216 58.5059 8.23926 58.7132 8.23926C58.9206 8.23926 59.1192 8.32145 59.2657 8.46816L61.0301 10.2327C61.1767 10.3793 61.2588 10.5779 61.2588 10.785C61.2588 10.9922 61.1765 11.191 61.0301 11.3374L59.2657 13.1018C59.1131 13.2543 58.9132 13.3307 58.7132 13.3307ZM58.0537 10.785L58.7132 11.4446L59.3728 10.785L58.7132 10.1254L58.0537 10.785Z" fill="#6C6CFF"/>
<path d="M12.3149 52.2974C12.1077 52.2974 11.909 52.2152 11.7624 52.0685L9.99804 50.304C9.85147 50.1574 9.76929 49.9588 9.76929 49.7516C9.76929 49.5445 9.85163 49.3457 9.99804 49.1993L11.7624 47.4349C12.0676 47.1298 12.5621 47.1298 12.8673 47.4349L14.6316 49.1993C14.7782 49.3459 14.8604 49.5445 14.8604 49.7516C14.8604 49.9588 14.778 50.1576 14.6316 50.304L12.8673 52.0685C12.7209 52.2152 12.5221 52.2974 12.3149 52.2974ZM11.6554 49.7516L12.3149 50.4113L12.9744 49.7516L12.3149 49.0921L11.6554 49.7516Z" fill="#6C6CFF"/>
<path d="M58.3149 61.0268C58.1149 61.0268 57.9151 60.9505 57.7624 60.7978L55.998 59.0335C55.8515 58.8869 55.7693 58.6883 55.7693 58.4811C55.7693 58.2739 55.8516 58.0752 55.998 57.9288L57.7624 56.1644C58.0676 55.8593 58.5621 55.8593 58.8673 56.1644L60.6316 57.9288C60.7782 58.0753 60.8604 58.2739 60.8604 58.4811C60.8604 58.6883 60.778 58.8871 60.6316 59.0335L58.8673 60.7978C58.7148 60.9505 58.5149 61.0268 58.3149 61.0268ZM57.6554 58.4811L58.3149 59.1407L58.9744 58.4811L58.3149 57.8216L57.6554 58.4811Z" fill="#FF9D33"/>
</g>
<defs>
<linearGradient id="paint0_linear_8_1605" x1="77.6039" y1="9.80422" x2="-12.7086" y2="70.4292" gradientUnits="userSpaceOnUse">
<stop offset="0.007" stop-color="#9494FF"/>
<stop offset="0.992" stop-color="#FFE8DC" stop-opacity="0"/>
</linearGradient>
<clipPath id="clip0_8_1605">
<rect width="80" height="80" fill="white"/>
</clipPath>
</defs>
</svg>
