<svg width="80" height="80" viewBox="0 0 80 80" fill="none" xmlns="http://www.w3.org/2000/svg">
<g clip-path="url(#clip0_8_1546)">
<path d="M6.58836 66.2533C-2.97445 62.2922 -1.12148 42.0344 5.74695 45.3607C8.29383 46.5939 9.03602 50.4455 12.1057 51.1954C14.2171 51.9066 21.244 49.6708 13.0901 36.4293C-4.66242 7.59973 54.714 -15.5892 45.6595 25.5436C44.6616 29.4114 48.4591 30.8143 51.8923 31.2046C110.057 37.8166 66.7235 97.0539 22.9493 69.4049C15.6379 64.7868 11.2818 68.1974 6.58836 66.2533Z" fill="url(#paint0_linear_8_1546)"/>
<path opacity="0.1" d="M74.8978 67.4501L72.3475 57.1579C72.1749 56.4608 71.5491 55.9711 70.831 55.9711H62.9589C63.1619 55.9711 63.3111 55.7805 63.2622 55.5835L60.7119 45.2913C60.5392 44.5943 59.9135 44.1046 59.1953 44.1046H51.3233C51.5263 44.1046 51.6755 43.914 51.6266 43.7169L49.7783 36.2579C54.2535 38.3094 59.7192 37.4965 63.4044 33.8113C68.2085 29.0072 68.1383 21.1749 63.1942 16.4591C58.5194 12.0004 51.0642 12.0233 46.4155 16.5093C42.1578 20.6177 41.5678 27.0524 44.6408 31.8083L44.5592 32.2382H32.4406C31.7225 32.2382 31.0967 32.7277 30.9241 33.4249L28.3738 43.7171C28.3249 43.9141 28.4741 44.1047 28.6771 44.1047H20.805C20.0869 44.1047 19.4611 44.5943 19.2885 45.2915L16.7381 55.5836C16.6892 55.7807 16.8385 55.9713 17.0414 55.9713H9.16924C8.45111 55.9713 7.82533 56.4608 7.65268 57.158L5.10236 67.4502C5.05346 67.6472 5.20268 67.8379 5.40564 67.8379H28.0517C28.2547 67.8379 28.4039 67.6472 28.355 67.4502L25.8047 57.158C25.632 56.461 25.0063 55.9713 24.2881 55.9713H32.4408C31.7227 55.9713 31.0969 56.4608 30.9242 57.158L28.3739 67.4502C28.325 67.6472 28.4742 67.8379 28.6772 67.8379H51.3233C51.5263 67.8379 51.6755 67.6472 51.6266 67.4502L49.0763 57.158C48.9036 56.461 48.2778 55.9713 47.5597 55.9713H55.7124C54.9942 55.9713 54.3685 56.4608 54.1958 57.158L51.6455 67.4502C51.5966 67.6472 51.7458 67.8379 51.9488 67.8379H74.5949C74.7975 67.8377 74.9466 67.6471 74.8978 67.4501ZM39.6874 55.9711C39.8903 55.9711 40.0396 55.7805 39.9906 55.5835L37.4403 45.2913C37.2677 44.5943 36.6419 44.1046 35.9238 44.1046H44.0764C43.3583 44.1046 42.7325 44.5941 42.5599 45.2913L40.0096 55.5835C39.9606 55.7805 40.1099 55.9711 40.3128 55.9711H39.6874Z" fill="#0000CC"/>
<path d="M28.0518 64.0882H5.40552C5.20255 64.0882 5.05334 63.8976 5.10224 63.7006L7.65255 53.4084C7.82537 52.7114 8.45099 52.2217 9.16912 52.2217H24.2879C25.006 52.2217 25.6318 52.7112 25.8044 53.4084L28.3547 63.7006C28.4038 63.8976 28.2547 64.0882 28.0518 64.0882Z" fill="#FFAB66"/>
<path d="M23.5337 64.0889L22.4059 59.5373C22.2331 58.8403 21.6074 58.3506 20.8893 58.3506H12.5682C11.8501 58.3506 11.2243 58.8401 11.0516 59.5373L9.92383 64.0889H23.5337Z" fill="#FFC599"/>
<path d="M51.3231 64.0882H28.6769C28.4739 64.0882 28.3247 63.8976 28.3736 63.7006L30.9239 53.4084C31.0967 52.7114 31.7224 52.2217 32.4405 52.2217H47.5592C48.2773 52.2217 48.9031 52.7112 49.0758 53.4084L51.6261 63.7006C51.6752 63.8976 51.5261 64.0882 51.3231 64.0882Z" fill="#FFAB66"/>
<path d="M46.805 64.0889L45.6772 59.5373C45.5044 58.8403 44.8788 58.3506 44.1607 58.3506H35.8396C35.1214 58.3506 34.4957 58.8401 34.323 59.5373L33.1952 64.0889H46.805Z" fill="#FFC599"/>
<path d="M74.5946 64.0882H51.9484C51.7454 64.0882 51.5962 63.8976 51.6451 63.7006L54.1954 53.4084C54.3682 52.7114 54.9938 52.2217 55.712 52.2217H70.8307C71.5489 52.2217 72.1746 52.7112 72.3473 53.4084L74.8976 63.7006C74.9467 63.8976 74.7976 64.0882 74.5946 64.0882Z" fill="#FFAB66"/>
<path d="M70.0765 64.0889L68.9487 59.5373C68.7761 58.8403 68.1503 58.3506 67.4321 58.3506H59.1111C58.3929 58.3506 57.7671 58.8401 57.5945 59.5373L56.4667 64.0889H70.0765Z" fill="#FFC599"/>
<path d="M39.6874 52.2211H17.0413C16.8383 52.2211 16.6891 52.0304 16.738 51.8334L19.2883 41.5412C19.4611 40.8442 20.0867 40.3545 20.8049 40.3545H35.9236C36.6417 40.3545 37.2675 40.844 37.4402 41.5412L39.9905 51.8334C40.0395 52.0304 39.8903 52.2211 39.6874 52.2211Z" fill="#FFAB66"/>
<path d="M35.1693 52.2217L34.0415 47.6701C33.8687 46.9729 33.243 46.4834 32.5249 46.4834H24.2038C23.4857 46.4834 22.8599 46.9729 22.6873 47.6701L21.5594 52.2217H35.1693Z" fill="#FFC599"/>
<path d="M62.9587 52.2211H40.3126C40.1097 52.2211 39.9604 52.0304 40.0093 51.8334L42.5597 41.5412C42.7325 40.8442 43.3581 40.3545 44.0762 40.3545H59.195C59.9131 40.3545 60.5389 40.844 60.7115 41.5412L63.2619 51.8334C63.3109 52.0304 63.1617 52.2211 62.9587 52.2211Z" fill="#FFAB66"/>
<path d="M58.4408 52.2217L57.313 47.6701C57.1403 46.9729 56.5145 46.4834 55.7964 46.4834H47.4753C46.7572 46.4834 46.1314 46.9729 45.9587 47.6701L44.8309 52.2217H58.4408Z" fill="#FFC599"/>
<path d="M51.3231 40.3548H28.6769C28.4739 40.3548 28.3247 40.1642 28.3736 39.9672L30.9239 29.675C31.0967 28.978 31.7224 28.4883 32.4405 28.4883H47.5592C48.2773 28.4883 48.9031 28.9778 49.0758 29.675L51.6261 39.9672C51.6752 40.1642 51.5261 40.3548 51.3231 40.3548Z" fill="#FFAB66"/>
<path d="M50.8108 36.6779C49.9249 36.367 49.0687 35.9498 48.2608 35.4279L44.9202 36.0607C44.378 36.1639 43.9046 35.6889 44.0062 35.1482L44.6405 31.8076C43.9687 30.767 43.4718 29.6467 43.1499 28.4873H47.5593C48.278 28.4873 48.903 28.9779 49.0765 29.6748L50.8108 36.6779Z" fill="#FF9D33"/>
<path d="M46.805 40.3545L45.6772 35.8029C45.5044 35.1057 44.8788 34.6162 44.1607 34.6162H35.8396C35.1214 34.6162 34.4957 35.1057 34.323 35.8029L33.1952 40.3545H46.805Z" fill="#FFC599"/>
<path d="M63.404 30.0614C68.2081 25.2573 68.1379 17.425 63.1939 12.7092C58.519 8.25027 51.0639 8.2734 46.4151 12.7593C42.1575 16.8678 41.5675 23.3025 44.6404 28.0584L44.0067 31.3986C43.904 31.9398 44.3787 32.4143 44.9198 32.3117L48.26 31.6779C52.9567 34.7128 59.2903 34.1753 63.404 30.0614Z" fill="#FF6C6C"/>
<path d="M75.6561 63.5121L73.1058 53.2199C72.8461 52.1718 71.9107 51.4399 70.8308 51.4399H63.9694L61.47 41.3533C61.2104 40.3052 60.2749 39.5733 59.195 39.5733H52.3338L50.8974 33.7771C52.1683 34.1824 53.5014 34.3918 54.8436 34.3918C55.2714 34.3918 55.7005 34.3705 56.1286 34.3275C59.0772 34.0318 61.8572 32.7129 63.9564 30.6136C66.4349 28.1352 67.7771 24.8397 67.7358 21.3343C67.6943 17.8299 66.273 14.566 63.7333 12.1438C61.3354 9.8566 58.1761 8.59863 54.8327 8.59863C54.8194 8.59863 54.8058 8.59863 54.7925 8.59863C51.4347 8.60879 48.2669 9.88676 45.8727 12.1971C41.5194 16.3979 40.6774 23.0854 43.8158 28.2143L43.2394 31.2529C43.143 31.7611 43.3038 32.2832 43.6696 32.6489C44.0355 33.0149 44.5578 33.1757 45.0658 33.0793L48.1046 32.5027C48.431 32.7022 48.7666 32.8847 49.1085 33.0536L50.7241 39.5735H44.0764H35.9236H29.276L31.6824 29.8629C31.7689 29.5135 32.0807 29.2696 32.4407 29.2696H40.3435C40.775 29.2696 41.1247 28.9197 41.1247 28.4883C41.1247 28.0569 40.775 27.7071 40.3435 27.7071H32.4407C31.361 27.7071 30.4255 28.4391 30.1657 29.4871L27.6661 39.5736H20.8049C19.7252 39.5736 18.7897 40.3057 18.5299 41.3536L16.0305 51.4402H9.16926C8.08957 51.4402 7.1541 52.1722 6.89426 53.2202L6.34301 55.445C6.23926 55.8638 6.49473 56.2875 6.91348 56.3913C7.33145 56.495 7.75582 56.2397 7.85973 55.821L8.41098 53.5961C8.49754 53.2468 8.80926 53.0028 9.16926 53.0028H17.0413H24.2882C24.6482 53.0028 24.9599 53.2469 25.0464 53.5961L27.4527 63.3068H6.00473L6.85488 59.8755C6.95863 59.4566 6.70317 59.033 6.28442 58.9293C5.86598 58.8255 5.44192 59.0808 5.33817 59.4996L4.34395 63.5124C4.26254 63.8411 4.33551 64.1827 4.54426 64.4494C4.75285 64.7163 5.06692 64.8693 5.40567 64.8693H28.0516C28.1594 64.8693 28.2639 64.8522 28.3641 64.8224C28.4643 64.8521 28.5691 64.8693 28.6768 64.8693H51.323C51.4308 64.8693 51.5355 64.8521 51.6357 64.8224C51.7358 64.8521 51.8405 64.8693 51.9483 64.8693H74.5944C74.9332 64.8693 75.2471 64.7163 75.4558 64.4494C75.6646 64.1825 75.7377 63.841 75.6561 63.5121ZM48.2602 30.8966C48.2116 30.8966 48.1629 30.9011 48.1146 30.9102L44.7743 31.5439L45.408 28.2038C45.4454 28.0066 45.4055 27.8027 45.2966 27.6341C42.3655 23.0977 43.0641 17.0783 46.9575 13.3213C51.2736 9.1566 58.3152 9.1352 62.6547 13.2743C64.8874 15.4036 66.1369 18.2725 66.1733 21.3525C66.2097 24.4336 65.0302 27.3302 62.8518 29.5085C59.0971 33.2633 53.1386 33.8997 48.6843 31.0214C48.5571 30.9396 48.4096 30.8966 48.2602 30.8966ZM51.3232 41.1358H59.1952C59.5552 41.1358 59.8669 41.3799 59.9535 41.7291L62.3597 51.4397H55.7121H47.5594H40.9118L43.318 41.7291C43.4046 41.3797 43.7164 41.1358 44.0764 41.1358H51.3232ZM51.6358 60.4893L49.8344 53.2197C49.816 53.1455 49.7933 53.0733 49.7683 53.0024H53.5033C53.4783 53.0733 53.4557 53.1457 53.4372 53.2199L51.6358 60.4893ZM40 48.6227L38.1988 41.3533C38.1804 41.2789 38.1577 41.2068 38.1327 41.1358H41.8675C41.8425 41.2068 41.8199 41.2791 41.8014 41.3533L40 48.6227ZM17.6404 51.4399L20.0466 41.7293C20.1332 41.3799 20.4449 41.136 20.8049 41.136H28.6769H35.9236C36.2836 41.136 36.5955 41.38 36.6821 41.7293L39.0883 51.4399H32.4407H24.288H17.6404ZM26.563 53.2199C26.5446 53.1455 26.5219 53.0733 26.4969 53.0024H30.2318C30.2068 53.0733 30.1841 53.1457 30.1657 53.2199L28.3644 60.4893L26.563 53.2199ZM29.276 63.3064L31.6821 53.5958C31.7688 53.2464 32.0807 53.0024 32.4405 53.0024H39.6872H40.3125H47.5593C47.9193 53.0024 48.2311 53.2464 48.3177 53.5957L50.7239 63.3064H29.276ZM52.5475 63.3064L54.9538 53.5957C55.0404 53.2463 55.3521 53.0024 55.7121 53.0024H62.9589H70.831C71.191 53.0024 71.5027 53.2464 71.5893 53.5957L73.9955 63.3064H52.5475Z" fill="#0000CC"/>
<path d="M60.7438 22.014L55.5279 14.7262C55.1861 14.2488 54.4765 14.2488 54.1349 14.7262L48.9189 22.014C48.4768 22.6318 48.9982 23.4768 49.7488 23.3585L51.7627 23.0412V27.7671C51.7627 28.2401 52.1461 28.6237 52.6193 28.6237H57.0436C57.5166 28.6237 57.9002 28.2402 57.9002 27.7671V23.0412L59.9141 23.3585C60.6646 23.4768 61.186 22.6318 60.7438 22.014Z" fill="#FFEEEE"/>
<path d="M45.7033 35.9131L44.9204 36.0615C44.3783 36.1646 43.9048 35.6896 44.0064 35.149L44.1079 34.6162H44.1611C44.8783 34.6162 45.5048 35.1068 45.6767 35.8037L45.7033 35.9131Z" fill="#FFAB66"/>
<path d="M22.9655 32.9627C22.7657 32.9627 22.5655 32.8865 22.4132 32.734L21.5593 31.8802L20.7054 32.734C20.4005 33.039 19.9055 33.039 19.6007 32.734C19.2955 32.4288 19.2955 31.9341 19.6007 31.6291L21.0069 30.2229C21.3118 29.9179 21.8068 29.9179 22.1116 30.2229L23.5179 31.6291C23.823 31.9343 23.823 32.429 23.5179 32.734C23.3655 32.8865 23.1655 32.9627 22.9655 32.9627Z" fill="#FF6C6C"/>
<path d="M55.1734 70.0203C54.9736 70.0203 54.7734 69.9441 54.6211 69.7916L53.7672 68.9379L52.9133 69.7916C52.6084 70.0966 52.1134 70.0966 51.8086 69.7916C51.5034 69.4864 51.5034 68.9918 51.8086 68.6868L53.2148 67.2805C53.5197 66.9755 54.0147 66.9755 54.3195 67.2805L55.7258 68.6868C56.0309 68.9919 56.0309 69.4866 55.7258 69.7916C55.5734 69.9441 55.3734 70.0203 55.1734 70.0203Z" fill="#FF6C6C"/>
<path d="M24.9399 19.1385C24.7401 19.1385 24.5399 19.0623 24.3876 18.9098L23.5337 18.056L22.6797 18.9098C22.3749 19.2148 21.8799 19.2148 21.5751 18.9098C21.2699 18.6046 21.2699 18.1099 21.5751 17.8049L22.9813 16.3987C23.2862 16.0937 23.7811 16.0937 24.086 16.3987L25.4922 17.8049C25.7974 18.1101 25.7974 18.6048 25.4922 18.9098C25.3399 19.0623 25.1399 19.1385 24.9399 19.1385Z" fill="#FF9D33"/>
<path d="M26.2243 28.4871C26.0245 28.4871 25.8243 28.4109 25.672 28.2584C25.3668 27.9532 25.3668 27.4586 25.672 27.1536L27.2345 25.5911C27.5393 25.2861 28.0343 25.2861 28.3392 25.5911C28.6443 25.8962 28.6443 26.3909 28.3392 26.6959L26.7767 28.2584C26.6243 28.4109 26.4242 28.4871 26.2243 28.4871Z" fill="#6C6CFF"/>
<path d="M61.6786 73.3016C61.4787 73.3016 61.2785 73.2254 61.1262 73.0729C60.821 72.7677 60.821 72.273 61.1262 71.968L62.6887 70.4055C62.9936 70.1005 63.4886 70.1005 63.7934 70.4055C64.0986 70.7107 64.0986 71.2054 63.7934 71.5104L62.2309 73.0729C62.0786 73.2254 61.8784 73.3016 61.6786 73.3016Z" fill="#6C6CFF"/>
</g>
<defs>
<linearGradient id="paint0_linear_8_1546" x1="11.347" y1="71.9161" x2="59.7127" y2="23.5504" gradientUnits="userSpaceOnUse">
<stop stop-color="#FFF3EE" stop-opacity="0"/>
<stop offset="0.2938" stop-color="#FFEADE" stop-opacity="0.373"/>
<stop offset="0.7874" stop-color="#FFD6BB"/>
</linearGradient>
<clipPath id="clip0_8_1546">
<rect width="80" height="80" fill="white"/>
</clipPath>
</defs>
</svg>
